<mxfile host="app.diagrams.net" modified="2023-08-12T00:02:12.779Z" agent="Mozilla/5.0 (Windows NT 10.0; Win64; x64) AppleWebKit/537.36 (KHTML, like Gecko) Chrome/115.0.0.0 Safari/537.36" etag="yp5A5pqvgv_7b1wQpBOX" version="21.6.2" type="device">
  <diagram id="paF6YQ2i-V6QRX9dfae7" name="Page-1">
    <mxGraphModel dx="1603" dy="831" grid="1" gridSize="10" guides="1" tooltips="1" connect="1" arrows="1" fold="1" page="1" pageScale="1" pageWidth="1169" pageHeight="827" math="0" shadow="0">
      <root>
        <mxCell id="0" />
        <mxCell id="1" parent="0" />
        <mxCell id="7sJCd6B2Vx5864JhMqsD-55" value="Availability Zone" style="fillColor=none;strokeColor=#147EBA;dashed=1;verticalAlign=top;fontStyle=0;fontColor=#147EBA;whiteSpace=wrap;html=1;" vertex="1" parent="1">
          <mxGeometry x="374" y="504" width="512.25" height="140" as="geometry" />
        </mxCell>
        <mxCell id="eyDXWGFDGW_XnUvpQX0K-29" style="edgeStyle=orthogonalEdgeStyle;rounded=0;orthogonalLoop=1;jettySize=auto;html=1;entryX=1;entryY=0.5;entryDx=0;entryDy=0;entryPerimeter=0;" parent="1" source="P3LnugzHq6Kd_qjz9YZf-50" target="787doy9NoyU9D87VZDhD-17" edge="1">
          <mxGeometry relative="1" as="geometry" />
        </mxCell>
        <mxCell id="P3LnugzHq6Kd_qjz9YZf-50" value="" style="rounded=1;whiteSpace=wrap;html=1;fillColor=none;rotation=0;" parent="1" vertex="1">
          <mxGeometry x="1032.13" y="154" width="121" height="120" as="geometry" />
        </mxCell>
        <mxCell id="7sJCd6B2Vx5864JhMqsD-12" style="edgeStyle=orthogonalEdgeStyle;rounded=0;orthogonalLoop=1;jettySize=auto;html=1;entryX=0.5;entryY=1;entryDx=0;entryDy=0;" edge="1" parent="1" source="P3LnugzHq6Kd_qjz9YZf-47" target="P3LnugzHq6Kd_qjz9YZf-50">
          <mxGeometry relative="1" as="geometry" />
        </mxCell>
        <mxCell id="P3LnugzHq6Kd_qjz9YZf-47" value="" style="rounded=1;whiteSpace=wrap;html=1;fillColor=none;rotation=0;" parent="1" vertex="1">
          <mxGeometry x="1032.13" y="311.5" width="121.23" height="120" as="geometry" />
        </mxCell>
        <mxCell id="P3LnugzHq6Kd_qjz9YZf-15" value="Public subnet" style="points=[[0,0],[0.25,0],[0.5,0],[0.75,0],[1,0],[1,0.25],[1,0.5],[1,0.75],[1,1],[0.75,1],[0.5,1],[0.25,1],[0,1],[0,0.75],[0,0.5],[0,0.25]];outlineConnect=0;gradientColor=none;html=1;whiteSpace=wrap;fontSize=12;fontStyle=0;container=1;pointerEvents=0;collapsible=0;recursiveResize=0;shape=mxgraph.aws4.group;grIcon=mxgraph.aws4.group_security_group;grStroke=0;strokeColor=#248814;fillColor=#E9F3E6;verticalAlign=top;align=left;spacingLeft=30;fontColor=#248814;dashed=0;rotation=0;" parent="1" vertex="1">
          <mxGeometry x="388.13" y="511" width="345.87" height="119" as="geometry" />
        </mxCell>
        <mxCell id="kEIAtn397vdBtJ0K74f4-1" value="AWS Cloud" style="points=[[0,0],[0.25,0],[0.5,0],[0.75,0],[1,0],[1,0.25],[1,0.5],[1,0.75],[1,1],[0.75,1],[0.5,1],[0.25,1],[0,1],[0,0.75],[0,0.5],[0,0.25]];outlineConnect=0;gradientColor=none;html=1;whiteSpace=wrap;fontSize=12;fontStyle=0;container=1;pointerEvents=0;collapsible=0;recursiveResize=0;shape=mxgraph.aws4.group;grIcon=mxgraph.aws4.group_aws_cloud_alt;strokeColor=#232F3E;fillColor=none;verticalAlign=top;align=left;spacingLeft=30;fontColor=#232F3E;dashed=0;" parent="1" vertex="1">
          <mxGeometry x="110" y="74" width="882.13" height="680" as="geometry" />
        </mxCell>
        <mxCell id="kEIAtn397vdBtJ0K74f4-3" value="Region" style="points=[[0,0],[0.25,0],[0.5,0],[0.75,0],[1,0],[1,0.25],[1,0.5],[1,0.75],[1,1],[0.75,1],[0.5,1],[0.25,1],[0,1],[0,0.75],[0,0.5],[0,0.25]];outlineConnect=0;gradientColor=none;html=1;whiteSpace=wrap;fontSize=12;fontStyle=0;container=1;pointerEvents=0;collapsible=0;recursiveResize=0;shape=mxgraph.aws4.group;grIcon=mxgraph.aws4.group_region;strokeColor=#147EBA;fillColor=none;verticalAlign=top;align=left;spacingLeft=30;fontColor=#147EBA;dashed=1;" parent="kEIAtn397vdBtJ0K74f4-1" vertex="1">
          <mxGeometry x="78.75" y="120" width="771.25" height="520" as="geometry" />
        </mxCell>
        <mxCell id="kEIAtn397vdBtJ0K74f4-2" value="VPC" style="points=[[0,0],[0.25,0],[0.5,0],[0.75,0],[1,0],[1,0.25],[1,0.5],[1,0.75],[1,1],[0.75,1],[0.5,1],[0.25,1],[0,1],[0,0.75],[0,0.5],[0,0.25]];outlineConnect=0;gradientColor=none;html=1;whiteSpace=wrap;fontSize=12;fontStyle=0;container=1;pointerEvents=0;collapsible=0;recursiveResize=0;shape=mxgraph.aws4.group;grIcon=mxgraph.aws4.group_vpc;strokeColor=#248814;fillColor=none;verticalAlign=top;align=left;spacingLeft=30;fontColor=#AAB7B8;dashed=0;" parent="kEIAtn397vdBtJ0K74f4-3" vertex="1">
          <mxGeometry x="39.5" y="39" width="690.5" height="441" as="geometry" />
        </mxCell>
        <mxCell id="kEIAtn397vdBtJ0K74f4-9" value="Availability Zone" style="fillColor=none;strokeColor=#147EBA;dashed=1;verticalAlign=top;fontStyle=0;fontColor=#147EBA;whiteSpace=wrap;html=1;" parent="kEIAtn397vdBtJ0K74f4-2" vertex="1">
          <mxGeometry x="145.75" y="67" width="512.25" height="140" as="geometry" />
        </mxCell>
        <mxCell id="P3LnugzHq6Kd_qjz9YZf-22" value="Security group" style="fillColor=none;strokeColor=#DD3522;verticalAlign=top;fontStyle=0;fontColor=#DD3522;whiteSpace=wrap;html=1;rotation=0;" parent="kEIAtn397vdBtJ0K74f4-2" vertex="1">
          <mxGeometry x="35.25" y="42" width="118.5" height="361" as="geometry" />
        </mxCell>
        <mxCell id="7sJCd6B2Vx5864JhMqsD-71" style="edgeStyle=orthogonalEdgeStyle;rounded=0;orthogonalLoop=1;jettySize=auto;html=1;entryX=0;entryY=0.5;entryDx=0;entryDy=0;entryPerimeter=0;" edge="1" parent="kEIAtn397vdBtJ0K74f4-2" source="kEIAtn397vdBtJ0K74f4-14" target="b87ZAK8lSTTPDpUrN3-H-22">
          <mxGeometry relative="1" as="geometry" />
        </mxCell>
        <mxCell id="kEIAtn397vdBtJ0K74f4-14" value="" style="sketch=0;outlineConnect=0;fontColor=#232F3E;gradientColor=none;fillColor=#4D27AA;strokeColor=none;dashed=0;verticalLabelPosition=bottom;verticalAlign=top;align=center;html=1;fontSize=12;fontStyle=0;aspect=fixed;pointerEvents=1;shape=mxgraph.aws4.internet_gateway;" parent="kEIAtn397vdBtJ0K74f4-2" vertex="1">
          <mxGeometry x="-26.5" y="211" width="55" height="55" as="geometry" />
        </mxCell>
        <mxCell id="787doy9NoyU9D87VZDhD-72" value="&lt;b&gt;Internet&lt;br&gt;Gateway&lt;/b&gt;" style="text;html=1;strokeColor=none;fillColor=none;align=center;verticalAlign=middle;whiteSpace=wrap;rounded=0;" parent="kEIAtn397vdBtJ0K74f4-2" vertex="1">
          <mxGeometry x="-33.25" y="281" width="68.5" height="30" as="geometry" />
        </mxCell>
        <mxCell id="7sJCd6B2Vx5864JhMqsD-60" style="edgeStyle=orthogonalEdgeStyle;rounded=0;orthogonalLoop=1;jettySize=auto;html=1;entryX=0.246;entryY=0.95;entryDx=0;entryDy=0;entryPerimeter=0;" edge="1" parent="kEIAtn397vdBtJ0K74f4-2" source="b87ZAK8lSTTPDpUrN3-H-22" target="kEIAtn397vdBtJ0K74f4-9">
          <mxGeometry relative="1" as="geometry">
            <Array as="points">
              <mxPoint x="272" y="238" />
              <mxPoint x="272" y="207" />
            </Array>
          </mxGeometry>
        </mxCell>
        <mxCell id="b87ZAK8lSTTPDpUrN3-H-22" value="" style="sketch=0;points=[[0,0,0],[0.25,0,0],[0.5,0,0],[0.75,0,0],[1,0,0],[0,1,0],[0.25,1,0],[0.5,1,0],[0.75,1,0],[1,1,0],[0,0.25,0],[0,0.5,0],[0,0.75,0],[1,0.25,0],[1,0.5,0],[1,0.75,0]];outlineConnect=0;fontColor=#232F3E;gradientColor=#945DF2;gradientDirection=north;fillColor=#5A30B5;strokeColor=#ffffff;dashed=0;verticalLabelPosition=bottom;verticalAlign=top;align=center;html=1;fontSize=12;fontStyle=0;aspect=fixed;shape=mxgraph.aws4.resourceIcon;resIcon=mxgraph.aws4.elastic_load_balancing;rotation=0;" parent="kEIAtn397vdBtJ0K74f4-2" vertex="1">
          <mxGeometry x="51.75" y="211" width="55" height="55" as="geometry" />
        </mxCell>
        <mxCell id="P3LnugzHq6Kd_qjz9YZf-21" value="Security group" style="fillColor=none;strokeColor=#DD3522;verticalAlign=top;fontStyle=0;fontColor=#DD3522;whiteSpace=wrap;html=1;rotation=0;" parent="kEIAtn397vdBtJ0K74f4-2" vertex="1">
          <mxGeometry x="157" y="42" width="365" height="361" as="geometry" />
        </mxCell>
        <mxCell id="eyDXWGFDGW_XnUvpQX0K-23" value="Security group" style="fillColor=none;strokeColor=#DD3522;verticalAlign=top;fontStyle=0;fontColor=#DD3522;whiteSpace=wrap;html=1;rotation=0;" parent="kEIAtn397vdBtJ0K74f4-2" vertex="1">
          <mxGeometry x="525.75" y="42" width="120.5" height="361" as="geometry" />
        </mxCell>
        <mxCell id="7sJCd6B2Vx5864JhMqsD-1" value="&lt;b&gt;Elastic Load &lt;br&gt;Balancing&lt;/b&gt;" style="text;html=1;strokeColor=none;fillColor=none;align=center;verticalAlign=middle;whiteSpace=wrap;rounded=0;" vertex="1" parent="kEIAtn397vdBtJ0K74f4-2">
          <mxGeometry x="38.370000000000005" y="281" width="81.75" height="30" as="geometry" />
        </mxCell>
        <mxCell id="7sJCd6B2Vx5864JhMqsD-65" style="edgeStyle=orthogonalEdgeStyle;rounded=0;orthogonalLoop=1;jettySize=auto;html=1;" edge="1" parent="kEIAtn397vdBtJ0K74f4-2" source="7sJCd6B2Vx5864JhMqsD-14">
          <mxGeometry relative="1" as="geometry">
            <mxPoint x="509.6388888888887" y="149.7037037037037" as="targetPoint" />
            <Array as="points">
              <mxPoint x="510" y="353" />
              <mxPoint x="510" y="228" />
            </Array>
          </mxGeometry>
        </mxCell>
        <mxCell id="7sJCd6B2Vx5864JhMqsD-14" value="EC2 instance contents" style="points=[[0,0],[0.25,0],[0.5,0],[0.75,0],[1,0],[1,0.25],[1,0.5],[1,0.75],[1,1],[0.75,1],[0.5,1],[0.25,1],[0,1],[0,0.75],[0,0.5],[0,0.25]];outlineConnect=0;gradientColor=none;html=1;whiteSpace=wrap;fontSize=12;fontStyle=0;container=1;pointerEvents=0;collapsible=0;recursiveResize=0;shape=mxgraph.aws4.group;grIcon=mxgraph.aws4.group_ec2_instance_contents;strokeColor=#D86613;fillColor=none;verticalAlign=top;align=left;spacingLeft=30;fontColor=#D86613;dashed=0;" vertex="1" parent="kEIAtn397vdBtJ0K74f4-2">
          <mxGeometry x="160.75" y="306" width="339.25" height="94" as="geometry" />
        </mxCell>
        <mxCell id="7sJCd6B2Vx5864JhMqsD-16" value="" style="shape=image;verticalLabelPosition=bottom;labelBackgroundColor=default;verticalAlign=top;aspect=fixed;imageAspect=0;image=data:image/png,iVBORw0KGgoAAAANSUhEUgAAAN4AAADjCAMAAADdXVr2AAAAkFBMVEX////SFxnQAADSFBbUISP53t7RCQzRAAfRERPnjo/gc3P42tvdWlvRDA/SAAD//PzplJT99PTdX1/87+/XMzT20dHwuLntra3xx8faQ0T65ubqn5/VJyn55OT88fHcVlfXOjvjfH3lhIXZSEnspqfbT1DmkZHeZGXywMDXNTfkgIHhbG3tqqridXfzxcbYREW71P/xAAAMq0lEQVR4nO2da3eqOhCGZYKAlwQRQUW8S7XFdv//f3cgEAiKbcBS4lk8H/ZaR3s0r5NMJpNJ6PU6Ojo6Ojo6Ojo6Ojo6Ojo6Ojo6OhrFtCzLjGm7Ic1wIf5stzwG4/N53nZbGmADRgTGmgbTttvSBBgpCUj9P3bQJU7lKcRruy316U8GVukbB8LkweWP2/RrWCsCEJa+dYVM3uqPW/VbuAiiEQafpe9BxvCv2/UbWKulZiTmOZW8bZ/mrntx56fr1bHLnYvMLsfbAXMeiJSMLstzVodwGix3EcfpcLJY3w7Sy0FigS5hrl8xlAX/ju2cDvt/mBDQMDbo/KfphKBg/+Z6nMY5fK7/utXiHDLnoWB/xF71rmHkbkDP5r0MhOOBuFtlfxr5JSJvSLOZMX0YfCd5bTE0QLsTxmMAnL+SPx6QqF+77Qn4ATvQqFUgmNMutzjsdP1bbQkazN6+omF3Ilqk7+i0reMRTjQvIEJCKu6y1cH4WRsz4TRSNdpGptZ9aaf9E9LRZzyW7Osn0QS1JegkXJjWZUwMTKS1n7ujTbvMQK8kLgLp4EcOd+7Dvm0Vj6EzVyjcK4tg8mH1zLdN2yK+wxv4lS2XWZD4rt22gG8ZHWuaLsGAmbQjL+qbE7WaR7lHm01kXRCuAxCY53404LucHdTRa4+6Apom4dRnnlT8c9OFMMiDNX+LfNbomMjQ4oAbCP03j7ujwE6uAWjnyRRxI4GynH64l4UT8XUZhIGqM7dLjqOfv/TP8FT4VkkJGuwOzs0Ctr/y2apYk2nxcK6oTgcYlzbfcndpQIfg669VUE6724Z5x2ouE5Ph9fHYctJRDK2sbQeA4VB0bP8q2Q7Dssxw868+66onJRrIeNaG91zRZF/AzUz2sIpXQfpxHgfNlncz7j5AHe8nC6ppHRJDbSM6WyQdB8OZhRabZRXbYS22nPk1CcjN0DoQmn1JDXtoJZk9yvJhQPrJS5MK6lC8pjPdoQ9RD78ZWvt4/tMzVW3kste7PDAxtGHcyVb3ObCHaDiWZAZ0UUEOxc92rqu3Q+i34y4pdsBbCj7NQnrzR2CXTNVz+inYL/sKq71UrldUN4y8gD0TXt0hbZyuw+14Nwwbb60JKcec+1zfJJE6cyk84SGcbz0sQDHa7IWP8HwWNxsQJ9r3wm7FgAn3OWdoKST5AdNVqb0MmjOYi6ubFWZyZy/XgiCHJlMQ3eSyd6ILvMTWL8HGnYE2iBzc5iw68LA/f6GKFi+gmdY30a6JfKc3lXfv5w6TenhVdE6IvMoEVDnzQw8JRY0Hk/4YFPhou8GVEPaasLe20d8i5WW8S8RatGsa6iXZ98O7ftuNFucgaDykf62VZP7QZ203WpjNTtB4EK0LHJRWhMiU/PoOcyo45em0RumS7EHjnXTJ2XK+RNMPkGQU5jRU1cYvMrdPBfeBgFXiuLH9QOK9LZ6RoF8x3jNzRSEOfm+zzRUQDTa56jJzC69S6Sg6oyPCj7WhbKvzB5iB4DqomCxqMYtSiZGg28S7F4uiKWYg6DYlrn/7BlfQeMZLGm/tVwjHXo+V8ELoRSbxIu+iC6HZK/ZN8VXsoO2m/oR3v/60RI2n0A0kqae6aMk6uOlhA1HjJSshLHNxO0IIZgc+n2weRRO39KxJHyTuom5sKQPeP0+ZQkd4mzmOn82phoxQ1gxSuj9i6KCFySg0x8L1frBO3ZAu52YJ70UQEBruiwYsEaTX2yQfgMhExhyEw3sREncx4YAlzjvkAQCCQEIHwztJYxkboIrxDlylknZuW8s9Hp/qA9o3z+KVtnF5h3NMfw4Zo89CbEndgy1eJYAUOql/Jp8hYRbCOvKmolmFCiWNxntSJTCkCUAJ07f9I85L2vV4P69foTwnG20XFSlIxr0vs3/YASTlo7RvCu9Wxv9DdpLkClg7S+g4IzbOZPhOMML/enEmr0KlNMnLINxA5rPAthtotPqrX6XsT+PqIExV4jOVEaN53L4qtdLI4FfqstZ48DjfH6K8kae80E4lpVKhO/JfTN5avDROifMsr9AhOdxK1dIvl+IULkBK5C2lPmJ4h2lUOkCDjzKu8B6zqHaC5tXkVVgKvaC8dcUjNFSenIFmGcL7Ckzev8i1jD5lzZHdYFbsm8nE4BAou9lEPiy/4sFDKi9yR0gbyh1OUyotFmLQLFJ1icsAyW4g31L9BuGNhUye2meBjgEg3znYAhvhjYVMnhKZ7MR+FJB7mqiQ3mTy8IKzOfKljkA/Kh+Lpav17AgHUmReP9iipZsccXolZAdWkCazvEWNqwTIR6/nfbBUIpF5dhA/SZOT7M2O5sm1NETmtbto7SYPPqYRZ38IBBGZp75ljZsg8qoP09kTmStcLFTjjpJCqmw0kLhzCpdNF9Dk3HG+Z1JLnsyJ9wLiG848+otcwrmpMS0osetsu+FiVEtwZiDSdsNL8Rb9tc1XPVdeDKWAlKmWCYDu/xuH+8HqNI8vaqwRTyfypJzKh7qCEMZ6ckmv3bPqTOpUnkR35WSYY15N1ME2as2Lx+DatpYSLH7xg5RoLNaa9SKIjKWAaz4npk3jm/hrysMyFlo5fIAZRx5VLmMpgIiEm0SXQpncV/UELvfjSHhIoyjP69nL2rdR3t42IwP8ZoLhR6vRuo5Tzl2iD86TxAkF94krGyXMsIScnPhsYW3Pokh5CiXQc9cZb+8Mn7AeyHcc8fzua+lVkgg74gcRy4iXfIscGWxpbWzbW5wOYeAD6ve8StUsNxhLu7fNHzIh1SNQrPVoYT3jOJN9FM4TSzgPOhWuWLuHTPjdFwnrxWtHnBS8My3O/DJdJ5pQMxORgpDDzzT4n2zz/PUpeXHJ8YWfSGUL0+omWlIMtedx5/2kSy+JXyJXDtiFDRjZ4pjwyVvCwe0d2LQXXz0dtC2oSJ29r4K8Sc+0+wv3upoMDh/7z1CuKHv7pDzDlzAjkVPl6EK5+aQuK3smoqbopY87k4XK9Tq3IAnXtDlPy5PxbFvO8/Kk7p3Py5MxoZTxtGtREJa4dz49MUTLvKO8U5/4KfxvzCdvjUQI6Gm0ZdsqHvKB1Och0lZz2v3fQN7B19HR0dHRQXHcnIvTt8vDfstbj2L63uZmbrNHCfxi1ox4eEdn9FH96IP6/fV67Xlew1UVIdEzMFLfg8HiTqE92M5UNQorVXW2HJ4Ky/KBRgMWNGUveMNhGJ6n29JEtbnYBzMW5Pi+P/MbzmcXdmURMjCQ3akg0B6ogI00rjSwDuSDS9IOkmBVH7MXRqDrmqZB2dXNX1uSfxT9uPIn0v8eJZvOGPgks3m8fZggItzTTtLsvcbJS16Y3ssbwt26RG/4ybqle+r8nfVldywgP9NfQV7Z5fKtyFP0HdtAdkqfxK1ll6KLyyu94rodeXl9e/nBG6Qz84nLK91ja0leVgDOdsYMnMDkn4rvC8grvUmk6adaM3lpVS5rPvJT959W0qHdlhKwX505F2F5WbWvQYCj4WMCqTx9785jWMYMqWmFdLp1xLbL2XWCNeQpySA2lvTxpYyGc9upPFassU+NmV0SxOSl77MHnVWXt0n75t9WtzJ5aUH0J5OHmpNnmwkNK6M8knfbOZ+WxypDkJqM4u10P7k0LvFGHuuc2SVBvyYv299GqQ+OS9oaP0rM5A1GdKSfU9eCl+Zvyyu7bQOrDZ/xGGa+hJI9zpNF8r8nzyt7EDZWms2NZtN6EsKz/8iikht59ScGuri419fwtmB51JKXFaXy8HnyFjNIjz/UkWdOlPuNmobvey6VB3lNH6sI0dKildQAdeRF8bkP+s1VU8nB8L+UZwB3ddyDgpd68qIIPZxpyRPlmQ8LGt31vJNnwOzKteyX5cVlwJGPXrirIPnihu9xu5WHdm5hLqov74cvTs9oNXwL35318Efh5/x162UkJ+z+yHokK1cEnx8NdeUh9d8yo8R9mGmB7J+MPbS7qpnTJp/cNzJ5bDkr6jmjOAEzkvrA+XaaE6jpnzVceD1Mn51rcQ9J1LkLilN5xnFMmaqC816hv1N5E9Byssp00uyDMjN5vWseVHApAha1LNJFTFoAU0Ne+Q1vDV9akMvrzbljN3tmPyaPBWm/LK/pK1A4eb15fv02zKy/kIeavnGCl9e7KhpLj8M+0TdOXsnl6XRlAbk8uj0B21zefUVIuTykgXHqNcuQxA3AqbH6M5+hJC+NCXUFhFWjjmcUn/3qbjiMCbNDYCNi3KKnrqUIUcenxk8bDWnnQ6wvenkVx4i+1E8zWmyusL2Eh7OV6YxucWgI66w4ru6X8xd1Ism+3agrSeno6Ojo6Ojo6Ojo6Ojo6Ojo+P/xH4f33C0KFztRAAAAAElFTkSuQmCC;rotation=0;" vertex="1" parent="7sJCd6B2Vx5864JhMqsD-14">
          <mxGeometry x="257.13" y="23" width="55" height="55" as="geometry" />
        </mxCell>
        <mxCell id="7sJCd6B2Vx5864JhMqsD-39" style="edgeStyle=orthogonalEdgeStyle;rounded=0;orthogonalLoop=1;jettySize=auto;html=1;" edge="1" parent="7sJCd6B2Vx5864JhMqsD-14" source="7sJCd6B2Vx5864JhMqsD-15" target="7sJCd6B2Vx5864JhMqsD-16">
          <mxGeometry relative="1" as="geometry" />
        </mxCell>
        <mxCell id="7sJCd6B2Vx5864JhMqsD-15" value="" style="shape=image;verticalLabelPosition=bottom;labelBackgroundColor=default;verticalAlign=top;aspect=fixed;imageAspect=0;image=data:image/png,iVBORw0KGgoAAAANSUhEUgAAAMgAAADNCAMAAADKS88fAAAC/VBMVEUAAACOAEOOAEOOAEKOAEOOAEOOAEKOAEOOAEKOAEOOAEOOAEOOAEOOAEOOAEOOAEOOAEOOAEOOAEOOAEOOAEP4w9qOAEP///+LAD75xt2IADv/9WH4wdn8yt+IAEL0ibiQBUWPAED+zuL2jbvyhraFADX4kL6TCkqXEVCcF1WSATrMgbj//mL1hFj1iWB8xV72vNb/w19Hyvb++fqg0Hh10vfPhrpXzPb/y3P2ncT1fFD+zn33j2anMmmeIFyGx2Rm0PeiKWP+xmj3rs781OX88vaVDUOvQXWrOW/5ttPKerO7WYhzw1j+vUe+YpD+wVXGcK6zS37srMj2lsC4U4M6y/n3pckEuPL94+7dap7QeKCkJUOcF0HRjb7TXJL88WH6z+Hvs87YiKuKEEv+6/MCwPrrfq6lIF7DaanHZ5P+1oas1HnyuNLKUYmuKmf+5l/82uh53P62NnFgwFD/yEHdkLLUf6WZ03P/0WnMb5q+QHr7q0bTmrWTzHB9LmysM0r+vSHy3+iOIkksxfbln775mGzs09/jdKbr7mPoyNfppcP/6KnDSIG73GHMiqnBcpfb6WP/2lS1REvDWDTaqsHgmLmp1WD+zFX3hUuwNTj26/BCxet4odPGfqCh2336sVn5nE3yb0bRbzIbw/Xmd2qFHVw/x9t+zWDeqFvehTNbu+i7UlBK0v3jwNEzwemF0KSe04f522B9dqmJzYrkf3zrkHWJ0Gjlu1qHY1KRPU94cU2ENUhAquBIm9BbyKzWcYZjRIDM4WaTel+Fo12/ZVSfo9Jtypv/4HH5pmruz1zQkFXfZVXMeVKDTUvolynhusz/8cOiicFyzsDcgpKbvXP8uW6d0VrpnEhcodYgltL/45NzllH1rid0vOb/+Nhdy9betMiJkci0lsZHxsTEebdvVI7OWEj/yCCUXlp3slchz/0Wvd2IsNzBjsBhhbZOYZ2ZqG49eLSX0pWGWI9pwYaCSYLSfmeckWUmsugzwLzpkoxHuZbuuoa5qFvg1WayMzM9AAAAFXRSTlMADOvgxyX0ZdNTGTt4+jGHr7pGlqN89B19AAAsjklEQVR42tyXz2vTYBjHkyZNmzZdWxueVQMPqRdBXpDi2YM75OTsH5BADp78ATm0h8mQgKeCCE0Llp2EXmzpKafCdhICktDBTis42FHwf/Dg+yZO67SutKDFzyFjCyz98H2e75tyf4+0zP0fKEXuv2BLynD/A1sCbPJo8dySyAJIW9zmklGWi6MECFme21zyhXL66rYqFQBMXeU2GREE+U+jl1dKAiAaUYSbvOtpTgFY0Ea5vFwspwrUAs0gJN1UjttcKpVMAQDkX3LIqOUsAoCuW24w9AkJ9Qq3weRBAjiCVH5+sRWaA4LZDaLhxHccWyNEIwGqRVVVFXkzq4sXAODwcK6Q5LKE1GJKU2BoCSQ0gIL0VqqspBc04DXu31FhIs2ji7lJlwHQGE9s5jDPGKmFblmWTmUkUbn2y8LwGWk9kXR6nXrPAOjHzbNHyWEnpwD1IKQSP0MipHrRJAzDyTAam1RKKBXluSfnMuK654wgCUp6jXMEakfN5rGuJlZoDqnGJchQh8DXyDc0ezJ1DUSQUmJJrShKpZSVAKDIrUUBAFPFVVXSQixyBoU0d00CHDtE+53HhZ4dX+kvYdQ1AClAYVf2H9ZCgIPebUwpq+Way8YizSMo0sXHgNg2+7hzqRASAfVINBzP+/5n2x8GXdMydN0wuyaAwK8nUkRz5wtVycor1ZYIcExFDmtihXponTdMxJ+GP/pqjFbskUBF5xyJE04orZG15mRR0hJ2T86H5g1QV8m2zForni3Arta+09EYrh7FP4k9NbDrE20RbGUcb2QgSHluTYpQ7Z1sn0zpfK3wNlSKRd59fglo+eT0VGOQAONtIaGLRkQ0z2tRPIel8YHi03MymTKb3RkYAKCu/YWBz0J18PH87peDGpS3VhA5azZPT49qGJHOnXa8zmSKgG5IIhpHqPV3GbFKPFxMZW+v73lev0Vv7PeAkRVFUaWVvOiLwBKHDG2b2qC1tzMApEt/lXbmssijJhV5fQymrb0+1d63mUgErInHYES202j0PYbzDY8ZUBK73ZGJc4CgyvzvHlteZvIUALDM22j1DvCqUHixeGnZWWm97hyCq2kvOm267ImIDohmSJwd33b69XrjAqrgJRbMb9YFpM923W5v7LqmpccvMZl87tIil2GZWeFLAGgdDL6cPOndvioUFeSf6rd2mIiga7ef2m86WjJa1fsPoWpNyN4HzaknMIt4T1gs/Ua/scs0rE+j2T6NhrE/Gw1YEyNkS/T18ls0/LVKCiR+2RI1Rq2T7W1aX38MhedVEHJzY1l49JmKvG+fMZH3LJBk2W/cu/68isbwg2YzCX8vvjqO368nubydBRYa7nSXGSUks7Y/+xSf+yClsiIjVWArtGQHZ5nJx/Pz7buvghosDmWrWJpvfF6sHT940Gx2YpFOu5O0L+nSRJ7dfFzFW0Pi1+s7DvX4QePtbDo2DXM8nTUu2J2j9ZUz8wtp647i+DY3XbV2Xa0nN7fmciME/6xJWtxDSKLBoFHUiYqwYQJudWM2DNyDdRG3JZNl2IZszmxZMhhJQyBI6UMhsamFOWeZYalOEC1TkT6IInvYy3DsH+yce2P+zBWMX3JvwBf5+D3fc87v5yuPQlMWcVkW3iYTnD3uZQ2ue6bpxZXt5u0NDAqcfUL3KC4ozV4mygA2EaRjYhJBcNZN9ItTz84xNT2Vsm6WM91dNBqH7hhtAor4DjxEPQqQL4gQGBsbCwbHCGVMFLGQMVNms8WCAdqdtnCnj739PYOehLZsXy175IyFQVOeWIQZS4oADUEQ9cQ8gaSn3B0zgchklxpZHOs225ARP0Z8DdmMl3O98fluonzBABIF9CqlVuvz+cbEKiOaRxigoJ+ukvIhAVNtLcNZDqyhWkrKE0AGaOEWOWB8n0AM/e5N7lZmXN81AYGUy25UM5x5bdFmRALjHXyRMixB7SEEBictMiajoO+mH6iyjk9Cpz3e7A9ZKfN+NKXof0HG47ROiPMHZjsIZL1/fZZ7eDGz7nIIckNWXl7Zx+DmYtOQIbYURhomgH9+ZTCQdgcVCKLQEgRMa9fCAaTqI4/EhxzDLlezRLLhkQtJObq2L23yQIhFyIGFJYJ0zNJg70+BPGQbG+DLyvJyqbSFBe5AM7SoQRk12SgJpVIfuBwQQfAbCbRERihaIkkmdzEmJkCO0vw2Djqo8qE924prpVmyMS2Ho6aUlMpn9wfgNHLQkapDBPFOdixx/1z0ThwebNnPWuQEUi7rqaLiGrJpSNk0CZV+zWgM+gLoTiCI5ohSEs3NXZyNuOALfYv0bL5L+XkACO0Nb7isn++FAI62ryLgF3BBPE/5gPsUEJLb23F/YP3i+mRqVTfD4272GoJgcY0yaEm/JlfI4Vwz2i77fJdtxoAKEx4U8yDA7FrEI1dapadOsAoDeJYdjlem/Th0cc7/x5QX4b56YQDOU10Rh1oAWY/sD9z3XlifF0Hu8PzXvYorAojs0tssZ7fpdLockrWEEV9ardG2pkcbAphwzIZoih0ZsO0CwCHMSS5bTxcCx5tMtXQZonPRnM8+p5zDeEc2AQpKiUNNIGqBZhNmvRe87lTTkldLOhUjBCLmHWJWHUmjS4PQo9SuaYx6rTJhxNpSUl2JHLw9SSFJUkKIpfREl62nCkHYIT3LixJJndXDQtbt7lng9yOzckAtqQUhCXJEZmE/A/IjUy/55hBEeqmB4W6JILk0Km1Co3Eqlc41vTKjKc6eJKro3FzYp03umo8UeB4DhfNvORyOr1zbEsnKgXDqKRYhAeIR9RKg4ikKelD3lzoyIA/YXgS5KitPWcJCtS5XyKJLaJXkilKVUKUptMokf4swlH2jYcEkZDEDQMFJ7rzOPI+934Gyulwr2xshjna2U+IRbGAhoh5PcZD2U18Dmwjink9tWorPskBkbzSwVFvWXJQ1lTKh06hQRHDIorIjB2o1qvWFw2FtKvwY1fxJqA2Lntg2XK7FYQ8AoZQVP3WaDIksgOCLqLhAFJldUiPIvNi1huyKTyXvs+0EQqpsZ5kHVlQOjFOlWtMlVIKCQcQRWZLCOxr1KecGBwdH56II47tpRpKTnOmLzwokNpd1eMsDrD9Ew/XZomdgXG2IxAE7V0RtEAjicoFkaUHd4b4wOZHatBRfIEiLNAUi+xLYKWu2yBC93qnT6AWOAHKISuHgmziuhpPJJEYF68vOQUHJCe90TX5PaNdv4kwHKysBP5mCMyRiMIzL8UutRhIDgcAsmrSJP3fT7iteWCPIFbabQMS41zB8dXU1ngNvPTg4iP2tQ5aEXp+w4lDUq/QBwZdcFuJAL8Lh5M3wIMbFZz9hdVEZcSSLZ9kldK9aAEzIzMwCyOMRgyCEweCLWG4DBSTVfeE2gtRXIImoFgYYhkUpFAqWNdmnHhzEnE6d1alHrRFHrsLKKHKEqbiQYg5f0bAZl7/852JqlfIvL285hnVWoXvJyZK4IS5HHKIQWDD48ntkz6SBCksEYaquS64wDWkQWSfLMFU1DY2kmmoGaaDKfCv2txNJnAk9iaw55IiqVF1d0dWuLuQgFHyuzs3ZGSg9yX0oXa1blveE5qXD/hVjGSqv8XH5PeIQtQAktMQ9b5h0H+6+LIL0AN+TBrmqqP709icfNZM+uf7F+531PMMquJqppN6JMNkSQRCir0vUID4YevSnFRg6W+SvcwWcKbTnGN7A5mVbrh144JFzgL7E0yAz8doPv5NTqU2se93ebBBpAzNSmQFpbJZkq/mjLzobAY0xIUsOSTSqX41GuzJqI1+6drpGV/t6axgmc9/+dF57Pe9Z3rLZlkN+puV23QYeOWlXXEiTjNf++pdJPq72Tqrd6zmONF1VtEpTlkh7Fa2SI/r68WfVGBsw76IthzSxPvzEUm6M4tPe2tjQ0NDY2t1O1nQ38PDM+aIzz50peqE4nzZMez2eGoG3hGx1GJSAH1D89zMCysz3cvj5L+xiarfX4MZbxolJISPAPpY0vVOvGK1MkdQr2iV1qCMs77fyLP0PKOwUWdANfd9qdKeNOObmdrqwBkUBX1VT393Z2d1YDVBYCM+fy3egYORDoWmHY9jmqsPuhaMJdY9MmUFDPnz123ty3uA1rHsN/Rf63f1C+8WB2CS90cCOSglF2sMz15peRzU1vfvaa2/m8Dzu5VkGUVQCSWwkFmuLjey0zfXt9EW72loZyIh4qmpqamhjyT/1ZQjioMjjIQWVMHHUveQDaMpMXF7761s/IAgyuWeosrwTVFomtlXyWkVlTws0XnlDWi4bge7yirTKpbKmbJrr7VUCCuV+dVX/50isra0v3LazurozWIUgucKUnH2hpLj4TMm5oqKiUyVnjk30Ag35PQJZcVkfWVj7tJ8jlCXDAi8f+PnV37CNuQ0fzH9AZTU/L9w8APNTXUW5THqtvbXzhlT68bVLaExaAo606V2CSaGQK5ak03nlT/ys7uxEsbpG2l5qZ+CoCspOl71YUJryqPDZspJjDxTOPL28tbX1CCNvmtve/oqO89SIofa7V38xjDO/T2La36MxMuG+eBcbAsM2NjdV4JYlq3jnHexaQlZyJViTZrmOBcaBPXwthiAjOyPhvjbUS70sANB9Y0HhUWdYhq/CfaGKKTxffPwhT/9ZRv89Wy78tdi9gISGvPXHAj/wz4TBPfEyOoIk/7JuZiFKRWEcp32P1tudmw6e1ukaVCZGDw1Jy0wLQ1Mjt32zS4sVEZT0oJC2QhsVQSk+ZHMpKZWkIlIxQXuICsuHKQoZLRJnptKWsaLo+66WVJSX7I/IzDz58//9v3POd+58xRBpKWbB0iqxYf2E8DuMfMeGAsqDOhqmeU3793+6Nl/56BpyoCOkZ3+8++0ysNegrkUEAj4QRa22rnFBA3TmhrrxsA2TGBMU7LwuPYVDyhacEH9Az8EQngt2EsuZNcYzIw0GtGTNSfCjcfhmemyTTD68vNCXpeIaM/X0DAYOxRc+XVMqHz1SKhFkU80EeujAvqAefYaJIGLetXUN0IsRNRa72thYDyQ9pHSunricKy69xMjDjhj0pA5jggnhomFy07jmtunQmtuG24fwhoepk8nly2vGavfJwQ5JLLNFW+YcmwAbsbvXNMpHu5UF1TfNIHS33r27UTSKjK+tb2pYhJDYoGMtj0PV2JmlDfD6UCQdvwkzCWheCHJnyqWzjAINyfJcm+kmuXf99sijZ6D5Hhp5Q0HB9Fouq5Kv21xbu3kdkEhjWbsU07L3+HiGOjlfs359EWTRImXDjAk14ymIwwRtY8Oi+fBHxHgOLztwsASHRTD+HCKpssIOJFlx6tL9+/cvnVpRPffsXIpA0jnuo8lC0tdNh0YeNZ4YOXHkyWoGJ4wgWEH27cbdlnQUdOVKHcNM2LRKo1F+l0YzH4IAaZivQYiC7LGDMb/d/5ot9LFevbr+2RLIWHH+TlFvjEZTGh8mmUvwgunU+RUiBygaV5C00QQt67bJeOIiRStwnIUqNSupKHJ0ZeqxmrGKJg2qxAIqUYACgfmtnD//mCLFjty3x58nRoN6fa8sBAGlCcTi1HmI/P2V1az+NcdzUFmdFGTEZDLehtZrukWYBuD4N6ErmJUDdWPpeiWYUpDyZyGOn3veyoHMLHZnbAKD/rKF7Fa8+B4qgqiBJKzAff3Ll/fnVrPNj3m+jeM/GsMAYkIZj574QjH1w8GFClBmz4HQH6eYWiyvHyw/0/i5VuDI81kWZ7p9+/Yb1pPq95deVTzuDwaQTjXKEVZUr7z08umKIsdnqCzjG4pY3oAlKAtdA3cJFUk2HOvrdM3Y8Q2riii/WtPCt8Q47pVfNKRQNkN6D/3jFBiMIHC0xBEQdC0HghgdneOrFZdOVeNCyHGfP/JtJhN0LRIWQYxhmoIjSGXCqEB9HdYyiqZVq5Bl1S8wdt7fkQdP+Cwp3Sz27fWn0sKIN5MBcDXVHQ+z6oIcbywQeFwIoarecXzqTDQav0n0cSOiWJjGwspRqSk7po7YWz+WbgQQZPluTUdrh0YTcbo7WrhYjCsaUk79YAT8Kkyo7kMAhFK8cfwgoUBoyMKPPBdV+z76TGm9JQwoYXrCOrGwKkep2jDiHAzD6leVUFYl7f5W4NDZkrE8cGBCpDyqNoSCM5On00KonuL5A0FQuKCQZo7j2ya18W1GtTqVMhrj4fAbY9xCLy8VVsWmjJi6gGG0gFBUMhJBP6Y964j5k60c/1hPJN1j4fVHVnCowxaKRpJ0Om4wGJCkky5VFvzuEzwQHgcYwohH2/+FsnbqCCRJJjtEjo4kvrU/i3TY8/YW4GiWZgjueMnrTNTgUHemb1oslvQbz8Ng0IcgcJoCkGCU56NI5kl4sRHE9Yp9kgpLenmBJ7TZNc3l8vv9dgSJRJL2PO/P83xWz4qPG0sCYV9k3DmDw2FQx+Nqhzfn8fi8mBIFgDj5YJBvAy5QzoNGpcVZ7/8kkS0FEtYcaW9vj4AvyWTE7nfyPLwehwiRev2DIGarVcgZvJ6c1+FQG1BeL4QEJidOAEnxgtrr+xEdheQlRDrKjjlAok1GQMlYrLXFmsk4nflsiGKJuC8R2+vAshkhikDGavMYcg8T01QJwe3k2oSgz+C4iSDOlMCnDOpUFDFEQzZD0v83yeyl9TQxu13tEbvd3hLwB7KvzXoCGKDCU8L9evcqt3fH2tLprNaHXjDlISro8YIrjjAbcoLczqABop7w+HzR6DuqRtyyy6tk/5Vk1AEtw4Z0Gas1Yw28MLMgQqEK246BQ3tSA8uuI2iJLpWy2h7mvIaSvHGF2SkKHDHkEjMTNkEIiQmpki9eDjz/lWTdBJp94XLZbFar2x0AlCJHrx79eg3uic+mln0MFlNiswWDNp3Olnj40AMCWxKCLkTyVpDT7RXBcjlvJxm/b9Rw+fDNM3YVOBBKXgXteLKsUpJd42n2bXsEMmK36dyvzARdIV279SSiO2X/B2IYJRaXSpdIAEdCEAQbfCsgtzWgz2ZEEsHjBfmiKTPc6lSN2qetBRyRQjZ51vpt2yfU1NbtqtQUeFiKVL+a5npmf2ZTwXcKFdasF9Vsfm0mQ8ov7UWSyyqVCoKg9vl871CfwZKQCPLRbbUJ0AQyWULWj4IxnHadvIAxa/qy7XB5UNO0fmvFlVYl28kQfctllau9vdXu0ukQBuV3ZwL68msi7nqR5L0LSJAFagtSHRSg0vwhtw5AhHdBwQ3yN7NaGUzcZ0wGDtCscaO3KeDEumcdnhErlnz6RpqFhXEaLI2uaSqUriC3mR0qbZOCJM2vVJeBBaX7rlcBeBOstiB0rGDqBcssh+F77eFRGAjZ9DGjj9AM3bjurxRbcfgoLUJVByEm76eJUsGrKJ3uBStpcR9cICHE/MolopRkswFIKijobPBTAAYnw3fDVcIGkWPJmNGrKZraI5f/9cMtboI6lC/fKgVk3jb4GFdnzpxWVAHm8lVCyvSs0pGkQPKNlPN5bSIK4jjVqPVn/ZXN28dbs9nNJrs5BUKRHLYYqiYSCKQJpc0hJNuQELClFhKwhEChKIjopV5KPcZDUQ/5RwRPXnLw4E28hN6d2U26amz2WQdKS0lJPjs/vvNmdhvrfQOWsR1fkXefkedjL0aspSjZC1QQBPxR1wkpoTumjRqlZgbqQ3ZX5CFJYpoc3ANzad7/CIU476dHLRmxxIS17rf+jy9ohw6H61+a9ptwi0AC33IxGIxsUVqUAIDF46IkVv9+0cV4IycpWa5+QIzXDUgTxHBYkKYPHGfOeVSsyyOSWeEYBfwCttY96n/BSB2DwHWBg7qlmfuBlZFDnsvwGyW+mEwW6uWX6ZMkUmnLu5tFU+KqXItlGdTkyTyYw3J4FOIQkWuzs3MXr527hCSuAUb/8PCPOD2EwGqLDdhHBzYBhKm2Q/LSshoJlzdkwbQgqU9yiak0Db5WkyW3aUg+ABK0J4N+DziwbfQiwfQ4f9bnmw0dm9DtDxy3uvb+bjdGsvctCKyAnSKPgipEgVBKqmq5QbWUJZ18ipdWiWUJMM/jyvewQUK9wROw+YN+DzXd+8Q+Y5N0j7q9nq2h8K077EOujc2FgQTJi0pG34ERocQwRSJlIkTrkfoGoXozPvVTJhupEuU9Hi+XIb4hso9A10OIwdGdXICHx8751vpP5gcDaJ8Hg8E8Xoh7dni65nBkYcWmv8VZuh9AkuHgFiGNyKp+J0NKS9OL62JZSAtZkU/f44UtKoyDw7brM95badhnzZ2JdQ/Qk4DgmktjJxyVm1BDW/o+gNgqUgiGdYGul2XaeU1b1htxagaHDZnkuUDw1VDVhV/s9gzXo2xoIWH43cWYoDnoaQstkAvlaTEwAokX1FVBkLejtBMwhWqpJE2N+8hLSkzGScKS67+C3AIODhLfSD7WEGWSBQvHkD7MPVZsadtDkBUGH02NbBNBlumrwH5UF7PZKQmA2KtRmuIEQQc26BjDd5F/vz5CkY++zv8RYFg4hmux/K6j3qyzgyCbdq6r+GY0B+NbmlHSRQ+QcEMzwZG8LlmVnUPV9Yv8W/aZuavHot4bfv1uwzhAg4N+V9aLu+I4bpzbTHCLuxzE4kvzMIfOaTkxNd0jrBDZ1jBHeF2iQr4Lc9cu/ePNQbPHok5i0e7RsG/bsNsjoUypqowFglUQw5GRpLqKuzfI/f2U1qpGp4Pgy0naz2/J55DvN7gJ3IH8GbdDIXi+RKSHRrq95FfEX4Y2DojI/CwSKcM1018/CHyierVFS9L0XjBYl434P7gEqsPEWI7zf2e4hq6hub0XfuV3tWYrNkcCgz6obmM+gtDntPT9Im15gISDDeEFNwhcKIjc0z1kfRO2264RfafmvO0kSA1+hNZ3A0skTT0zaNuvRx+LXiBbtA2wvLasYgm+cronYK/cOAahxcDkJ2O1wLj6LqMcInAqSw2/RTMeobIcVrc1/qUjlnfbJZDtp7GZcxdu+c6egcMJ6STGn34CZJOhrj93gM0F6KEyGvRRHh6JrGtpbhCsc+ASj2bRkwbmQ9H9GhtVqgpz55p2ilQYyuE6+oPk85opWRT2Pp4gZc3kX0ZgeYAu2ONpEu8jPMnAdXcK1ShVXB2pMZRedYPSzIedjizv+lPaU+DwBkn9y8QIuut1ynWbw7QtL30NqucsXiXmnseZ9CBg/6KgwrgDXvRM155u5jTTs7AWEOTPoxVjbEoPrGKWeDTwnlNtrWOrnlhDHrQqdLeMgYBU4AuKbwSKr/xhz9Cy99tE99z7xCOQIxMglYqfsWnsWxTT/dQ2ByB7QCBVd7BCoSlZ7KWsJYkx5EvCaV0I6XlK4cxIZEvxrkGgO3+CsMpKbaUC308owDhsEq7+R2xdt0FWxN1XiYTIRk+4LMQl5SmMfR3ZDTeIQKi2YElNarQUjnYWdIfqL6SJ22se1DaVv5PA39Sj/1O3ZnwC5kjicXpnHFhidUFrKspSNA8di7hYqG8Ax0K2HX9j0swSR1EFPQwb1PWIiyJWOs9qIjsBvuGRJJ7TOpJKBNKvsEA5JuU1oSndL9GN54VgvWwQfIrSb2UMs+XnkGumBnF0hCCTm9Cf1V1fSypbFL+nzP7/P233bGZo7ug445vgUw8jyFE0BMESqR7kGockyDgIBoUvQRRJ1MvpJfAj9Fn6Cn2Uu9ae0SmbnOlu7r21OHReYvLn+v9ba++5zz9Ffq3Jb81xfR2aaZ89M59DyYDkrmTleIByVFJgLN/N7gGAhkkpZYkLrXt60sVizFc4l9ckHkBQlCuzEwGlePnVDRPIJLP2eip5xFTSF2XtxDLMfBt+Ml2nRhk+k6QFY+CRJF7HvPNOHpFrtBdJZYeRJIWBhJ1iCz2di2SPpbb2S5XD+4u9w9Jpd4i39nX1OOadgvJOIdZCtiwr/xtAqHk5UIh0Ye/5SVpWk4/gZ1YLDoOntnVe9LOi9k5wPjDZHdZwHkAEfGQCfYSVkL1y/OMQ/xtm3IPjQMM6wFp5/z381SZjt6gTDx9ZFQq/xMDQ25/snQrM1YEJiq3zQoAYdem930HWpIPl6OuoFYWoNSeW2e8iOeehylZjS2Cq9iOKOJAUYXnp/TxTI9R4RK8cSqJUpGr8NoUeku0DuSn8UxzS2iYU4/DFQiGAlqWNCAfHlGbseYVbomAhP7YgAuSFhyhddU8TguEY1sjVKHmjRiFQplw3sQdiKgl9EzEt9doNWU2jq3wcBY7ftzkMngtB1LYyqhVGpYHD515WA/Ea7gUJRC2eQ/oDY7OgfBzFZhVQ2DCgl6Q8DCqj6/wbCm5y6cbgTT7ZI5NCt/89DYxVrrGPWZaEOwRxBwWqY/3Gzq8+W8IbWOmyshv0q2BZaSpwydtEmBVS0FY5LWpDrUsfirbVaIyjcNSxi6wRpUVJ8ivHkCSl2AcN+qpdcBERhdBO31SlzV1akD6S/NC9XRTrVy0DcDBzzwcH0tw1LCis1E/ZySI8Hc4JeAhN5waWutHSP7KoXB3AiEbj0avmsYqFslHZ0iR/1uQggZg7Np8m2cFX4ALkOcJguqbI/SLoAzEruREbqOJg9wbKfUYQxoWiBGJ70bZY5oG7Z5LHLAi+AsnQuBw0VNWanlc+UlOB2KowKQqjmVLQQjmJHxyQ/E7JqBBe+JNFAQaFVbAOdez0OHjMkjkO4HCaDYPid8vUdPH+KHihvI1xi9B8TpJRIejq8wsCxAN9HpQ81QPDJaf923LUxtWZowvVKrZl7/5R8uZNqjYtTq6zMnLeOOoJCbS52K332dLtGgs+icWcEbsx0S1IIr/XTb6nCzjHp8ieU6omI8h77MgYsq5UEQZlEcoEtCwnIgaPWXI0BsbQYJQws7x/pIzq5eVsLit7ZKBtPjhkhezatq2QsYl/fjkx1r0paTAcD3ooAZ0z3jQo0tpbPst0iCS185ZilO0ATM2tzZhd+H8XcfUyzj+cD3ellrWA+RybWQLqSJz4Byk+jPw57CjIXx5z29pDD0F/mRVx9Y7bcUJpva8E9HTAgd+my9Z9HIlUjeMzCG3ZOYQsi2R182EQs5IbTTMpBfR0/AxYUQHwgEhyP4et64edSWgjFo2lKbC+Ilm96FrWZrxVVD4wXaLGifKBQc7+5c4QkE2ceIMYMazpRVqqKcirOEXvMwKtey2Yp0d3DUpN3FYJLEq7nPolD0c+g7dgB1cGEYm9K4SmzyMpd0fnNJhlJXGUTE1EHVykI/M3DOyHgDQoAtk9FlPIqhuz7Oa/KgWcJJ8xF0dgsSwn87oWaud245gIzUVmxt2YZUciOSBxVSMw7Pn1wVVspciebTN2gSAf6ciyyMQNaTks2ZzHVhUQyT/0Yogx8odt+UNMqranl1O512UjtlKOCNw2/R1nua5lKdWt/cPDvSPFVyGcXKC6kT7cUqTgQNpUvX7Nkm7gHJeLyAx0ZgxaKjdmKRcVPgdJ3ys+q1X9vT1KmVlKaoFN68LUe5Gd10BqbB6HGgJVFm768wre+SvJoqnjzVKUJY5Gbyu65oBYMhfZNTkYkK00S6cwcLk+AkDGxvl2rNiWQLo/xYWDLrpu5kswtiL66FXwbaz0XGHq7Y4kB4u/GYbDpCEg40vzQqEXhwks78QsZd/UE7fnuOWgXGQsRRqhENtDXKG0l1KCITlmrPQyAstR0O7U3LzYvfLTBF2ExyzthOjl88h5L28V9rRk5eXkTwJ5HbIajIRWx18i4csG/qK0GLNyWNm5QM5YaCUswAHZl37TDrcspW1AYIzcFwpFi7BDbWswVZA0JQmiaG7I4p317B8z0+62F7IXAXQiyTeUGtcvQCdxirv0TciwZpZhBZDlcSKpHKX19EPk/nBLaxdxNq4NYBydVCzLKhTbgyJ3A1PYsrPt1VcLPAc06w8EjFLvgJO4azRQoiz+MSUySAgRqiaIeanhbi8D4nJtX5EqSIao91o/kB2aqmoaKtNJvq44Y75Ywg0xM6t9ncDehD+QzRpgLrq/ictsBqwxAg6RVr3wlHtOd7IQTBK6lcvJknbKKHGBgNcnSu26VL/YyxM9g0h42fvqRMQ0ty83avgCoelIzu0Q4WlhfJhAlUWthwfYRD5R8IZY1gN9AyDE0d/80drpwyPcm5WgI7/P6IX+Nu/r1YQVGwnn+Hy7Mew+1PPUwEXwaUAAiUWsp9/0NrJTBxfJY3RXZABEQFiD50OpW7jXFNdZLH1fw04dY9bk2yE9PMs/clURCHmOvOj7G2xOCMgcsx7yahn0wK9VNXJAJGt5xoHY9IN0ChYmSQrO2DUJfiuB2aUavTKHJxiTzraBv5fg2jhCdmIiPs3ADCI0M6ykOj0ORLs3WAbGIwAINDKYjSdhUyu5+aN9cnp62j7SJG3f7Cq4xExJyGO4DfkBbD8IEFbqA4Gn3TCRyIudIYNptJWPZBGIyqxU5Klbt12kvz0Ns7SrVsKgug6UbqmuSYWT7MUVTjkXPU6V0wx0mn7kFqeu9HIfCNhpgj9MaLTTizzpJTRrB8izdVHgHJO9dSlXYfJEGC6bUbsk/nV6qtXPcG9r+g3Jh/gvfZ0kGeUaKeSUfswC9c6KLpV2Ij295wChJthFxkgDDtgLVexmsWkwrqBe0USmPVG/2FeUUivhUXCvYnK/9gXywwXCXR0bdrG3KaFV/45UGHABOFZPYL8TeTR0ymi+q9il+hnlHqM+wQ1MRRVjwFFdAn+ClvTN354OBESqIhCsuO08hQoRtKyZcYwdd+w6wotCizE8oXd9CitNsmKnC7vCRYIbJJfGvRLc10pmvEYxs/OBgGysu0DQ0A6EBm3OMSsovX/Ta0xNPCGmsYL/hanPyVwGsz3/HIHcWmVqRzOtzMi01/P8gSDTUCMI5FJxijY8LyIO5Pkpc47JmH/NrMJX+aV+QXWsFyxkdkknAsW9Yd6ZlODGkHYKJcU/AoLpzwWCbc2uCnFDGAgrPefTuR3Z6aUZKz5Esgrs+Up8kEjVyxIj1DTIbc/UjYxhUopAlDYZ97xDggORfLbq4k0O5BptNB7jp0XEgVSe9Ex/q1Bpm0xPVw6LBc40JmMJiMw9yjKXjwldp/nrhyIj5EThV7DOT3gFDwSS8iOR4mfhMAA5UpCZazGsosWBFC5JMTW4M32rZCUSVpFfvihVb/BO3x44znmBUQvP7z1A1r9AIEeGx1+f4abll9njsDA+Dr+ZgS9rA0lrUIgwEIwdncdcXR5Uhcl6PYmujgox9TyebKs8FnSzk4uglHXOrUh1g3z3eh6GhZ+j0+E6zHKmgDW3JJiL1FRCRD2E2zShcLa7fSi7JjygGH/cMKhQI3mdMT0DUcsBUrF3yxN02VMjnI8ZmUVgzbGxvAy2oEDVYFCXIxVLiKyU3SdeI3X5IAFG9fBoJjp3KswXuZwnWFvjucDwaLAXwrxo/CWPdhGonJeWCMtv2jhEcog7cAOBhH7xFoiECmEko1L1NvKYSNtIbnVL3kLbiqoAxCMhsrxP9IUeOb5LFqE4utmuIQ6BpD50pSwFpXhNnRPM7Dzy6FvKXaaN/F2nc2vSfWmvLkmbV15ApnkrDuSWz0pzk82BLdSaKiUClNybXgiPh8lv99OblBcst7xSLKvmsaGaFDy0XlGwoyAk5Mm9wk6fLPusSbTCK+NEPSaIAxsqcZngvDEreAy/ow2mojlVeE3P0rvRg6tjprazJ0VNqmLUXPJ8ZY4PjQIxC7qPKeyLEUaw84aB73ehyI3Lw0SHXsLEwQl3kzS34/EWxdVwa1+BUS7u73i5HID/NdKy+IrG4jRxZEkYgvt+LhQ8/eBCUSR5uwHJEC2Lz9C7adJqHjPdOsqeJpKbsAhkeu0XT0EaSY329W10ETLNbVrIQTzeocxZ2zuImgBFtvN7d3MX4rKdycH62tl6njHdqBxlu2oJOlPkr0NvnxUmtBxJ+exJgDbHJiDKDA1DxCXknPN8Agb+LwlZ3n3ronrMDPSQOzo/RhuytHZfqex1Fe0oox7E4SSF6bW5vgDR93a0i+BW2ZW5DLrjOIaUKiZzhAsj5d/8eopumRU3cXqe790W8aZdmseaBDK+gqzWWRxWsxoU+WuvBvEJeAyfTaIbNvlt/h++gcv/ji2EQtP5UrFg6BYuGRoFy8ow/HPE4VMkrZthiauD3TPQh9cpwTlCgQOX5JFJBPrB+ZkV8nY4JS7T88QRyl/nYnU3rlTWwcLKGRGW8Ko5be3EZERV0aO8w+YS0nM/5dE7g0iO8jgdFsbhFf5dMSrbcN0Eevp5BQsh7kKVrWT9xCKUDGT8m2c3grOC0atduypoYpn4vMFGHEkrVt0+aDG117lLMCyEsBzDyYNKGXHFy00Xwn8a52BZPoZFxyZmxrzfvSUuk/2hk5o+a94gAqYzym+K4UB4GvbBgS6SH2FZSHxHY8d4dGqShATirs/FD46jUIr/+hKeAW29leUF76DBOiNiFvBwUexrIZEu+dxAIySzi+PkjUwiPTwk4XduXpnGmJV6365QH4ADE6mfWYk3vq/EiSurfXNanfv+fXFuZeadKL6MtcCO/P7uPNxixUT72uAv4eQyjyjGV20D+jY3FQ6HQ3MLPsT+PBaM0jvTTyjeIY0ywonW/0AmQ2FIdXOz09P4TmgX4cJMgEqHlblCvM/xRaO8HcSC4D+RbwsrszP/rEWj6pNn4SvJVdzUxpVa3td+bgH+hJW9Y+8PUEd8F+lv27A+t2BEwEGqx0EfUMfBmcrVge90+dyCrEMFPOQNjCpwJutNkzl1zcIfn1s4C3+ZWpOHnOMHwIjuNgj9IjiwV2c9SOpDMLbhcAwOIPv1wMwfn1wWAQeeWRuGEQcYKiOOLH52P+dslvqIZa/rGwhjveZqA18/99kFKSp266YQaS1ZjfMDVy6M+cVPb1a8QmO4OtGHAQdEo1Fsh10YS5/eywHHFD9B6DiIJG9uxKOxmusaIKHPb1WQ0UN82SEn910jHusrw7018gsInxQZT4gDbWobULiegUa1PP3pYxXKRAhxPOe4MjZicLaVvFTG2PfZP76EIHHMzN8/YVyyEaudNVRGiStTc5+9sOrLCuJIX+9sblw1WyZ5zbIsfQ2bQuHsd2GrW2s1+J6HK/OhL6MM/i4vEDPfIH8y9hrF4hfIGgNZCA3Yo1cooE3+MiblEHpvZWx58YtEqb7AtZThIRDz8Irlr2RRtkxPTq++RDK+vLjypQzKlcXwQBMA4uuEqCGZDdk+Efr+xVx7KPDOjYWnllYnVyb+BxB/A4jmTLQDbGTMAAAAAElFTkSuQmCC;rotation=0;" vertex="1" parent="7sJCd6B2Vx5864JhMqsD-14">
          <mxGeometry x="140.62" y="23" width="55" height="55" as="geometry" />
        </mxCell>
        <mxCell id="7sJCd6B2Vx5864JhMqsD-38" style="edgeStyle=orthogonalEdgeStyle;rounded=0;orthogonalLoop=1;jettySize=auto;html=1;" edge="1" parent="7sJCd6B2Vx5864JhMqsD-14" source="7sJCd6B2Vx5864JhMqsD-17" target="7sJCd6B2Vx5864JhMqsD-15">
          <mxGeometry relative="1" as="geometry" />
        </mxCell>
        <mxCell id="7sJCd6B2Vx5864JhMqsD-17" value="" style="shape=image;verticalLabelPosition=bottom;labelBackgroundColor=default;verticalAlign=top;aspect=fixed;imageAspect=0;image=data:image/png,iVBORw0KGgoAAAANSUhEUgAAAgAAAAIACAYAAAD0eNT6AAA6SUlEQVR42u3dd3yV5f3/8fd1MgxDhixRxIm7iKKQI1pxix1aq1attnX0Z9lBGVZWBEEQZYQEpbW21Vr7VWu1UlAUxUUIiHujKCIoypIZMs71+yNS1IKE5Jzzue9zv56PR/+r5BX0JG/Cue7LCUA0eDlNzT9dTj+TUzdJB0tqLGmNvN6QNFPK+pv6vrjCOhVA6jnrAABpUNL1QnndLLnDdvH/LJdUosq8mzVg7jrrbACpwwAAMllR/FjFEpMl98Pd/CfXyPtRWt2gRIVzq6w/DQDJxwAAMlFxlxZSbISk3pKy6vErvSvnBqh36ePWnxKA5GIAAJlkeuccVWT3knM3SWqaxF95hmLV/dVr4RLrTxFAcjAAgExRlH+GYpoi6cgUfYQKSXcq4YerX9l6608XQP0wAICwK+5yqHzWRDn/o7R8PO8+k0sUalXZXSpUwvrTB1A3DAAgrCZ1b6ac8hskDZCUa1CwSF791Xf+i9a/FQB2HwMACJtCxdQqfrm8nyCptXGNl9ND8rFB6jNvqfVvDYDaYwAAYTI1v7ucJks6xjrlOzbLa4Iq3XhdV7rFOgbArjEAgDAoOWE/+ewxkr/COmUXPpVzQ9Wr9F45eesYADvHAACCbHrnhqrIGSynIZLyrHNqzetZxWIF6j3vVesUADvGAACCyMupOH6hnL9NUnvrnDpKSO4+VSUGqaBspXUMgG9jAABBM7XL8XKxKZJOtE5JDr9OcuOUaD5Z/WZtta4BUIMBAATF1G77yCVGSv4aSTHrnKRzWizvrlOf0hnWKQAYAIC9wqNy1aJxTzk3SlIT65yUc3pKvrpAfRa+ZZ0CRBkDALBUkv8TeTdZ8gdZp6RZpeT+rJyKobp20SrrGCCKGACAhZL8I+T9JMmdbZ1irOba4Tbti3Xxg9XWMUCUMACAdJoY30u5fqTqf01vpnlH3g1Q39InrEOAqGAAAOlQ2D1bLbdcJbkxklpa5wQY1w4DacIAAFKtOH66vJ8sp6OtU0Ki5trhBlnDdPWLG6xjgEzFAABSZUrXDsp2Y+R1kXVKSK2Q/E1cOwykBgMASLaS7o2VKB8opxsk7WGdE37uJTn1V+/SedYlQCZhAADJsv2a3lsltbHOyTA11w5XZQ9U/xc+sY4BMgEDAEiG4vyu8posp3zrlAxXc+1w47xxunJuuXUMEGYMAKA+irq2Uyw2VvKXi9dTOi2Tc8PUu/Qe6xAgrPiCBdTF9M4NVZnTV9IwSY2tcyJsrhKJAvVb8Jp1CBA2DABgd5Xk/0ReRZIOsE6BpG3XDme5geo57wvrGCAsGABAbRXnHyfnJsv7k61TsCNfXzu8asMkFb5VYV0DBB0DANiV6Z1bqjJnuHh8b1i8L7nruXYY+H4MAGBnpnfOUUV2r8hc05tpuHYY+F4MAGBHivLPUExFko6wTkG9VEq6QzmVI3Ttoq+sY4AgYQAA3zSt22FKVE+UdK51CpJqtbwfzbXDwHYMAECSpp3UXImqIZIGSMq1zkGKOL0iHytQn3nPWacA1hgAiLbtj++9TVIr6xykzQz5RD/1XfCRdQhghQGA6Crpeqq8myypo3UKTGyRVKQGWWO4dhhRxABA9Ew5qb2yqm+W/BXWKQgErh1GJDEAEB0TOjZSXsNBchoiKc86B4GzUM4VcO0wooIBgMzn5TQtfoW8Hy9pb+scBBrXDiMyGADIbCUnniBfPUVycesUhMomed3GtcPIZAwAZKap3faRS4zjml7UE9cOI2PxhRGZZWK8gXJ9P0lDJe1pnYOM8YxivkC9yl63DgGShQGAzFFzTe8USQdapyAjce0wMgoDAOFXcmKnr/+e/4fWKYiEtZLGc+0wwo4BgPAq7tJCio0Q1/TChH9PMX+9ei34j3UJUBcMAITP9mt6b5LU1DoHEef0lKp9f/Ure9s6BdgdDACES1H+GYq5yZI/yjoF+AauHUboMAAQDsVdDpVit0v6sXUK8D24dhihwQBAsE3q3kw55TdIKpC0h3UOUCtcO4wQYAAgmLZf0ztBUmvrHKCOuHYYgcUAQPBMi5+ihJ8i6RjrFCAJuHYYgcQAQHAUdW2nWGwsj+9Fhlou525Ur9J75eStYwC+yMLe9M4NVZEzWE6DJTWwzgFSbKEU668+80qtQxBtDADY8XIqjl8o5ydI2t86B0gjL7m/yVUNVu+Fn1vHIJoYALAxrWtnJdwUSd2sUwBDXDsMMwwApNf0zm1VmVso+WskxaxzgID4QN7dqL6lD1qHIDoYAEiP7Y/vHSWpiXUOEEzuacUSA7h2GOnAAEDq1VzTO0nSwdYpQAjUXDucyL5e/Z7/0joGmYsBgNSZGj9czk+SdI51ChBCXDuMlGIAIPkmxvdSrh8pqZekbOscINz8e5KuU5+ymdYlyCwMACRPYfdstdxyleRultTKOgfIKFw7jCRjACA5iuOnS36SpB9YpwAZjGuHkTQMANRPSfwQyY+V10XWKUCEcO0w6o0BgLqZ0LGR8hoOktMN4ppewMrLSiQK1G/B89YhCB8GAHaPl9O0+BXyfrykva1zAEiSZihLfdVz/sfWIQgPBgBqryjeRc5PkVO+dQqA/1Fz7bDLu1m95260jkHwMQCwa3fE91W1buGaXiAUuHYYtcIXc+zcxHgD5fp+koZJamydA2C3LFDC91e/svnWIQgmBgB2rObxvUWSDrBOAVBnXDuMnWIA4NuK84+Tc5Pl/cnWKQCSpubaYd/8FvWbtdU6BsHAAECN4i4tpNgISb0lZVnnAEgJrh3GfzEAom77Nb03SWpqnQMgHdzT8ipQ39I3rEtghwEQZUX5ZyimKZKOtE4BkHZVkrtbiexhXDscTQyAKJrW7TBVJ26X8z+yTgFgbq28v0mrG5SocG6VdQzShwEQJdNOaq5E1RBJAyTlWucACJR35XWd+s6fZR2C9GAAREGhYmoVv1zeT5DU2joHQKDNUCJWoH7zPrQOQWoxADJdSddT5d1kSR2tUwCERs21wwk/XP3K1lvHIDUYAJmq5IT95LPHSP4K6xQAIeXdZ3KJQrVu/yeuHc48DIBMs/2a3iGS8qxzAGSEl+V8f/Uue8E6BMnDAMgUXk7F8Qvl/G2S2lvnAMhIM6RYH/WZt9Q6BPXHAMgEU7scLxebIulE6xQAGW+zpKlcOxx+DIAwm9ptH7nESMlfIylmnQMgUj6Vc0O5dji8GABhVHhUrlo07innRkva0zoHQKSVKeELuHY4fBgAYVOS/5OaY33+IOsUAPhaQnL3qSoxSAVlK61jUDsMgLAoyT9C3k+S3NnWKQCwExvldTvXDocDAyDoJsb3Uq4fKa7pBRAWTouVcEO5djjYGABBNb1zjiqzr5TcGEktrXMAoA7mKCtWoJ7z3rQOwf9iAARRUf4Zcpokp6OtUwCgnmquHc6pGKprF62yjsF2DIAgmdK1g7LdGHldZJ0CAEm2Rt6P4trh4GAABEFJ98ZKlA+U0w2S9rDOAYAUelfODVDv0setQ6KOAWBp+zW9t0pqY50DAGk0Q7Hq/uq1cIl1SFQxAKwU53eVNEVSV+sUADBSIelOrh22wQBIt6Ku7RSLjZX85eL3HwC2Xzu8quwuFSphnRMVfANKl+mdG6oyp6+kYZIaW+cAQAAtkvMFXDucHgyAdCjJ/4m8pkra3zoFAALOy+kh+dggrh1OLQZAKhXnH6eav+c/yToFAEJms7wmqNKN13WlW6xjMhEDIBWmd26pypzh4vG9AFBfXDucIgyAZJreOUcV2b3k3ChJTaxzACBjeD2rWKxAvee9ap2SKRgAyVLz9/yTJB1snQIAGYprh5OIAVBf07odJl89SV49rFMAICK4djgJGAB1Ne2k5kpUFUrqJSnbOgcAIodrh+uFAbC7Crtnq+WWqyR3s6RW1jkAEHlOTykWG8C1w7uHAbA7pnY5TS42SVJH6xQAwLdUSu7PXDtcewyA2iiJHyL5sVzTCwCBV3PtcJv2xbr4wWrrmCBjAHyfCR0bKa/hIDkNkZRnnQMAqLV35N0A9S19wjokqBgAO+LlNC1+hbwfL2lv6xwAQJ1x7fBOMAC+q+TEE+Srp0gubp0CAEgKrh3eAQbANnfE91W1buGaXgDIWCskfxPXDtfgG93EeAPl+n6Shkra0zoHAJBq7iV5X6C+81+0LjH9XbAOMFXz+N4pkg60TgEApFXNtcNV2QPV/4VPrGMsRHMAFMWPVSwxWXI/tE4BAJiquXa4cd44XTm33DomnaI1AIq7tJBiI8Q1vQCAb1sm54ZF6drhaAyA7df03iSpqXUOACCw5iqRKFC/Ba9Zh6Ra5g+AovwzFHOTJX+UdQoAIBRqrh3OcgPVc94X1jGpkrkDoLjLoVLsdkk/tk4BAISRXye5cUo0n5yJ1w5n3gCY1L2ZcspvkFQgaQ/rHABA6L0vuevVp3SGdUgyZc4AKFRMreKXy/sJklpb5wAAMozTU/LVBeqz8C3rlOR8Oplgan53OU2WdIx1CgAgo1VKukOVeSM1YO4665j6CPcAKOraTrHYWB7fCwBIs9BfOxzOb5rTOzdURc5grukFABgL7bXD4RoAXk7F8Qvl/G2S2lvnAADwtRnyiX7qu+Aj65DaCs8AmNa1sxJuiqRu1ikAAOxAzbXDDbKG6eoXN1jH7ErwB8D0zm1VmVso+WskxaxzAADYhVBcOxzcAfDn7nnatHWA5G+U1Ng6BwCA3eNLFVNf9SpbZF2yI8EcANO6/EiJWLGkA6xTAACohyo5jdeX80cE7acBwRsAU/OHyml0INsAAKgLpwf1Zd5lKpxbZZ2yTbD+Tn1q14Fyull88wcAZBKvi9SyvMg645uC8422+MS4lHheUpZ1CpIj5mJq27CFDmjSVgfs2VaNchpIkprkNlKWi2nd1g1a+/X/vtyyVkvWr9D6ik3W2UBa7JGVoxZ5TdUyr5laNmimmHNat3WjvPf6bPMqfbZptXw0rqWPGH+++pQ9al0hBWUAeDlNy18kr2OtU1B3BzfdV9327qgT9/6BurXtqA5N91NuVs5u/RqfbV6l99ct09trPlLZyrc0f+Vben/dJ9afGlAvhzRtp5P36aR4m6N1aLP26tCsndo2bPm9/0x5dYU+Xv+ZXv7yPb3w+Wt6bsWrentNaI6YY+c+VOv9DgvC0wODMQCm5veQ00zrDOy+I5ofoEs6nKHLOpytg5vum5KPsap8nZ5f8ZqeWFammUvn6dONGXs9NzLID1ocrEsOOVMXH3J60l4b7637RPcvnq2/vfeElqxfbv0pos7cBepT+i/zCusASVJx/l8k/do6A7WTm5Wj3xz+I/3uqJ+pU8sOaf/4r6/+QI999IIeWvKMXlu12Pq3A/gvJ6ce+8d1fadLdeq+nVP2cRI+oX9+OFe3vPxXvcprIIz+rj7zf2kdEZABEP9Q8gdZZ+D7NcjeQ7898jwN7HSZ2jUOxo3L7637RA988JTufmeGlm743DoHEdalzZGa2K2/Ttz7B2n7mF5eDyyeo+vnFWnFplXWvwWovU/UZ/7+1hH2A6Coxx6Krd2soJ1IwLdc2uFMTezWX20a7mWdskNViWr9a8mzmvz6P1T6+ZvWOYiQRjkNNCHeR9cefb6c0ZfU9RWbNKxsukre+CdvHAwHrwrXSNeVbrGMsB8A0zs3VWXOOusM7NjeDVto2g8H6fyDfmidUmvPrnhFQ0pLtGDl29YpyHCdWnbQP84arUObBeNusoeXzNXVT4/VVxUbrVOwS4mW6rNgtWWB/Z+6N+Vy7C+gLjiou9685L5QffOXpFP2OValP/+j7j9zlA5sso91DjLUTw44Sc/97M7AfPOXal6zCy78kw5qkpo35CKJqly2dYL9AEAgXdfpUj1w9s3aK6+JdUqdODn9osMZeuOSv6ngmF8o5vhPHclz5RE/1sM9xqnx18+2CJIOzfbT8xfcoR+0ONg6BQHHV0V8S8zFNPmkAt12Yt+M+KbZMDtPE7v117PnTwvUn9QQXpcdepb+0P0GZQX49dG2YUs9fV6xDm9u/j4zBFhw/wtG2sVcTPeeMVL9Ol5snZJ03dp21EsX/Vm/6HCGdQpC7NR9O+svpw0P9Df/bVrkNdXMH0/c5QOHEF3B/68YaVN08gBd2uFM64yUaZzTQPefOUoTu/VXTsz8r98QMgfs2Vb/d/ZoZcfC87alA/Zsq3/1GLfbT+RENDAAIEnqdfTP1evon1tnpEXBMb/QrB9PVNPcxtYpCImYi+m+M29Sy7xm1im7rUubI3Vzl/9nnYEAYgBAJ7Q+QhO79bPOSKvT2h2vZ382Tfs04sej2LX+HS9WfO+jrTPq7PpjL9Np7Y63zkDAMAAiLi8rV385fXgkf0TYscUhmnfBH3lzIL5X24YtNarLb60z6sXJqfjk6yP5OsfOMQAi7sbOv9YRzQ+wzjDTfs82evq8YkYAdmr48Vf+9yrrMDu8+f4acMwl1hkIEAZAhLXfs42u73SZdYa5fRrVHJnq0Gw/6xQEzAF7ttXVR/7EOiNpBna6THvmNLTOQEAwACJsaOffqEH2HtYZgbBPo5aa89Op2q9xG+sUBMi1R52fUSdGWuQ1Vc8fXGCdgYBgAERU24Yt9avDzrXOCJR2jVtr5o9vV/M99rROQQDskZWTUX/636bP0ReG4jkGSD3+K4io3x71U+3BG4L+x1F7HaRHeoxXXlaudQqMnbVf11Ae+9uVdo1b66z2Xa0zEAAMgAhycrr80HOsMwLr5H066e7Thppd7YpgOP/AcF2CtTt+dWgP6wQEAAMggo5rdZgOadrOOiPQLulwpoYdf6V1Bow4Of3ogG7WGSlzdvv8UD3REKnBAIigHvvHrRNCobDL1bokgx+NjJ07pFk7tW7Q3DojZZrt0Vhd2xxlnQFjDIAIOm3fztYJoeDkdNepv9dxrQ6zTkGaReGb48ltO1knwBgDIGKcnI5tdah1Rmg0zM7TYz+aoHaNW1unII2OjMDDsY5pcYh1AowxACLmwCb7cAnObmrbsKX+ec4tPDMhQg7ccx/rhJQ7usVB1gkwxgCImAObtLVOCKUTWh+hP516IycDIuKACLxOGmbnWSfAGAMgYtrvubd1Qmhd0uFMDT+BkwFRwE/JEAUMgIhpkdfUOiHURp7AyYAoaJTDn46R+RgAEcMT7upn28mAzq0Ot05BCuVl8X4PZD4GQMTsEePxv/XVMDtPj5w7Xvs0ammdghRxvNUDEcAAAOpg30at9O9zJ/BGKgChxQAA6ui4VofpL6cP42QAgFBiAAD1cOHBp3EyAEAoMQCAehp5wtW6lJMBAEKGAQDUU83JgBvVpc2R1ikAUGsMACAJGmTvoX/1GMedAQBCgwEAJEnbhi31SI/xnAwAEAoMACCJjmt1mP56+nBOBgAIPAYAkGQ/P/hUDT+ekwEAgo0BAKTAyC6cDAAQbAwAIAWcnP502lBOBgAILAYAkCJ5WbmcDAAQWAwAIIXaNmypR3vcqkY5DaxTAOBbGABAih3b6lD95TTuDAAQLAwAIA1+fvCpGnHCVdYZAPBfDAAgTUaccBUnAwAEBgMASJNtJwO6tjnKOgUAGABAOuVl5erhHrdwMgCAOQYAkGacDAAQBAwAwMCxrQ7lzgAAphgAgJELDurOyQAAZhgAgKERJ1ylyw49yzoDQAQxAABDTk53nXojJwMApB0DADC27c6A/Rq3sU4BECEMACAA9m7YQo/0GM/JAABpwwAAAmLbyYCY42UJIPX4SgMEyAUHddeI4zkZACD1GABAwAw/4UpOBgBIOQYAEDDbTgbktznaOgVABmMAAAG07c4ATgYASBUGABBQnAwAkEoMACDAOBkAIFX4qgIE3AUHdddI7gwAkGQMACAEhh1/pX556NnWGQAyCAMACAEnpz+e+ntOBgBIGgYAEBKcDACQTAwAIET2bthCj557KycDANQbAwAImU4tO3AyAEC98RUECKELDuquwhOuts4AEGIMACCkhh7/G04GAKgzBgAQUpwMAFAfDAAgxDgZAKCuGABAyHEyAEBdMACADNCpZQfdc/oITgYAqDW+WgAZ4mcHnaKbTrjGOgNASDAAgAxy4/G/1uWHnWOdASAEGABABnFy+kP3GzgZAGCXGABAhuFkAIDaYAAAGYiTAQB2hQEAZChOBgD4PnxlADIYJwMA7AwDAMhwnAwAsCMMAGSk8uoK64TA4GQAgB1hACAj9X3+duuEQNl2MqD9npwMAFCDAYCMNPuTBfq/xU9ZZwTK3g1b6JEenAwAUIMBgIx11TNjVLbyLeuMQOnUsoPuPX0kJwMAMACQubZUbdUFs36vZRtXWqcEyvkH/VCjuvzWOgOAMQYAMtpnm1fp/FlDtKlyi3VKoNzYmZMBQNQxAJDxXvnyff16zmglfMI6JVD+0P0GxffmZAAQVQwARMLDS+Zq1Et3W2cESl5Wrh4+ZxwnA4CIYgAgMkYv/LPue/8J64xAadNwLz3a41Y15mQAEDkMAESGl9dvn7lF8z9/0zolUI5p2UH/OGu0sjgZAEQKr3hESnl1hS54nJMB33Xu/idqVJf/Z50BII0YAIiczzev1nkzB3My4Dt+3/lXuvrIn1hnAEgTBgAi6dVVi/WrOaM4GfAdJScP1A/36WSdASANGACIrH8teVYjF95lnREouVk5euicsTqoyb7WKQBSjAGASBv70l/1t/cet84IlJZ5zfTvc29Vk9xG1ikAUogBgEjz8vp/c8eplJMB33LkXgfq72fexMkAIIPx6kbk1ZwMuEGfbOBkwDedu/+JGt2VkwFApmIAAJJWbl6jH/3neq2v2GSdEig3HPcrXXPkT60zAKQAAwD42ltrluiyJ0eqmpMB31J88vU6ZZ9jrTMAJBkDAPiGmUvnaXjZH6wzAiU3K0cPnjOGkwFAhmEAAN8x7uV7dNfb/7bOCBROBgCZhwEA7ECf52/Xsytesc4IlCP3OlD3nzmKkwFAhuCVDOxARXWlLnp8qD78arl1SqD02D+um7tea50BIAkYAMBOrCpfp/NmDdZXFRutUwJlyHFXcDIAyAAMAOB7vL3mI04G7EDJDwdyMgAIOQYAsAuzlpZqaNmd1hmBkhPL5mQAEHIMAKAWbn35b/rj249aZwTKtpMBTXMbW6cAqAMGAFBLfZ67XXOXv2ydESjcGQCEF69aoJYqE1W66AlOBnwXJwOAcGIAALthdflX+unMQZwM+A5OBgDhwwAAdtM7az/WpbNHcDLgOzgZAIQLAwCog8c/ma8bSqdZZwRKTixbD50zVgc35WQAEAYMAKCObn/17/rDW49YZwRKi7ymerQHJwOAMGAAAPXQ9/mJemb5IuuMQOFkABAOvEKBeqhMVOniJ4bpg68+tU4JlB77xzWm6++sMwB8DwYAUE/bTgas28rJgG8afNzl+u2R51lnANgJBgCQBO+uXapLnxyuqkS1dUqgFP/wenXf9zjrDAA7wAAAkuSJT8o0pLTEOiNQcmLZevDsMZwMAAKIAQAk0aTX/qE73/yXdUagcDIACCYGAJBk/V+YpKc/fck6I1CO3OtA3X/WKE4GAAHCqxFIsspElS6ePUyL1y2zTgmUc9rna2x+T+sMAF9jAAApsKZ8vc6bNZiTAd8x6NhfcjIACAgGAJAi765dqktmczLguzgZAAQDAwBIodnLyjRw3lTrjEDhZAAQDAwAIMWKXn9Ad7z5sHVGoLTIa6p/nzuBkwGAIQYAkAYFL0zWHE4GfMsRzQ/gZABgiFcekAaViSr9YvYwvb/uE+uUQDmnfb5u4WQAYIIBAKTJmvL1Om/mYK3dusE6JVAGHvtL/b+jzrfOACKHAQCk0XvrPuFkwA5MPfk6TgYAacYAANLsyWULdN2LU6wzAmXbyYBDmrazTgEigwEAGCh+4yFNe/Of1hmB0iKvqR49lzsDgHRhAABG+j8/STOXzrPOCBROBgDpw6sMMFLtE7rsyZF6e81H1imBck77fI2L97LOADIeAwAwtL5ik346c7BWla+zTgmU6ztdxskAIMUYAICxJeuX68LHb1RFdaV1SqBMPfk6nbpvZ+sMIGMxAIAAeG7Fq+r9/G3WGYGSE8vWA2ffzMkAIEUYAEBA/OntxzT19QetMwKFkwFA6jAAgAC57sUp+s/SF60zAuWI5gfoH2eN5mQAkGS8ooAAqfYJ/fLJQr21Zol1SqCc3b4rJwOAJGMAAAGz7WTAl1vWWacECicDgORiAAAB9NH6FbrwCU4GfBcnA4DkYQAAAfX8ilfV87kJ1hmBwskAIHkYAECA/fmdGZry2v9ZZwTKtpMBzfbgZABQHwwAIOAGzpuqGR9zMuCbjmh+gO4/k5MBQH3w6gECruZkwEi9ycmAbzm7fVeNj/e2zgBCiwEAhMCGys366X8GcTLgO67rdKmu5WQAUCcMACAkPt7wmX7++O+1lZMB31LEyQCgThgAQIi88Nlr6vnsrdYZgZITy9aDZ4/hZACwmxgAQMj85d3/aOKr91tnBMpeeU3073MncDIA2A0MACCEBpeW6LGPX7DOCJTDm++v+88crexYlnUKEAoMACCEEj6hy58s1BurP7ROCRROBgC1xwAAQmpD5WadN3Owvtiy1jolUAYccwknA4BaYAAAIcbJgB3jZACwawwAIORe/Ox1/e7Z8dYZgcLJAGDXGABABvjruzN12yv3WWcECicDgO/HAAAyxA3z79C/P3reOiNQOBkA7BwDAMgQCZ/Q5U8V6vXVH1inBMrZ7bvq1ngf6wwgcBgAQAbZWLlF580crJWb11inBErBMb/Q747+mXUGECgMACDDLN3wOScDdmDKSQN0WrvjrTOAwGAAABlo3udv6Nq546wzAiUnlq0HzrpZHZrtZ50CBAIDAMhQ97w3S+Nfvtc6I1D2ymuiR3vcyskAQAwAIKMNLZuuRz96zjojUA5vvr/+cRYnAwAGAJDBEj6hK566Sa+tWmydEihn7ddVEzgZgIhjAAAZbmPlFp0/awgnA76jPycDEHEMACAClm74XD+ZOUhbqrZapwQKJwMQZQwAICJe+uIdXfn0zfLy1imBwckARBkDAIiQBz6Yo3GLOBnwTdwZgKhiAAARM6xsuh74YI51RqAc1qw9JwMQOQwAIGK8vK5+Zqxe+fJ965RAOWu/rrq5y7XWGUDaMACACNr09cmAzzevtk4JlEHH/VIXHXKadQaQFgwAIKKWbVypn826QeXVFdYpgeHkdPepQ7VnTiPrFCDlGABAhJWtfEu/njOKkwHf0CingfbIyrHOAFKOAQBE3IMfPK0xL/3FOgNAmjEAAGjkgrv0j8VPWmcASCMGAID/ngxY+MU71ikA0oQBAECStKVqq342a4g+3fiFdQqANGAAAPivFZtW6fxZQ7S5qtw6BUCKMQAAfMvLX76n38zhzgAg0zEAAPyPhz58WqMW3m2dASCFGAAAdmjUwrt1PycDgIzFAACwQ15e1zwzVgtWvm2dAiAFGAAAdqrmZMANnAwAMhADAMD3+mzzKp03a7A2VW6xTgGQRAwAALv0ypfv69dzRnMyAMggDAAAtfLwkrm6acGfrDMAJAkDAECtjX7pz/r7+7OtMwAkAQMAQK1tOxkw//M3rVMA1BMDAMBuKa+u0AWP/17LNq60TgFQDwwAALvt882rdf6sIZwMAEKMAQCgTradDEj4hHUKgDpgAACos4eXzFXhQk4GAGHEAABQL2Ne+ovue/8J6wwAu4kBAKBevLx++8wtnAwAQoYBAKDetp0M+GQDJwOAsGAAAEiKmpMBg7WRkwFAKDAAACTNq6sW61dzbuJkABACDAAASfXIkuc0YsEfrTMA7AIDAEDSjV30V9373izrDADfgwEAICV+O3ecnl3xinUGgJ1gAABIiYrqSl30+FAtWb/cOgXADjAAAKTMqvJ1+unMwVpfsck6BcB3MAAApNTbaz7SpU+OUDUnA4BAYQAASLlZS0s1rGy6dQaAb2AAAEiL8S/fqz++/ah1BoCvMQAApE2f527nZAAQEAwAAGlTmajShY/fqA+/4mQAYI0BACCtVpd/pfNmDdZXFRutU4BIYwAASLu313ykS2dzMgCwxAAAYOLxT+br9/PvsM4AIosBAMDMba/cpz+89Yh1BhBJDAAApvo+P1HPLF9knQFEDgMAgKnKRJUufmKYPvjqU+sUIFIYAADMrS7/SufN5GQAkE4MAACB8M7aj3XJ7OGcDADShAEAIDCe+KRMQ0pLrDOASGAAAAiUia/er+mcDABSjgEAIHD6cTIASDkGAIDAqUxU6aInhnIyAEghBgCAQFpTvl4/nTlI67ZyMgBIBQYAgMB6d+1SXTJ7uKoS1dYpQMZhAAAItNnLyjSotNg6A8g4DAAAgTfltf/TnW/+yzoDyCgMAACh0P+FSZrz6UvWGUDGYAAgI1V7/s4401QmqvSL2cO0eN0y6xQgIzAAkJE2VGy2TkAKrClfr/NmDeZkQBLwxkowACKmKgJ/Mk74hDZVlVtnIEU4GZAcXLwEBkDEROEb45qt65XgQpmMNntZmQpemGydEWr8FAUMgIjZWJn5PxpfvI6nx0XBtDf/qaLXH7DOCK11FRusE2CMARAxUfi78cVf8SaxqLj+xSLNXDrPOiOUVm5eY50AYwyAiPl04xfWCSn3xuoPrROQJtU+oUtnj9Dbaz6yTgmd13mdRB4DIGLeWJP5L/q5y1+2TkAabajcrJ89fgN/p72bXv7yPesEGGMARMya8vVasWmVdUbKfFWxUa+uet86A2m2eN0yXTJ7uKp582etVCWq9daaJdYZMMYAiKDXVi22TkiZWUtL+SYQUbOXlWnUwrutM0Kh9PM3VF5dYZ0BYwyACHp6+SLrhJT5++LZ1gkwdPNLf9b9i5+0zgi8Bz6cY52AAGAARNCjHz0nL2+dkXSrytdp9rIF1hkw5OV1zTNjtfCLd6xTAqvaJ/TPD+daZyAAGAAR9MFXn+qFFa9ZZyTdnW/+SxXVldYZMLalaqvOnzlEyzautE4JpDmfLtTnm1dbZyAAGAARVfzmQ9YJSbW5qlzFb2TW54S6+2zzKv10JncG7Mgti+6xTkBAMAAi6p8fzs2os9N/eOtRfbFlrXUGAuS1VYt1zowCnnn/DXM+fUnPrnjFOgMBwQCIqIRPaMCLU6wzkuLLLes0+iXe/Y3/tWDl2zrnsQFaX7HJOsWcl9fIBX+0zkCAMAAi7MllC3Tf+09YZ9TbsLLpWruV55pjx8pWvqUeMxgB0974p+Z9/oZ1BgKEARBxfZ67XZ9sCO+bpWYvK9Of3nnMOgMBV/r5mzrp4Wv10foV1ikm3l7zkQaXllhnIGAYABH3VcVGXf3MmFAeC/xiy1r9Zs7NXP2LWnlzzRLl//MaPb/iVeuUtNpStVWXP1WoLVVbrVMQMAwAaM6nL+m2V/5unbFbKhNV+uWTIznOhN3y5ZZ1OvOx/vrDW49Yp6RFZaJKFz8xTK9m8NM/UXcMAEiSfj//Dj34wdPWGbXi5XXt3PGa8+lL1ikIoYrqSv3u2Vt14eM3alX5OuuclKn2Cf16zmj9Z+mL1ikIKAYAJNWcCvj1nFF6LgQ/Hv39/Dv0l3f/Y52BkHt4yVx1/McVmrW01Dol6bZWV+o3c0brHzwWGd+DAYD/Kq+u0PmzBgd2BCR8Qn2eu123vvw36xRkiM83r9aP/zNQv54zOmNuyVyxaZVOfaR3RpzwQWoxAPAt67Zu1NmP9Q/cF4+NlVt06ZMjNO3Nf1qnIMN4ed373iwd/vdfaNzL92hriB8n/eJnr6vLQ1dp/so3rVMQAlnWATp7vwbK0hDrDGxX7RN6ZMlzSnivk9seo5iz3YnvrP1YZz9WoGeX8wQzpE5FokpzPn1J//jgSe2Z01BH7XWgsmL2XyJrY33FJg0uLVHv526L/PMOQiOh2/T4ctN/Wc7690CTujdTTjnPcA2oY1sdqj+dOlSdWnZI+8euSlSr6PUHNHLhXdpUucX6twIRs1/jNrq+06W65sifqmF2nnXOTj28ZK76Pz9Jyzd9aZ2C3ZFT2UrXLjL9eyf7ATC9c44qcyqsM7BzObFs9T/mFxrY6TK1btA8LR9z7vKXNeDFKXqN40sw1jKvmS4/7Gz9+rBzdYzBEN6RhE/o0Y+e17iX7+Hq47BqkNVEV79o+ghT+wEgScX5qyXtZZ2B79cgew9dfcRPdH2ny7T/nnun5GPMXlamMYv+GrmHtSAcOrXsoF8ddq7OO/BkHdhkn7R//M83r9bf3ntcd787Q++uXWr924G6W6U+81tZRwRjAEzNnyunU6wzUDsxF1O3th3184O664KDuqtd49b1+vXeW/eJ7l88W/e9/4Q+/Gq59acH1Mphzdqrx/5xnb1fvuJ7H60muY1S8nE+/Gq5Zi6dp5mfzNOcT19SVaLa+lNHfTnNUu/559pnBEFx/PeSH2udgd3n5HRos/10fOsj1LnV4erUsoP2adRS+zZqpUY5Db71/034hJZv+lJL1q/Qe2uX6sXP39CzK14O9V0EgFTzOjikWTsd1+owdWrRQUftdZDaNW6tfRu1UqsGzWr1a2yp2qol65frw6+W6521H2vhF+9o4RfvaNlGXh8Zx7nfqXfpdPMM6wBJUskJ+8lnfSAp1zoFydMop4FaN2iudV/f1LepqlwVIT5iBdRFXlau9m7YQk1yGyknlq0muY20sXKzEt4roYTWlK/XmvL12lC52ToV6bFWLq+9es/daB0SjAEgSVPzJ8ppgHUGAAApdL36zJ9oHSEF6UFAlW6o5F+1zgAAIDX8c2q93xTrim2C8xMASSo5YW/5rDmSjrROAQAgid5WTuUp1mf/vyk4PwGQpN4LP1dO5YmSHrNOAQAgSeaowp0cpG/+UtB+AvBNU7teKefGSzI/KwkAwO7z6+Riw/Vl6TQVKmFd813BHQCSVNK9sRLlA+V0g6Q9rHMAAKiFhOTuU1VikArKAnuOM9gDYJspXTso242R10XWKQAA7JTXs4rFCtR73qvWKbsSjgGwTXH8dHk/WU5HW6cAAPANn8q5oepVeq+cvHVMbQTrTYC70qd0jlbnHSv5ayUF6s0UAIBI2iyvm1ThDlXv0nvC8s1fCttPAL5pYnwv5fqRknpJyrbOAQBEipfTQ/KxQeozL5Q3M4V3AGwzNX64Yn6ivHpYpwAAImGRnC9Q77IXrEPqI/wDYJuS/J/Ia5Kkg61TAAAZyLvP5BKFat3+T7r4wdBfy5g5A0CSpnfOUUV2Lzk3SlIT6xwAQEaolHSHEn64+pWtt45JlswaANtM79xSlTnDJfWWlGWdAwAIrRlKxArUb96H1iHJlpkDYJvi/OPk3GR5f7J1CgAgTPx7kq5Tn7KZ1iWpktkDYJua9wcUSTrAOgUAEGhrJY3Xqg2TVPhWhXVMKkVjAEjS9M4NVZnTV9IwSY2tcwAAgVLz+N5E9vXq9/yX1jHpEJ0BsM0d8X1VrVskf3kkP38AwHc9o5gvUK+y161D0im63wCL4l0US0yWXNw6BQBgYpmcG6bepfdYh1iI7gCQap7jNC1+hbwfL2lv6xwAQFpsktdtapw3TlfOLbeOsRLtAbDNhI6NlNdwkJyGSMqzzgEApETN43tVfb16L1xmHWONAfBNJfFDJD+Wa4cBIOMslHMF6l06zzokKBgAO1LS9VR5N1lSR+sUAEC9rJD8TVpVdpcKlbCOCRIGwM4UKqZW8cvl/QRJra1zAAC7pULSnWqQNUxXv7jBOiaIGAC7Mu2k5kpUDZE0QFKudQ4AYJdmKFbdX70WLrEOCTIGQG1N63aYqhO3y/kfWacAAHboHXk3QH1Ln7AOCQMGwO4qyj9DMTdZ8kdZpwAAJElr5P0otWlfnAnX9KYLA6Autl87fJOkptY5ABBRVZK7WzkVQ3XtolXWMWHDAKiP4i4tpNgIce0wAKTbHGXFCtRz3pvWIWHFAEiGovixcn6SnE6xTgGAjOa0WAk3VH1LH7ROCTsGQDLVXDs8RdKB1ikAkGE2yut2+ea3qN+srdYxmYABkGyFR+WqReOecm60pD2tcwAg5Gqu6a1KDFJB2UrrmEzCAEiVqd32kUuMlPw1kmLWOQAQQguU8P3Vr2y+dUgmYgCk2tQux8vFJkvqZp0CACGxXM7dqF6l98rJW8dkKgZAOng5FccvlPO3SWpvnQMAAbVFUpFc3s3qPXejdUymYwCk0/TODVWRM5hrhwHgf8xQlvqq5/yPrUOiggFgoahrO8ViYyV/ufh3ACDaXlYiUaB+C563DokavvlYmhY/RYnEZMl1sk4BgDRbLe9H8/heOwwAa9uvHb5VUhvrHABIsUpJdyincoSuXfSVdUyUMQCCoqR7YyXKB8rpBkl7WOcAQNI5PaVq31/9yt62TgEDIHimdO2gbDdGXhdZpwBAkryvWOI69VrwH+sQbMcACKri+OnyfrKcjrZOAYC68eskN06rNkxS4VsV1jX4NgZAkBV2z1bLLVdJboykltY5AFBLNY/vzXID1XPeF9Yx2DEGQBhMjO+lXD9SUi9J2dY5APA95n59rO816xB8PwZAmEyNH66YnyivHtYpAPAdy+TcMPUuvcc6BLXDAAijmmuHJ0k62DoFQORtltcENc4bpyvnllvHoPYYAGE1vXOOKrJ7yblRkppY5wCIHC+nh1SVPVD9X/jEOga7jwEQdtM7t1RlznBJvSVlWecAiIRF8uqvvvNftA5B3TEAMkVx/nFybrK8P9k6BUCG8u4zuUShVpXdpUIlrHNQPwyATFPz/oAiSQdYpwDIGBWS7lTCD1e/svXWMUgOBkAmmt65oSpz+koaJqmxdQ6AUJuhWHV/9Vq4xDoEycUAyGR3xPdVtW7h2mEAdfCunBug3qWPW4cgNfimEAVF8S6KJSZLLm6dAiDw1sj7UVrdoESFc6usY5A6DICo8HKaFr9C3o+XtLd1DoDAqZLc3UpkD1O/57+0jkHqMQCiZkLHRsprOEhOQyTlWecACAL3tLwK1Lf0DesSpA8DIKpK4odIfizXDgOR9oG8u1F9Sx+0DkH6MQCirqTrqfJusqSO1ikA0maTvG6Tb36L+s3aah0DGwwASIWKqVX8cnk/QVJr6xwAKeMl9ze5qsHqvfBz6xjYYgBgu2knNVeiaoikAZJyrXMAJNVCKdZffeaVWocgGBgA+F/Tuh2m6sTtcv5H1ikA6m25nLtRvUrvlZO3jkFwMACwc0X5ZyjmJkv+KOsUALtti6QiNcgao6tf3GAdg+BhAOD7bb92+CZJTa1zANTKDPlEP/Vd8JF1CIKLAYDaKe7SQoqNENcOA8Hl9Ip8rEB95j1nnYLgYwBg9xTFj5Xzk+R0inUKgP9aLe9Hq037Yl38YLV1DMKBAYC6qbl2eIqkA61TgAirlHSHcipH6NpFX1nHIFwYAKi7wqNy1aJxTzk3WtKe1jlApDg9JV9doD4L37JOQTgxAFB/U7vtI5cYKflrJMWsc4CM5rRY3l2nPqUzrFMQbgwAJM/ULsfLxaZIOtE6Bcg8fp3kxinRfDKP70UyMACQXF5OxfEL5fxtktpb5wAZICG5+1SVGKSCspXWMcgcDACkxvTODVWRM5hrh4F68HpWsViBes971ToFmYcBgNQq6tpOsdhYyV8u/nsDautTOTeUx/cilfiCjPSYFj9FicRkyXWyTgECbLO8JqjSjdd1pVusY5DZGABIn+3XDt8qqY11DhAwM6RYH/WZt9Q6BNHAAED6lXRvrET5QDndIGkP6xzA2Mtyvr96l71gHYJoYQDAzpSuHZTtxsjrIusUwMAqeX8zj++FFQYA7BXHT5f3k+V0tHUKkAY1j+9N+OHqV7beOgbRxQBAMBR2z1bLLVdJboykltY5QEo4PSWpn3rPf8c6BWAAIFgmxvdSrh8pqZekbOscIDn8e5KuU5+ymdYlwDYMAATT1PjhivmJ8uphnQLUw1pJ47VqwyQVvlVhHQN8EwMAwVZz7fAkSQdbpwC7oebxvYns69Xv+S+tY4AdYQAg+KZ3zlFFdi85N0pSE+scYBeeUcwXqFfZ69YhwPdhACA8pnduqcqc4ZJ6S8qyzgG+Y5mcG6bepfdYhwC1wQBA+BTnHyfnJsv7k61TAEmb5HWbGueN05Vzy61jgNpiACC8at4fUCTpAOsURJKX00Oqyh6o/i98Yh0D7C4GAMJteueGqszpK2mYpMbWOYgK95Kc+qt36TzrEqCuGADIDHfE91W1buHaYaTYCsnfpFVld6lQCesYoD74QonMUhTvolhisuTi1inIKBWS7lSDrGG6+sUN1jFAMjAAkHm8nKbFr5D34yXtbZ2D0JuhWHV/9Vq4xDoESCYGADLXhI6NlNdwkJyGSMqzzkHovCPvBqhv6RPWIUAqMACQ+Urih0h+LNcOo5bWyPtRXNOLTMcAQHSUdD1V3k2W1NE6BYFUJbm7lVMxVNcuWmUdA6QaAwDRUqiYWsUvl/cTJLW2zkFgzFFWrEA9571pHQKkCwMA0TTtpOZKVA2RNEBSrnUOjDgtVsINVd/SB61TgHRjACDapnU7TNWJ2+X8j6xTkFY1j+/1zW9Rv1lbrWMACwwAQJKK8s9QzE2W/FHWKUipmmt6qxKDVFC20joGsMQAALbZfu3wTZKaWucg6RYo4furX9l86xAgCBgAwHcVd2khxUaIa4czxXI5d6N6ld4rJ28dAwQFAwDYmaL4sV8/VviH1imoky2SiuTyblbvuRutY4CgYQAAu1Jz7fAUSQdap6DWZihLfdVz/sfWIUBQMQCA2ig8KlctGveUc6Ml7Wmdg51wekXVif7qt+B56xQg6BgAwO6Y2m0fucRIyV8jKWadg/9aLe9H8/heoPYYAEBdTO1yvFxsiqQTrVMirlLSHcqpHKFrF31lHQOECQMAqCsvp+L4hXL+NkntrXMix+kpVfv+6lf2tnUKEEYMAKC+pnduqIqcwVw7nDbvK5a4Tr0W/Mc6BAgzBgCQLEVd2ykWGyv5y8VrKwX8OsmN06oNk1T4VoV1DRB2fJECkm1a/BQlEpMl18k6JUPUPL43yw1Uz3lfWMcAmYIBAKTC9muHb5XUxjonxOYqkShQvwWvWYcAmYYBAKRSSffGSpQPlNMNkvawzgmRZXJumHqX3mMdAmQqBgCQDlO6dlC2GyOvi6xTAm6zvCaocd44XTm33DoGyGQMACCdSuLnyPtJkg63TgkYL6f7FHM3qGfpcusYIAoYAEC6FXbPVsstV0lujKSW1jnmnF6RfD/1LnvBOgWIEgYAYGVifC/l+pGSeknKts4xsEbej+LxvYANBgBgbWr8cMX8RHn1sE5JkyrJ3a2ciqG6dtEq6xggqhgAQFDUXDs8SdLB1ikp9Iy866++pW9YhwBRxwAAgmR65xxVZPeSc6MkNbHOSaJP5dxQjvUBwcEAAIJoeue2qswtlPzVkrKsc+phi6Qiubyb1XvuRusYANsxAIAgK84/Ts5NlvcnW6fUwQxlqa96zv/YOgTA/2IAAGFQ8/6AIkkHWKfUwrvyrkB9S5+wDgGwczHrAAC10Hv+Y8qpPEryoyRtts7ZiS/k1VOr8n7AN38g+PgJABA2d8T3VbVuCdC1wxWS7lRO5Qhdu+gr6xgAtROELx4A6qIo3kWxxGTJxQ0rZihW3V+9Fi6x/u0AsHsYAECYeTlNi18h78dL2juNH3mhnL+Ox/cC4cUAADLBhI6NlNdwkJyGSMpL4Uequaa3V+m9cvLWnzaAumMAAJmkJH6I5Mem4NrhjfK6nWt6gczBAAAyUUnXU+XdZEkd6/kr1Ty3vyoxQgVlK60/LQDJwwAAMlWhYmoVv1zeT5DUerf/eaenlHDX8dx+IDMxAIBMNzG+l3JUIJfoK7lmtfgn5sjrZvWdP9c6HUDqMACAqJgYb6Ac/VgucY7kOqvm1ECupHVyelde86TEA+qz4H3rVACp9/8BzjBHoRti/gIAAAAASUVORK5CYII=;rotation=0;" vertex="1" parent="7sJCd6B2Vx5864JhMqsD-14">
          <mxGeometry x="29" y="23" width="55" height="55" as="geometry" />
        </mxCell>
        <mxCell id="7sJCd6B2Vx5864JhMqsD-20" value="&lt;b&gt;NginX&lt;/b&gt;" style="text;html=1;strokeColor=none;fillColor=none;align=center;verticalAlign=middle;whiteSpace=wrap;rounded=0;" vertex="1" parent="kEIAtn397vdBtJ0K74f4-2">
          <mxGeometry x="191.75" y="374" width="49.25" height="30" as="geometry" />
        </mxCell>
        <mxCell id="7sJCd6B2Vx5864JhMqsD-42" value="Public subnet" style="points=[[0,0],[0.25,0],[0.5,0],[0.75,0],[1,0],[1,0.25],[1,0.5],[1,0.75],[1,1],[0.75,1],[0.5,1],[0.25,1],[0,1],[0,0.75],[0,0.5],[0,0.25]];outlineConnect=0;gradientColor=none;html=1;whiteSpace=wrap;fontSize=12;fontStyle=0;container=1;pointerEvents=0;collapsible=0;recursiveResize=0;shape=mxgraph.aws4.group;grIcon=mxgraph.aws4.group_security_group;grStroke=0;strokeColor=#248814;fillColor=#E9F3E6;verticalAlign=top;align=left;spacingLeft=30;fontColor=#248814;dashed=0;rotation=0;" vertex="1" parent="kEIAtn397vdBtJ0K74f4-2">
          <mxGeometry x="159" y="76" width="345.87" height="119" as="geometry" />
        </mxCell>
        <mxCell id="7sJCd6B2Vx5864JhMqsD-43" value="EC2 instance contents" style="points=[[0,0],[0.25,0],[0.5,0],[0.75,0],[1,0],[1,0.25],[1,0.5],[1,0.75],[1,1],[0.75,1],[0.5,1],[0.25,1],[0,1],[0,0.75],[0,0.5],[0,0.25]];outlineConnect=0;gradientColor=none;html=1;whiteSpace=wrap;fontSize=12;fontStyle=0;container=1;pointerEvents=0;collapsible=0;recursiveResize=0;shape=mxgraph.aws4.group;grIcon=mxgraph.aws4.group_ec2_instance_contents;strokeColor=#D86613;fillColor=none;verticalAlign=top;align=left;spacingLeft=30;fontColor=#D86613;dashed=0;" vertex="1" parent="kEIAtn397vdBtJ0K74f4-2">
          <mxGeometry x="159.87" y="102" width="339.25" height="94" as="geometry" />
        </mxCell>
        <mxCell id="7sJCd6B2Vx5864JhMqsD-44" value="" style="shape=image;verticalLabelPosition=bottom;labelBackgroundColor=default;verticalAlign=top;aspect=fixed;imageAspect=0;image=data:image/png,iVBORw0KGgoAAAANSUhEUgAAAN4AAADjCAMAAADdXVr2AAAAkFBMVEX////SFxnQAADSFBbUISP53t7RCQzRAAfRERPnjo/gc3P42tvdWlvRDA/SAAD//PzplJT99PTdX1/87+/XMzT20dHwuLntra3xx8faQ0T65ubqn5/VJyn55OT88fHcVlfXOjvjfH3lhIXZSEnspqfbT1DmkZHeZGXywMDXNTfkgIHhbG3tqqridXfzxcbYREW71P/xAAAMq0lEQVR4nO2da3eqOhCGZYKAlwQRQUW8S7XFdv//f3cgEAiKbcBS4lk8H/ZaR3s0r5NMJpNJ6PU6Ojo6Ojo6Ojo6Ojo6Ojo6Ojo6OhrFtCzLjGm7Ic1wIf5stzwG4/N53nZbGmADRgTGmgbTttvSBBgpCUj9P3bQJU7lKcRruy316U8GVukbB8LkweWP2/RrWCsCEJa+dYVM3uqPW/VbuAiiEQafpe9BxvCv2/UbWKulZiTmOZW8bZ/mrntx56fr1bHLnYvMLsfbAXMeiJSMLstzVodwGix3EcfpcLJY3w7Sy0FigS5hrl8xlAX/ju2cDvt/mBDQMDbo/KfphKBg/+Z6nMY5fK7/utXiHDLnoWB/xF71rmHkbkDP5r0MhOOBuFtlfxr5JSJvSLOZMX0YfCd5bTE0QLsTxmMAnL+SPx6QqF+77Qn4ATvQqFUgmNMutzjsdP1bbQkazN6+omF3Ilqk7+i0reMRTjQvIEJCKu6y1cH4WRsz4TRSNdpGptZ9aaf9E9LRZzyW7Osn0QS1JegkXJjWZUwMTKS1n7ujTbvMQK8kLgLp4EcOd+7Dvm0Vj6EzVyjcK4tg8mH1zLdN2yK+wxv4lS2XWZD4rt22gG8ZHWuaLsGAmbQjL+qbE7WaR7lHm01kXRCuAxCY53404LucHdTRa4+6Apom4dRnnlT8c9OFMMiDNX+LfNbomMjQ4oAbCP03j7ujwE6uAWjnyRRxI4GynH64l4UT8XUZhIGqM7dLjqOfv/TP8FT4VkkJGuwOzs0Ctr/y2apYk2nxcK6oTgcYlzbfcndpQIfg669VUE6724Z5x2ouE5Ph9fHYctJRDK2sbQeA4VB0bP8q2Q7Dssxw868+66onJRrIeNaG91zRZF/AzUz2sIpXQfpxHgfNlncz7j5AHe8nC6ppHRJDbSM6WyQdB8OZhRabZRXbYS22nPk1CcjN0DoQmn1JDXtoJZk9yvJhQPrJS5MK6lC8pjPdoQ9RD78ZWvt4/tMzVW3kste7PDAxtGHcyVb3ObCHaDiWZAZ0UUEOxc92rqu3Q+i34y4pdsBbCj7NQnrzR2CXTNVz+inYL/sKq71UrldUN4y8gD0TXt0hbZyuw+14Nwwbb60JKcec+1zfJJE6cyk84SGcbz0sQDHa7IWP8HwWNxsQJ9r3wm7FgAn3OWdoKST5AdNVqb0MmjOYi6ubFWZyZy/XgiCHJlMQ3eSyd6ILvMTWL8HGnYE2iBzc5iw68LA/f6GKFi+gmdY30a6JfKc3lXfv5w6TenhVdE6IvMoEVDnzQw8JRY0Hk/4YFPhou8GVEPaasLe20d8i5WW8S8RatGsa6iXZ98O7ftuNFucgaDykf62VZP7QZ203WpjNTtB4EK0LHJRWhMiU/PoOcyo45em0RumS7EHjnXTJ2XK+RNMPkGQU5jRU1cYvMrdPBfeBgFXiuLH9QOK9LZ6RoF8x3jNzRSEOfm+zzRUQDTa56jJzC69S6Sg6oyPCj7WhbKvzB5iB4DqomCxqMYtSiZGg28S7F4uiKWYg6DYlrn/7BlfQeMZLGm/tVwjHXo+V8ELoRSbxIu+iC6HZK/ZN8VXsoO2m/oR3v/60RI2n0A0kqae6aMk6uOlhA1HjJSshLHNxO0IIZgc+n2weRRO39KxJHyTuom5sKQPeP0+ZQkd4mzmOn82phoxQ1gxSuj9i6KCFySg0x8L1frBO3ZAu52YJ70UQEBruiwYsEaTX2yQfgMhExhyEw3sREncx4YAlzjvkAQCCQEIHwztJYxkboIrxDlylknZuW8s9Hp/qA9o3z+KVtnF5h3NMfw4Zo89CbEndgy1eJYAUOql/Jp8hYRbCOvKmolmFCiWNxntSJTCkCUAJ07f9I85L2vV4P69foTwnG20XFSlIxr0vs3/YASTlo7RvCu9Wxv9DdpLkClg7S+g4IzbOZPhOMML/enEmr0KlNMnLINxA5rPAthtotPqrX6XsT+PqIExV4jOVEaN53L4qtdLI4FfqstZ48DjfH6K8kae80E4lpVKhO/JfTN5avDROifMsr9AhOdxK1dIvl+IULkBK5C2lPmJ4h2lUOkCDjzKu8B6zqHaC5tXkVVgKvaC8dcUjNFSenIFmGcL7Ckzev8i1jD5lzZHdYFbsm8nE4BAou9lEPiy/4sFDKi9yR0gbyh1OUyotFmLQLFJ1icsAyW4g31L9BuGNhUye2meBjgEg3znYAhvhjYVMnhKZ7MR+FJB7mqiQ3mTy8IKzOfKljkA/Kh+Lpav17AgHUmReP9iipZsccXolZAdWkCazvEWNqwTIR6/nfbBUIpF5dhA/SZOT7M2O5sm1NETmtbto7SYPPqYRZ38IBBGZp75ljZsg8qoP09kTmStcLFTjjpJCqmw0kLhzCpdNF9Dk3HG+Z1JLnsyJ9wLiG848+otcwrmpMS0osetsu+FiVEtwZiDSdsNL8Rb9tc1XPVdeDKWAlKmWCYDu/xuH+8HqNI8vaqwRTyfypJzKh7qCEMZ6ckmv3bPqTOpUnkR35WSYY15N1ME2as2Lx+DatpYSLH7xg5RoLNaa9SKIjKWAaz4npk3jm/hrysMyFlo5fIAZRx5VLmMpgIiEm0SXQpncV/UELvfjSHhIoyjP69nL2rdR3t42IwP8ZoLhR6vRuo5Tzl2iD86TxAkF94krGyXMsIScnPhsYW3Pokh5CiXQc9cZb+8Mn7AeyHcc8fzua+lVkgg74gcRy4iXfIscGWxpbWzbW5wOYeAD6ve8StUsNxhLu7fNHzIh1SNQrPVoYT3jOJN9FM4TSzgPOhWuWLuHTPjdFwnrxWtHnBS8My3O/DJdJ5pQMxORgpDDzzT4n2zz/PUpeXHJ8YWfSGUL0+omWlIMtedx5/2kSy+JXyJXDtiFDRjZ4pjwyVvCwe0d2LQXXz0dtC2oSJ29r4K8Sc+0+wv3upoMDh/7z1CuKHv7pDzDlzAjkVPl6EK5+aQuK3smoqbopY87k4XK9Tq3IAnXtDlPy5PxbFvO8/Kk7p3Py5MxoZTxtGtREJa4dz49MUTLvKO8U5/4KfxvzCdvjUQI6Gm0ZdsqHvKB1Och0lZz2v3fQN7B19HR0dHRQXHcnIvTt8vDfstbj2L63uZmbrNHCfxi1ox4eEdn9FH96IP6/fV67Xlew1UVIdEzMFLfg8HiTqE92M5UNQorVXW2HJ4Ky/KBRgMWNGUveMNhGJ6n29JEtbnYBzMW5Pi+P/MbzmcXdmURMjCQ3akg0B6ogI00rjSwDuSDS9IOkmBVH7MXRqDrmqZB2dXNX1uSfxT9uPIn0v8eJZvOGPgks3m8fZggItzTTtLsvcbJS16Y3ssbwt26RG/4ybqle+r8nfVldywgP9NfQV7Z5fKtyFP0HdtAdkqfxK1ll6KLyyu94rodeXl9e/nBG6Qz84nLK91ja0leVgDOdsYMnMDkn4rvC8grvUmk6adaM3lpVS5rPvJT959W0qHdlhKwX505F2F5WbWvQYCj4WMCqTx9785jWMYMqWmFdLp1xLbL2XWCNeQpySA2lvTxpYyGc9upPFassU+NmV0SxOSl77MHnVWXt0n75t9WtzJ5aUH0J5OHmpNnmwkNK6M8knfbOZ+WxypDkJqM4u10P7k0LvFGHuuc2SVBvyYv299GqQ+OS9oaP0rM5A1GdKSfU9eCl+Zvyyu7bQOrDZ/xGGa+hJI9zpNF8r8nzyt7EDZWms2NZtN6EsKz/8iikht59ScGuri419fwtmB51JKXFaXy8HnyFjNIjz/UkWdOlPuNmobvey6VB3lNH6sI0dKildQAdeRF8bkP+s1VU8nB8L+UZwB3ddyDgpd68qIIPZxpyRPlmQ8LGt31vJNnwOzKteyX5cVlwJGPXrirIPnihu9xu5WHdm5hLqov74cvTs9oNXwL35318Efh5/x162UkJ+z+yHokK1cEnx8NdeUh9d8yo8R9mGmB7J+MPbS7qpnTJp/cNzJ5bDkr6jmjOAEzkvrA+XaaE6jpnzVceD1Mn51rcQ9J1LkLilN5xnFMmaqC816hv1N5E9Byssp00uyDMjN5vWseVHApAha1LNJFTFoAU0Ne+Q1vDV9akMvrzbljN3tmPyaPBWm/LK/pK1A4eb15fv02zKy/kIeavnGCl9e7KhpLj8M+0TdOXsnl6XRlAbk8uj0B21zefUVIuTykgXHqNcuQxA3AqbH6M5+hJC+NCXUFhFWjjmcUn/3qbjiMCbNDYCNi3KKnrqUIUcenxk8bDWnnQ6wvenkVx4i+1E8zWmyusL2Eh7OV6YxucWgI66w4ru6X8xd1Ism+3agrSeno6Ojo6Ojo6Ojo6Ojo6Ojo+P/xH4f33C0KFztRAAAAAElFTkSuQmCC;rotation=0;" vertex="1" parent="7sJCd6B2Vx5864JhMqsD-43">
          <mxGeometry x="257.13" y="23" width="55" height="55" as="geometry" />
        </mxCell>
        <mxCell id="7sJCd6B2Vx5864JhMqsD-45" style="edgeStyle=orthogonalEdgeStyle;rounded=0;orthogonalLoop=1;jettySize=auto;html=1;" edge="1" parent="7sJCd6B2Vx5864JhMqsD-43" source="7sJCd6B2Vx5864JhMqsD-46" target="7sJCd6B2Vx5864JhMqsD-44">
          <mxGeometry relative="1" as="geometry" />
        </mxCell>
        <mxCell id="7sJCd6B2Vx5864JhMqsD-46" value="" style="shape=image;verticalLabelPosition=bottom;labelBackgroundColor=default;verticalAlign=top;aspect=fixed;imageAspect=0;image=data:image/png,iVBORw0KGgoAAAANSUhEUgAAAMgAAADNCAMAAADKS88fAAAC/VBMVEUAAACOAEOOAEOOAEKOAEOOAEOOAEKOAEOOAEKOAEOOAEOOAEOOAEOOAEOOAEOOAEOOAEOOAEOOAEOOAEOOAEP4w9qOAEP///+LAD75xt2IADv/9WH4wdn8yt+IAEL0ibiQBUWPAED+zuL2jbvyhraFADX4kL6TCkqXEVCcF1WSATrMgbj//mL1hFj1iWB8xV72vNb/w19Hyvb++fqg0Hh10vfPhrpXzPb/y3P2ncT1fFD+zn33j2anMmmeIFyGx2Rm0PeiKWP+xmj3rs781OX88vaVDUOvQXWrOW/5ttPKerO7WYhzw1j+vUe+YpD+wVXGcK6zS37srMj2lsC4U4M6y/n3pckEuPL94+7dap7QeKCkJUOcF0HRjb7TXJL88WH6z+Hvs87YiKuKEEv+6/MCwPrrfq6lIF7DaanHZ5P+1oas1HnyuNLKUYmuKmf+5l/82uh53P62NnFgwFD/yEHdkLLUf6WZ03P/0WnMb5q+QHr7q0bTmrWTzHB9LmysM0r+vSHy3+iOIkksxfbln775mGzs09/jdKbr7mPoyNfppcP/6KnDSIG73GHMiqnBcpfb6WP/2lS1REvDWDTaqsHgmLmp1WD+zFX3hUuwNTj26/BCxet4odPGfqCh2336sVn5nE3yb0bRbzIbw/Xmd2qFHVw/x9t+zWDeqFvehTNbu+i7UlBK0v3jwNEzwemF0KSe04f522B9dqmJzYrkf3zrkHWJ0Gjlu1qHY1KRPU94cU2ENUhAquBIm9BbyKzWcYZjRIDM4WaTel+Fo12/ZVSfo9Jtypv/4HH5pmruz1zQkFXfZVXMeVKDTUvolynhusz/8cOiicFyzsDcgpKbvXP8uW6d0VrpnEhcodYgltL/45NzllH1rid0vOb/+Nhdy9betMiJkci0lsZHxsTEebdvVI7OWEj/yCCUXlp3slchz/0Wvd2IsNzBjsBhhbZOYZ2ZqG49eLSX0pWGWI9pwYaCSYLSfmeckWUmsugzwLzpkoxHuZbuuoa5qFvg1WayMzM9AAAAFXRSTlMADOvgxyX0ZdNTGTt4+jGHr7pGlqN89B19AAAsjklEQVR42tyXz2vTYBjHkyZNmzZdWxueVQMPqRdBXpDi2YM75OTsH5BADp78ATm0h8mQgKeCCE0Llp2EXmzpKafCdhICktDBTis42FHwf/Dg+yZO67SutKDFzyFjCyz98H2e75tyf4+0zP0fKEXuv2BLynD/A1sCbPJo8dySyAJIW9zmklGWi6MECFme21zyhXL66rYqFQBMXeU2GREE+U+jl1dKAiAaUYSbvOtpTgFY0Ea5vFwspwrUAs0gJN1UjttcKpVMAQDkX3LIqOUsAoCuW24w9AkJ9Qq3weRBAjiCVH5+sRWaA4LZDaLhxHccWyNEIwGqRVVVFXkzq4sXAODwcK6Q5LKE1GJKU2BoCSQ0gIL0VqqspBc04DXu31FhIs2ji7lJlwHQGE9s5jDPGKmFblmWTmUkUbn2y8LwGWk9kXR6nXrPAOjHzbNHyWEnpwD1IKQSP0MipHrRJAzDyTAam1RKKBXluSfnMuK654wgCUp6jXMEakfN5rGuJlZoDqnGJchQh8DXyDc0ezJ1DUSQUmJJrShKpZSVAKDIrUUBAFPFVVXSQixyBoU0d00CHDtE+53HhZ4dX+kvYdQ1AClAYVf2H9ZCgIPebUwpq+Way8YizSMo0sXHgNg2+7hzqRASAfVINBzP+/5n2x8GXdMydN0wuyaAwK8nUkRz5wtVycor1ZYIcExFDmtihXponTdMxJ+GP/pqjFbskUBF5xyJE04orZG15mRR0hJ2T86H5g1QV8m2zForni3Arta+09EYrh7FP4k9NbDrE20RbGUcb2QgSHluTYpQ7Z1sn0zpfK3wNlSKRd59fglo+eT0VGOQAONtIaGLRkQ0z2tRPIel8YHi03MymTKb3RkYAKCu/YWBz0J18PH87peDGpS3VhA5azZPT49qGJHOnXa8zmSKgG5IIhpHqPV3GbFKPFxMZW+v73lev0Vv7PeAkRVFUaWVvOiLwBKHDG2b2qC1tzMApEt/lXbmssijJhV5fQymrb0+1d63mUgErInHYES202j0PYbzDY8ZUBK73ZGJc4CgyvzvHlteZvIUALDM22j1DvCqUHixeGnZWWm97hyCq2kvOm267ImIDohmSJwd33b69XrjAqrgJRbMb9YFpM923W5v7LqmpccvMZl87tIil2GZWeFLAGgdDL6cPOndvioUFeSf6rd2mIiga7ef2m86WjJa1fsPoWpNyN4HzaknMIt4T1gs/Ua/scs0rE+j2T6NhrE/Gw1YEyNkS/T18ls0/LVKCiR+2RI1Rq2T7W1aX38MhedVEHJzY1l49JmKvG+fMZH3LJBk2W/cu/68isbwg2YzCX8vvjqO368nubydBRYa7nSXGSUks7Y/+xSf+yClsiIjVWArtGQHZ5nJx/Pz7buvghosDmWrWJpvfF6sHT940Gx2YpFOu5O0L+nSRJ7dfFzFW0Pi1+s7DvX4QePtbDo2DXM8nTUu2J2j9ZUz8wtp647i+DY3XbV2Xa0nN7fmciME/6xJWtxDSKLBoFHUiYqwYQJudWM2DNyDdRG3JZNl2IZszmxZMhhJQyBI6UMhsamFOWeZYalOEC1TkT6IInvYy3DsH+yce2P+zBWMX3JvwBf5+D3fc87v5yuPQlMWcVkW3iYTnD3uZQ2ue6bpxZXt5u0NDAqcfUL3KC4ozV4mygA2EaRjYhJBcNZN9ItTz84xNT2Vsm6WM91dNBqH7hhtAor4DjxEPQqQL4gQGBsbCwbHCGVMFLGQMVNms8WCAdqdtnCnj739PYOehLZsXy175IyFQVOeWIQZS4oADUEQ9cQ8gaSn3B0zgchklxpZHOs225ARP0Z8DdmMl3O98fluonzBABIF9CqlVuvz+cbEKiOaRxigoJ+ukvIhAVNtLcNZDqyhWkrKE0AGaOEWOWB8n0AM/e5N7lZmXN81AYGUy25UM5x5bdFmRALjHXyRMixB7SEEBictMiajoO+mH6iyjk9Cpz3e7A9ZKfN+NKXof0HG47ROiPMHZjsIZL1/fZZ7eDGz7nIIckNWXl7Zx+DmYtOQIbYURhomgH9+ZTCQdgcVCKLQEgRMa9fCAaTqI4/EhxzDLlezRLLhkQtJObq2L23yQIhFyIGFJYJ0zNJg70+BPGQbG+DLyvJyqbSFBe5AM7SoQRk12SgJpVIfuBwQQfAbCbRERihaIkkmdzEmJkCO0vw2Djqo8qE924prpVmyMS2Ho6aUlMpn9wfgNHLQkapDBPFOdixx/1z0ThwebNnPWuQEUi7rqaLiGrJpSNk0CZV+zWgM+gLoTiCI5ohSEs3NXZyNuOALfYv0bL5L+XkACO0Nb7isn++FAI62ryLgF3BBPE/5gPsUEJLb23F/YP3i+mRqVTfD4272GoJgcY0yaEm/JlfI4Vwz2i77fJdtxoAKEx4U8yDA7FrEI1dapadOsAoDeJYdjlem/Th0cc7/x5QX4b56YQDOU10Rh1oAWY/sD9z3XlifF0Hu8PzXvYorAojs0tssZ7fpdLockrWEEV9ardG2pkcbAphwzIZoih0ZsO0CwCHMSS5bTxcCx5tMtXQZonPRnM8+p5zDeEc2AQpKiUNNIGqBZhNmvRe87lTTkldLOhUjBCLmHWJWHUmjS4PQo9SuaYx6rTJhxNpSUl2JHLw9SSFJUkKIpfREl62nCkHYIT3LixJJndXDQtbt7lng9yOzckAtqQUhCXJEZmE/A/IjUy/55hBEeqmB4W6JILk0Km1Co3Eqlc41vTKjKc6eJKro3FzYp03umo8UeB4DhfNvORyOr1zbEsnKgXDqKRYhAeIR9RKg4ikKelD3lzoyIA/YXgS5KitPWcJCtS5XyKJLaJXkilKVUKUptMokf4swlH2jYcEkZDEDQMFJ7rzOPI+934Gyulwr2xshjna2U+IRbGAhoh5PcZD2U18Dmwjink9tWorPskBkbzSwVFvWXJQ1lTKh06hQRHDIorIjB2o1qvWFw2FtKvwY1fxJqA2Lntg2XK7FYQ8AoZQVP3WaDIksgOCLqLhAFJldUiPIvNi1huyKTyXvs+0EQqpsZ5kHVlQOjFOlWtMlVIKCQcQRWZLCOxr1KecGBwdH56II47tpRpKTnOmLzwokNpd1eMsDrD9Ew/XZomdgXG2IxAE7V0RtEAjicoFkaUHd4b4wOZHatBRfIEiLNAUi+xLYKWu2yBC93qnT6AWOAHKISuHgmziuhpPJJEYF68vOQUHJCe90TX5PaNdv4kwHKysBP5mCMyRiMIzL8UutRhIDgcAsmrSJP3fT7iteWCPIFbabQMS41zB8dXU1ngNvPTg4iP2tQ5aEXp+w4lDUq/QBwZdcFuJAL8Lh5M3wIMbFZz9hdVEZcSSLZ9kldK9aAEzIzMwCyOMRgyCEweCLWG4DBSTVfeE2gtRXIImoFgYYhkUpFAqWNdmnHhzEnE6d1alHrRFHrsLKKHKEqbiQYg5f0bAZl7/852JqlfIvL285hnVWoXvJyZK4IS5HHKIQWDD48ntkz6SBCksEYaquS64wDWkQWSfLMFU1DY2kmmoGaaDKfCv2txNJnAk9iaw55IiqVF1d0dWuLuQgFHyuzs3ZGSg9yX0oXa1blveE5qXD/hVjGSqv8XH5PeIQtQAktMQ9b5h0H+6+LIL0AN+TBrmqqP709icfNZM+uf7F+531PMMquJqppN6JMNkSQRCir0vUID4YevSnFRg6W+SvcwWcKbTnGN7A5mVbrh144JFzgL7E0yAz8doPv5NTqU2se93ebBBpAzNSmQFpbJZkq/mjLzobAY0xIUsOSTSqX41GuzJqI1+6drpGV/t6axgmc9/+dF57Pe9Z3rLZlkN+puV23QYeOWlXXEiTjNf++pdJPq72Tqrd6zmONF1VtEpTlkh7Fa2SI/r68WfVGBsw76IthzSxPvzEUm6M4tPe2tjQ0NDY2t1O1nQ38PDM+aIzz50peqE4nzZMez2eGoG3hGx1GJSAH1D89zMCysz3cvj5L+xiarfX4MZbxolJISPAPpY0vVOvGK1MkdQr2iV1qCMs77fyLP0PKOwUWdANfd9qdKeNOObmdrqwBkUBX1VT393Z2d1YDVBYCM+fy3egYORDoWmHY9jmqsPuhaMJdY9MmUFDPnz123ty3uA1rHsN/Rf63f1C+8WB2CS90cCOSglF2sMz15peRzU1vfvaa2/m8Dzu5VkGUVQCSWwkFmuLjey0zfXt9EW72loZyIh4qmpqamhjyT/1ZQjioMjjIQWVMHHUveQDaMpMXF7761s/IAgyuWeosrwTVFomtlXyWkVlTws0XnlDWi4bge7yirTKpbKmbJrr7VUCCuV+dVX/50isra0v3LazurozWIUgucKUnH2hpLj4TMm5oqKiUyVnjk30Ag35PQJZcVkfWVj7tJ8jlCXDAi8f+PnV37CNuQ0fzH9AZTU/L9w8APNTXUW5THqtvbXzhlT68bVLaExaAo606V2CSaGQK5ak03nlT/ys7uxEsbpG2l5qZ+CoCspOl71YUJryqPDZspJjDxTOPL28tbX1CCNvmtve/oqO89SIofa7V38xjDO/T2La36MxMuG+eBcbAsM2NjdV4JYlq3jnHexaQlZyJViTZrmOBcaBPXwthiAjOyPhvjbUS70sANB9Y0HhUWdYhq/CfaGKKTxffPwhT/9ZRv89Wy78tdi9gISGvPXHAj/wz4TBPfEyOoIk/7JuZiFKRWEcp32P1tudmw6e1ukaVCZGDw1Jy0wLQ1Mjt32zS4sVEZT0oJC2QhsVQSk+ZHMpKZWkIlIxQXuICsuHKQoZLRJnptKWsaLo+66WVJSX7I/IzDz58//9v3POd+58xRBpKWbB0iqxYf2E8DuMfMeGAsqDOhqmeU3793+6Nl/56BpyoCOkZ3+8++0ysNegrkUEAj4QRa22rnFBA3TmhrrxsA2TGBMU7LwuPYVDyhacEH9Az8EQngt2EsuZNcYzIw0GtGTNSfCjcfhmemyTTD68vNCXpeIaM/X0DAYOxRc+XVMqHz1SKhFkU80EeujAvqAefYaJIGLetXUN0IsRNRa72thYDyQ9pHSunricKy69xMjDjhj0pA5jggnhomFy07jmtunQmtuG24fwhoepk8nly2vGavfJwQ5JLLNFW+YcmwAbsbvXNMpHu5UF1TfNIHS33r27UTSKjK+tb2pYhJDYoGMtj0PV2JmlDfD6UCQdvwkzCWheCHJnyqWzjAINyfJcm+kmuXf99sijZ6D5Hhp5Q0HB9Fouq5Kv21xbu3kdkEhjWbsU07L3+HiGOjlfs359EWTRImXDjAk14ymIwwRtY8Oi+fBHxHgOLztwsASHRTD+HCKpssIOJFlx6tL9+/cvnVpRPffsXIpA0jnuo8lC0tdNh0YeNZ4YOXHkyWoGJ4wgWEH27cbdlnQUdOVKHcNM2LRKo1F+l0YzH4IAaZivQYiC7LGDMb/d/5ot9LFevbr+2RLIWHH+TlFvjEZTGh8mmUvwgunU+RUiBygaV5C00QQt67bJeOIiRStwnIUqNSupKHJ0ZeqxmrGKJg2qxAIqUYACgfmtnD//mCLFjty3x58nRoN6fa8sBAGlCcTi1HmI/P2V1az+NcdzUFmdFGTEZDLehtZrukWYBuD4N6ErmJUDdWPpeiWYUpDyZyGOn3veyoHMLHZnbAKD/rKF7Fa8+B4qgqiBJKzAff3Ll/fnVrPNj3m+jeM/GsMAYkIZj574QjH1w8GFClBmz4HQH6eYWiyvHyw/0/i5VuDI81kWZ7p9+/Yb1pPq95deVTzuDwaQTjXKEVZUr7z08umKIsdnqCzjG4pY3oAlKAtdA3cJFUk2HOvrdM3Y8Q2riii/WtPCt8Q47pVfNKRQNkN6D/3jFBiMIHC0xBEQdC0HghgdneOrFZdOVeNCyHGfP/JtJhN0LRIWQYxhmoIjSGXCqEB9HdYyiqZVq5Bl1S8wdt7fkQdP+Cwp3Sz27fWn0sKIN5MBcDXVHQ+z6oIcbywQeFwIoarecXzqTDQav0n0cSOiWJjGwspRqSk7po7YWz+WbgQQZPluTUdrh0YTcbo7WrhYjCsaUk79YAT8Kkyo7kMAhFK8cfwgoUBoyMKPPBdV+z76TGm9JQwoYXrCOrGwKkep2jDiHAzD6leVUFYl7f5W4NDZkrE8cGBCpDyqNoSCM5On00KonuL5A0FQuKCQZo7j2ya18W1GtTqVMhrj4fAbY9xCLy8VVsWmjJi6gGG0gFBUMhJBP6Y964j5k60c/1hPJN1j4fVHVnCowxaKRpJ0Om4wGJCkky5VFvzuEzwQHgcYwohH2/+FsnbqCCRJJjtEjo4kvrU/i3TY8/YW4GiWZgjueMnrTNTgUHemb1oslvQbz8Ng0IcgcJoCkGCU56NI5kl4sRHE9Yp9kgpLenmBJ7TZNc3l8vv9dgSJRJL2PO/P83xWz4qPG0sCYV9k3DmDw2FQx+Nqhzfn8fi8mBIFgDj5YJBvAy5QzoNGpcVZ7/8kkS0FEtYcaW9vj4AvyWTE7nfyPLwehwiRev2DIGarVcgZvJ6c1+FQG1BeL4QEJidOAEnxgtrr+xEdheQlRDrKjjlAok1GQMlYrLXFmsk4nflsiGKJuC8R2+vAshkhikDGavMYcg8T01QJwe3k2oSgz+C4iSDOlMCnDOpUFDFEQzZD0v83yeyl9TQxu13tEbvd3hLwB7KvzXoCGKDCU8L9evcqt3fH2tLprNaHXjDlISro8YIrjjAbcoLczqABop7w+HzR6DuqRtyyy6tk/5Vk1AEtw4Z0Gas1Yw28MLMgQqEK246BQ3tSA8uuI2iJLpWy2h7mvIaSvHGF2SkKHDHkEjMTNkEIiQmpki9eDjz/lWTdBJp94XLZbFar2x0AlCJHrx79eg3uic+mln0MFlNiswWDNp3Olnj40AMCWxKCLkTyVpDT7RXBcjlvJxm/b9Rw+fDNM3YVOBBKXgXteLKsUpJd42n2bXsEMmK36dyvzARdIV279SSiO2X/B2IYJRaXSpdIAEdCEAQbfCsgtzWgz2ZEEsHjBfmiKTPc6lSN2qetBRyRQjZ51vpt2yfU1NbtqtQUeFiKVL+a5npmf2ZTwXcKFdasF9Vsfm0mQ8ov7UWSyyqVCoKg9vl871CfwZKQCPLRbbUJ0AQyWULWj4IxnHadvIAxa/qy7XB5UNO0fmvFlVYl28kQfctllau9vdXu0ukQBuV3ZwL68msi7nqR5L0LSJAFagtSHRSg0vwhtw5AhHdBwQ3yN7NaGUzcZ0wGDtCscaO3KeDEumcdnhErlnz6RpqFhXEaLI2uaSqUriC3mR0qbZOCJM2vVJeBBaX7rlcBeBOstiB0rGDqBcssh+F77eFRGAjZ9DGjj9AM3bjurxRbcfgoLUJVByEm76eJUsGrKJ3uBStpcR9cICHE/MolopRkswFIKijobPBTAAYnw3fDVcIGkWPJmNGrKZraI5f/9cMtboI6lC/fKgVk3jb4GFdnzpxWVAHm8lVCyvSs0pGkQPKNlPN5bSIK4jjVqPVn/ZXN28dbs9nNJrs5BUKRHLYYqiYSCKQJpc0hJNuQELClFhKwhEChKIjopV5KPcZDUQ/5RwRPXnLw4E28hN6d2U26amz2WQdKS0lJPjs/vvNmdhvrfQOWsR1fkXefkedjL0aspSjZC1QQBPxR1wkpoTumjRqlZgbqQ3ZX5CFJYpoc3ANzad7/CIU476dHLRmxxIS17rf+jy9ohw6H61+a9ptwi0AC33IxGIxsUVqUAIDF46IkVv9+0cV4IycpWa5+QIzXDUgTxHBYkKYPHGfOeVSsyyOSWeEYBfwCttY96n/BSB2DwHWBg7qlmfuBlZFDnsvwGyW+mEwW6uWX6ZMkUmnLu5tFU+KqXItlGdTkyTyYw3J4FOIQkWuzs3MXr527hCSuAUb/8PCPOD2EwGqLDdhHBzYBhKm2Q/LSshoJlzdkwbQgqU9yiak0Db5WkyW3aUg+ABK0J4N+DziwbfQiwfQ4f9bnmw0dm9DtDxy3uvb+bjdGsvctCKyAnSKPgipEgVBKqmq5QbWUJZ18ipdWiWUJMM/jyvewQUK9wROw+YN+DzXd+8Q+Y5N0j7q9nq2h8K077EOujc2FgQTJi0pG34ERocQwRSJlIkTrkfoGoXozPvVTJhupEuU9Hi+XIb4hso9A10OIwdGdXICHx8751vpP5gcDaJ8Hg8E8Xoh7dni65nBkYcWmv8VZuh9AkuHgFiGNyKp+J0NKS9OL62JZSAtZkU/f44UtKoyDw7brM95badhnzZ2JdQ/Qk4DgmktjJxyVm1BDW/o+gNgqUgiGdYGul2XaeU1b1htxagaHDZnkuUDw1VDVhV/s9gzXo2xoIWH43cWYoDnoaQstkAvlaTEwAokX1FVBkLejtBMwhWqpJE2N+8hLSkzGScKS67+C3AIODhLfSD7WEGWSBQvHkD7MPVZsadtDkBUGH02NbBNBlumrwH5UF7PZKQmA2KtRmuIEQQc26BjDd5F/vz5CkY++zv8RYFg4hmux/K6j3qyzgyCbdq6r+GY0B+NbmlHSRQ+QcEMzwZG8LlmVnUPV9Yv8W/aZuavHot4bfv1uwzhAg4N+V9aLu+I4bpzbTHCLuxzE4kvzMIfOaTkxNd0jrBDZ1jBHeF2iQr4Lc9cu/ePNQbPHok5i0e7RsG/bsNsjoUypqowFglUQw5GRpLqKuzfI/f2U1qpGp4Pgy0naz2/J55DvN7gJ3IH8GbdDIXi+RKSHRrq95FfEX4Y2DojI/CwSKcM1018/CHyierVFS9L0XjBYl434P7gEqsPEWI7zf2e4hq6hub0XfuV3tWYrNkcCgz6obmM+gtDntPT9Im15gISDDeEFNwhcKIjc0z1kfRO2264RfafmvO0kSA1+hNZ3A0skTT0zaNuvRx+LXiBbtA2wvLasYgm+cronYK/cOAahxcDkJ2O1wLj6LqMcInAqSw2/RTMeobIcVrc1/qUjlnfbJZDtp7GZcxdu+c6egcMJ6STGn34CZJOhrj93gM0F6KEyGvRRHh6JrGtpbhCsc+ASj2bRkwbmQ9H9GhtVqgpz55p2ilQYyuE6+oPk85opWRT2Pp4gZc3kX0ZgeYAu2ONpEu8jPMnAdXcK1ShVXB2pMZRedYPSzIedjizv+lPaU+DwBkn9y8QIuut1ynWbw7QtL30NqucsXiXmnseZ9CBg/6KgwrgDXvRM155u5jTTs7AWEOTPoxVjbEoPrGKWeDTwnlNtrWOrnlhDHrQqdLeMgYBU4AuKbwSKr/xhz9Cy99tE99z7xCOQIxMglYqfsWnsWxTT/dQ2ByB7QCBVd7BCoSlZ7KWsJYkx5EvCaV0I6XlK4cxIZEvxrkGgO3+CsMpKbaUC308owDhsEq7+R2xdt0FWxN1XiYTIRk+4LMQl5SmMfR3ZDTeIQKi2YElNarQUjnYWdIfqL6SJ22se1DaVv5PA39Sj/1O3ZnwC5kjicXpnHFhidUFrKspSNA8di7hYqG8Ax0K2HX9j0swSR1EFPQwb1PWIiyJWOs9qIjsBvuGRJJ7TOpJKBNKvsEA5JuU1oSndL9GN54VgvWwQfIrSb2UMs+XnkGumBnF0hCCTm9Cf1V1fSypbFL+nzP7/P233bGZo7ug445vgUw8jyFE0BMESqR7kGockyDgIBoUvQRRJ1MvpJfAj9Fn6Cn2Uu9ae0SmbnOlu7r21OHReYvLn+v9ba++5zz9Ffq3Jb81xfR2aaZ89M59DyYDkrmTleIByVFJgLN/N7gGAhkkpZYkLrXt60sVizFc4l9ckHkBQlCuzEwGlePnVDRPIJLP2eip5xFTSF2XtxDLMfBt+Ml2nRhk+k6QFY+CRJF7HvPNOHpFrtBdJZYeRJIWBhJ1iCz2di2SPpbb2S5XD+4u9w9Jpd4i39nX1OOadgvJOIdZCtiwr/xtAqHk5UIh0Ye/5SVpWk4/gZ1YLDoOntnVe9LOi9k5wPjDZHdZwHkAEfGQCfYSVkL1y/OMQ/xtm3IPjQMM6wFp5/z381SZjt6gTDx9ZFQq/xMDQ25/snQrM1YEJiq3zQoAYdem930HWpIPl6OuoFYWoNSeW2e8iOeehylZjS2Cq9iOKOJAUYXnp/TxTI9R4RK8cSqJUpGr8NoUeku0DuSn8UxzS2iYU4/DFQiGAlqWNCAfHlGbseYVbomAhP7YgAuSFhyhddU8TguEY1sjVKHmjRiFQplw3sQdiKgl9EzEt9doNWU2jq3wcBY7ftzkMngtB1LYyqhVGpYHD515WA/Ea7gUJRC2eQ/oDY7OgfBzFZhVQ2DCgl6Q8DCqj6/wbCm5y6cbgTT7ZI5NCt/89DYxVrrGPWZaEOwRxBwWqY/3Gzq8+W8IbWOmyshv0q2BZaSpwydtEmBVS0FY5LWpDrUsfirbVaIyjcNSxi6wRpUVJ8ivHkCSl2AcN+qpdcBERhdBO31SlzV1akD6S/NC9XRTrVy0DcDBzzwcH0tw1LCis1E/ZySI8Hc4JeAhN5waWutHSP7KoXB3AiEbj0avmsYqFslHZ0iR/1uQggZg7Np8m2cFX4ALkOcJguqbI/SLoAzEruREbqOJg9wbKfUYQxoWiBGJ70bZY5oG7Z5LHLAi+AsnQuBw0VNWanlc+UlOB2KowKQqjmVLQQjmJHxyQ/E7JqBBe+JNFAQaFVbAOdez0OHjMkjkO4HCaDYPid8vUdPH+KHihvI1xi9B8TpJRIejq8wsCxAN9HpQ81QPDJaf923LUxtWZowvVKrZl7/5R8uZNqjYtTq6zMnLeOOoJCbS52K332dLtGgs+icWcEbsx0S1IIr/XTb6nCzjHp8ieU6omI8h77MgYsq5UEQZlEcoEtCwnIgaPWXI0BsbQYJQws7x/pIzq5eVsLit7ZKBtPjhkhezatq2QsYl/fjkx1r0paTAcD3ooAZ0z3jQo0tpbPst0iCS185ZilO0ATM2tzZhd+H8XcfUyzj+cD3ellrWA+RybWQLqSJz4Byk+jPw57CjIXx5z29pDD0F/mRVx9Y7bcUJpva8E9HTAgd+my9Z9HIlUjeMzCG3ZOYQsi2R182EQs5IbTTMpBfR0/AxYUQHwgEhyP4et64edSWgjFo2lKbC+Ilm96FrWZrxVVD4wXaLGifKBQc7+5c4QkE2ceIMYMazpRVqqKcirOEXvMwKtey2Yp0d3DUpN3FYJLEq7nPolD0c+g7dgB1cGEYm9K4SmzyMpd0fnNJhlJXGUTE1EHVykI/M3DOyHgDQoAtk9FlPIqhuz7Oa/KgWcJJ8xF0dgsSwn87oWaud245gIzUVmxt2YZUciOSBxVSMw7Pn1wVVspciebTN2gSAf6ciyyMQNaTks2ZzHVhUQyT/0Yogx8odt+UNMqranl1O512UjtlKOCNw2/R1nua5lKdWt/cPDvSPFVyGcXKC6kT7cUqTgQNpUvX7Nkm7gHJeLyAx0ZgxaKjdmKRcVPgdJ3ys+q1X9vT1KmVlKaoFN68LUe5Gd10BqbB6HGgJVFm768wre+SvJoqnjzVKUJY5Gbyu65oBYMhfZNTkYkK00S6cwcLk+AkDGxvl2rNiWQLo/xYWDLrpu5kswtiL66FXwbaz0XGHq7Y4kB4u/GYbDpCEg40vzQqEXhwks78QsZd/UE7fnuOWgXGQsRRqhENtDXKG0l1KCITlmrPQyAstR0O7U3LzYvfLTBF2ExyzthOjl88h5L28V9rRk5eXkTwJ5HbIajIRWx18i4csG/qK0GLNyWNm5QM5YaCUswAHZl37TDrcspW1AYIzcFwpFi7BDbWswVZA0JQmiaG7I4p317B8z0+62F7IXAXQiyTeUGtcvQCdxirv0TciwZpZhBZDlcSKpHKX19EPk/nBLaxdxNq4NYBydVCzLKhTbgyJ3A1PYsrPt1VcLPAc06w8EjFLvgJO4azRQoiz+MSUySAgRqiaIeanhbi8D4nJtX5EqSIao91o/kB2aqmoaKtNJvq44Y75Ywg0xM6t9ncDehD+QzRpgLrq/ictsBqwxAg6RVr3wlHtOd7IQTBK6lcvJknbKKHGBgNcnSu26VL/YyxM9g0h42fvqRMQ0ty83avgCoelIzu0Q4WlhfJhAlUWthwfYRD5R8IZY1gN9AyDE0d/80drpwyPcm5WgI7/P6IX+Nu/r1YQVGwnn+Hy7Mew+1PPUwEXwaUAAiUWsp9/0NrJTBxfJY3RXZABEQFiD50OpW7jXFNdZLH1fw04dY9bk2yE9PMs/clURCHmOvOj7G2xOCMgcsx7yahn0wK9VNXJAJGt5xoHY9IN0ChYmSQrO2DUJfiuB2aUavTKHJxiTzraBv5fg2jhCdmIiPs3ADCI0M6ykOj0ORLs3WAbGIwAINDKYjSdhUyu5+aN9cnp62j7SJG3f7Cq4xExJyGO4DfkBbD8IEFbqA4Gn3TCRyIudIYNptJWPZBGIyqxU5Klbt12kvz0Ns7SrVsKgug6UbqmuSYWT7MUVTjkXPU6V0wx0mn7kFqeu9HIfCNhpgj9MaLTTizzpJTRrB8izdVHgHJO9dSlXYfJEGC6bUbsk/nV6qtXPcG9r+g3Jh/gvfZ0kGeUaKeSUfswC9c6KLpV2Ij295wChJthFxkgDDtgLVexmsWkwrqBe0USmPVG/2FeUUivhUXCvYnK/9gXywwXCXR0bdrG3KaFV/45UGHABOFZPYL8TeTR0ymi+q9il+hnlHqM+wQ1MRRVjwFFdAn+ClvTN354OBESqIhCsuO08hQoRtKyZcYwdd+w6wotCizE8oXd9CitNsmKnC7vCRYIbJJfGvRLc10pmvEYxs/OBgGysu0DQ0A6EBm3OMSsovX/Ta0xNPCGmsYL/hanPyVwGsz3/HIHcWmVqRzOtzMi01/P8gSDTUCMI5FJxijY8LyIO5Pkpc47JmH/NrMJX+aV+QXWsFyxkdkknAsW9Yd6ZlODGkHYKJcU/AoLpzwWCbc2uCnFDGAgrPefTuR3Z6aUZKz5Esgrs+Up8kEjVyxIj1DTIbc/UjYxhUopAlDYZ97xDggORfLbq4k0O5BptNB7jp0XEgVSe9Ex/q1Bpm0xPVw6LBc40JmMJiMw9yjKXjwldp/nrhyIj5EThV7DOT3gFDwSS8iOR4mfhMAA5UpCZazGsosWBFC5JMTW4M32rZCUSVpFfvihVb/BO3x44znmBUQvP7z1A1r9AIEeGx1+f4abll9njsDA+Dr+ZgS9rA0lrUIgwEIwdncdcXR5Uhcl6PYmujgox9TyebKs8FnSzk4uglHXOrUh1g3z3eh6GhZ+j0+E6zHKmgDW3JJiL1FRCRD2E2zShcLa7fSi7JjygGH/cMKhQI3mdMT0DUcsBUrF3yxN02VMjnI8ZmUVgzbGxvAy2oEDVYFCXIxVLiKyU3SdeI3X5IAFG9fBoJjp3KswXuZwnWFvjucDwaLAXwrxo/CWPdhGonJeWCMtv2jhEcog7cAOBhH7xFoiECmEko1L1NvKYSNtIbnVL3kLbiqoAxCMhsrxP9IUeOb5LFqE4utmuIQ6BpD50pSwFpXhNnRPM7Dzy6FvKXaaN/F2nc2vSfWmvLkmbV15ApnkrDuSWz0pzk82BLdSaKiUClNybXgiPh8lv99OblBcst7xSLKvmsaGaFDy0XlGwoyAk5Mm9wk6fLPusSbTCK+NEPSaIAxsqcZngvDEreAy/ow2mojlVeE3P0rvRg6tjprazJ0VNqmLUXPJ8ZY4PjQIxC7qPKeyLEUaw84aB73ehyI3Lw0SHXsLEwQl3kzS34/EWxdVwa1+BUS7u73i5HID/NdKy+IrG4jRxZEkYgvt+LhQ8/eBCUSR5uwHJEC2Lz9C7adJqHjPdOsqeJpKbsAhkeu0XT0EaSY329W10ETLNbVrIQTzeocxZ2zuImgBFtvN7d3MX4rKdycH62tl6njHdqBxlu2oJOlPkr0NvnxUmtBxJ+exJgDbHJiDKDA1DxCXknPN8Agb+LwlZ3n3ronrMDPSQOzo/RhuytHZfqex1Fe0oox7E4SSF6bW5vgDR93a0i+BW2ZW5DLrjOIaUKiZzhAsj5d/8eopumRU3cXqe790W8aZdmseaBDK+gqzWWRxWsxoU+WuvBvEJeAyfTaIbNvlt/h++gcv/ji2EQtP5UrFg6BYuGRoFy8ow/HPE4VMkrZthiauD3TPQh9cpwTlCgQOX5JFJBPrB+ZkV8nY4JS7T88QRyl/nYnU3rlTWwcLKGRGW8Ko5be3EZERV0aO8w+YS0nM/5dE7g0iO8jgdFsbhFf5dMSrbcN0Eevp5BQsh7kKVrWT9xCKUDGT8m2c3grOC0atduypoYpn4vMFGHEkrVt0+aDG117lLMCyEsBzDyYNKGXHFy00Xwn8a52BZPoZFxyZmxrzfvSUuk/2hk5o+a94gAqYzym+K4UB4GvbBgS6SH2FZSHxHY8d4dGqShATirs/FD46jUIr/+hKeAW29leUF76DBOiNiFvBwUexrIZEu+dxAIySzi+PkjUwiPTwk4XduXpnGmJV6365QH4ADE6mfWYk3vq/EiSurfXNanfv+fXFuZeadKL6MtcCO/P7uPNxixUT72uAv4eQyjyjGV20D+jY3FQ6HQ3MLPsT+PBaM0jvTTyjeIY0ywonW/0AmQ2FIdXOz09P4TmgX4cJMgEqHlblCvM/xRaO8HcSC4D+RbwsrszP/rEWj6pNn4SvJVdzUxpVa3td+bgH+hJW9Y+8PUEd8F+lv27A+t2BEwEGqx0EfUMfBmcrVge90+dyCrEMFPOQNjCpwJutNkzl1zcIfn1s4C3+ZWpOHnOMHwIjuNgj9IjiwV2c9SOpDMLbhcAwOIPv1wMwfn1wWAQeeWRuGEQcYKiOOLH52P+dslvqIZa/rGwhjveZqA18/99kFKSp266YQaS1ZjfMDVy6M+cVPb1a8QmO4OtGHAQdEo1Fsh10YS5/eywHHFD9B6DiIJG9uxKOxmusaIKHPb1WQ0UN82SEn910jHusrw7018gsInxQZT4gDbWobULiegUa1PP3pYxXKRAhxPOe4MjZicLaVvFTG2PfZP76EIHHMzN8/YVyyEaudNVRGiStTc5+9sOrLCuJIX+9sblw1WyZ5zbIsfQ2bQuHsd2GrW2s1+J6HK/OhL6MM/i4vEDPfIH8y9hrF4hfIGgNZCA3Yo1cooE3+MiblEHpvZWx58YtEqb7AtZThIRDz8Irlr2RRtkxPTq++RDK+vLjypQzKlcXwQBMA4uuEqCGZDdk+Efr+xVx7KPDOjYWnllYnVyb+BxB/A4jmTLQDbGTMAAAAAElFTkSuQmCC;rotation=0;" vertex="1" parent="7sJCd6B2Vx5864JhMqsD-43">
          <mxGeometry x="140.62" y="23" width="55" height="55" as="geometry" />
        </mxCell>
        <mxCell id="7sJCd6B2Vx5864JhMqsD-47" style="edgeStyle=orthogonalEdgeStyle;rounded=0;orthogonalLoop=1;jettySize=auto;html=1;" edge="1" parent="7sJCd6B2Vx5864JhMqsD-43" source="7sJCd6B2Vx5864JhMqsD-48" target="7sJCd6B2Vx5864JhMqsD-46">
          <mxGeometry relative="1" as="geometry" />
        </mxCell>
        <mxCell id="7sJCd6B2Vx5864JhMqsD-48" value="" style="shape=image;verticalLabelPosition=bottom;labelBackgroundColor=default;verticalAlign=top;aspect=fixed;imageAspect=0;image=data:image/png,iVBORw0KGgoAAAANSUhEUgAAAgAAAAIACAYAAAD0eNT6AAA6SUlEQVR42u3dd3yV5f3/8fd1MgxDhixRxIm7iKKQI1pxix1aq1attnX0Z9lBGVZWBEEQZYQEpbW21Vr7VWu1UlAUxUUIiHujKCIoypIZMs71+yNS1IKE5Jzzue9zv56PR/+r5BX0JG/Cue7LCUA0eDlNzT9dTj+TUzdJB0tqLGmNvN6QNFPK+pv6vrjCOhVA6jnrAABpUNL1QnndLLnDdvH/LJdUosq8mzVg7jrrbACpwwAAMllR/FjFEpMl98Pd/CfXyPtRWt2gRIVzq6w/DQDJxwAAMlFxlxZSbISk3pKy6vErvSvnBqh36ePWnxKA5GIAAJlkeuccVWT3knM3SWqaxF95hmLV/dVr4RLrTxFAcjAAgExRlH+GYpoi6cgUfYQKSXcq4YerX9l6608XQP0wAICwK+5yqHzWRDn/o7R8PO8+k0sUalXZXSpUwvrTB1A3DAAgrCZ1b6ac8hskDZCUa1CwSF791Xf+i9a/FQB2HwMACJtCxdQqfrm8nyCptXGNl9ND8rFB6jNvqfVvDYDaYwAAYTI1v7ucJks6xjrlOzbLa4Iq3XhdV7rFOgbArjEAgDAoOWE/+ewxkr/COmUXPpVzQ9Wr9F45eesYADvHAACCbHrnhqrIGSynIZLyrHNqzetZxWIF6j3vVesUADvGAACCyMupOH6hnL9NUnvrnDpKSO4+VSUGqaBspXUMgG9jAABBM7XL8XKxKZJOtE5JDr9OcuOUaD5Z/WZtta4BUIMBAATF1G77yCVGSv4aSTHrnKRzWizvrlOf0hnWKQAYAIC9wqNy1aJxTzk3SlIT65yUc3pKvrpAfRa+ZZ0CRBkDALBUkv8TeTdZ8gdZp6RZpeT+rJyKobp20SrrGCCKGACAhZL8I+T9JMmdbZ1irOba4Tbti3Xxg9XWMUCUMACAdJoY30u5fqTqf01vpnlH3g1Q39InrEOAqGAAAOlQ2D1bLbdcJbkxklpa5wQY1w4DacIAAFKtOH66vJ8sp6OtU0Ki5trhBlnDdPWLG6xjgEzFAABSZUrXDsp2Y+R1kXVKSK2Q/E1cOwykBgMASLaS7o2VKB8opxsk7WGdE37uJTn1V+/SedYlQCZhAADJsv2a3lsltbHOyTA11w5XZQ9U/xc+sY4BMgEDAEiG4vyu8posp3zrlAxXc+1w47xxunJuuXUMEGYMAKA+irq2Uyw2VvKXi9dTOi2Tc8PUu/Qe6xAgrPiCBdTF9M4NVZnTV9IwSY2tcyJsrhKJAvVb8Jp1CBA2DABgd5Xk/0ReRZIOsE6BpG3XDme5geo57wvrGCAsGABAbRXnHyfnJsv7k61TsCNfXzu8asMkFb5VYV0DBB0DANiV6Z1bqjJnuHh8b1i8L7nruXYY+H4MAGBnpnfOUUV2r8hc05tpuHYY+F4MAGBHivLPUExFko6wTkG9VEq6QzmVI3Ttoq+sY4AgYQAA3zSt22FKVE+UdK51CpJqtbwfzbXDwHYMAECSpp3UXImqIZIGSMq1zkGKOL0iHytQn3nPWacA1hgAiLbtj++9TVIr6xykzQz5RD/1XfCRdQhghQGA6Crpeqq8myypo3UKTGyRVKQGWWO4dhhRxABA9Ew5qb2yqm+W/BXWKQgErh1GJDEAEB0TOjZSXsNBchoiKc86B4GzUM4VcO0wooIBgMzn5TQtfoW8Hy9pb+scBBrXDiMyGADIbCUnniBfPUVycesUhMomed3GtcPIZAwAZKap3faRS4zjml7UE9cOI2PxhRGZZWK8gXJ9P0lDJe1pnYOM8YxivkC9yl63DgGShQGAzFFzTe8USQdapyAjce0wMgoDAOFXcmKnr/+e/4fWKYiEtZLGc+0wwo4BgPAq7tJCio0Q1/TChH9PMX+9ei34j3UJUBcMAITP9mt6b5LU1DoHEef0lKp9f/Ure9s6BdgdDACES1H+GYq5yZI/yjoF+AauHUboMAAQDsVdDpVit0v6sXUK8D24dhihwQBAsE3q3kw55TdIKpC0h3UOUCtcO4wQYAAgmLZf0ztBUmvrHKCOuHYYgcUAQPBMi5+ihJ8i6RjrFCAJuHYYgcQAQHAUdW2nWGwsj+9Fhlou525Ur9J75eStYwC+yMLe9M4NVZEzWE6DJTWwzgFSbKEU668+80qtQxBtDADY8XIqjl8o5ydI2t86B0gjL7m/yVUNVu+Fn1vHIJoYALAxrWtnJdwUSd2sUwBDXDsMMwwApNf0zm1VmVso+WskxaxzgID4QN7dqL6lD1qHIDoYAEiP7Y/vHSWpiXUOEEzuacUSA7h2GOnAAEDq1VzTO0nSwdYpQAjUXDucyL5e/Z7/0joGmYsBgNSZGj9czk+SdI51ChBCXDuMlGIAIPkmxvdSrh8pqZekbOscINz8e5KuU5+ymdYlyCwMACRPYfdstdxyleRultTKOgfIKFw7jCRjACA5iuOnS36SpB9YpwAZjGuHkTQMANRPSfwQyY+V10XWKUCEcO0w6o0BgLqZ0LGR8hoOktMN4ppewMrLSiQK1G/B89YhCB8GAHaPl9O0+BXyfrykva1zAEiSZihLfdVz/sfWIQgPBgBqryjeRc5PkVO+dQqA/1Fz7bDLu1m95260jkHwMQCwa3fE91W1buGaXiAUuHYYtcIXc+zcxHgD5fp+koZJamydA2C3LFDC91e/svnWIQgmBgB2rObxvUWSDrBOAVBnXDuMnWIA4NuK84+Tc5Pl/cnWKQCSpubaYd/8FvWbtdU6BsHAAECN4i4tpNgISb0lZVnnAEgJrh3GfzEAom77Nb03SWpqnQMgHdzT8ipQ39I3rEtghwEQZUX5ZyimKZKOtE4BkHZVkrtbiexhXDscTQyAKJrW7TBVJ26X8z+yTgFgbq28v0mrG5SocG6VdQzShwEQJdNOaq5E1RBJAyTlWucACJR35XWd+s6fZR2C9GAAREGhYmoVv1zeT5DU2joHQKDNUCJWoH7zPrQOQWoxADJdSddT5d1kSR2tUwCERs21wwk/XP3K1lvHIDUYAJmq5IT95LPHSP4K6xQAIeXdZ3KJQrVu/yeuHc48DIBMs/2a3iGS8qxzAGSEl+V8f/Uue8E6BMnDAMgUXk7F8Qvl/G2S2lvnAMhIM6RYH/WZt9Q6BPXHAMgEU7scLxebIulE6xQAGW+zpKlcOxx+DIAwm9ptH7nESMlfIylmnQMgUj6Vc0O5dji8GABhVHhUrlo07innRkva0zoHQKSVKeELuHY4fBgAYVOS/5OaY33+IOsUAPhaQnL3qSoxSAVlK61jUDsMgLAoyT9C3k+S3NnWKQCwExvldTvXDocDAyDoJsb3Uq4fKa7pBRAWTouVcEO5djjYGABBNb1zjiqzr5TcGEktrXMAoA7mKCtWoJ7z3rQOwf9iAARRUf4Zcpokp6OtUwCgnmquHc6pGKprF62yjsF2DIAgmdK1g7LdGHldZJ0CAEm2Rt6P4trh4GAABEFJ98ZKlA+U0w2S9rDOAYAUelfODVDv0setQ6KOAWBp+zW9t0pqY50DAGk0Q7Hq/uq1cIl1SFQxAKwU53eVNEVSV+sUADBSIelOrh22wQBIt6Ku7RSLjZX85eL3HwC2Xzu8quwuFSphnRMVfANKl+mdG6oyp6+kYZIaW+cAQAAtkvMFXDucHgyAdCjJ/4m8pkra3zoFAALOy+kh+dggrh1OLQZAKhXnH6eav+c/yToFAEJms7wmqNKN13WlW6xjMhEDIBWmd26pypzh4vG9AFBfXDucIgyAZJreOUcV2b3k3ChJTaxzACBjeD2rWKxAvee9ap2SKRgAyVLz9/yTJB1snQIAGYprh5OIAVBf07odJl89SV49rFMAICK4djgJGAB1Ne2k5kpUFUrqJSnbOgcAIodrh+uFAbC7Crtnq+WWqyR3s6RW1jkAEHlOTykWG8C1w7uHAbA7pnY5TS42SVJH6xQAwLdUSu7PXDtcewyA2iiJHyL5sVzTCwCBV3PtcJv2xbr4wWrrmCBjAHyfCR0bKa/hIDkNkZRnnQMAqLV35N0A9S19wjokqBgAO+LlNC1+hbwfL2lv6xwAQJ1x7fBOMAC+q+TEE+Srp0gubp0CAEgKrh3eAQbANnfE91W1buGaXgDIWCskfxPXDtfgG93EeAPl+n6Shkra0zoHAJBq7iV5X6C+81+0LjH9XbAOMFXz+N4pkg60TgEApFXNtcNV2QPV/4VPrGMsRHMAFMWPVSwxWXI/tE4BAJiquXa4cd44XTm33DomnaI1AIq7tJBiI8Q1vQCAb1sm54ZF6drhaAyA7df03iSpqXUOACCw5iqRKFC/Ba9Zh6Ra5g+AovwzFHOTJX+UdQoAIBRqrh3OcgPVc94X1jGpkrkDoLjLoVLsdkk/tk4BAISRXye5cUo0n5yJ1w5n3gCY1L2ZcspvkFQgaQ/rHABA6L0vuevVp3SGdUgyZc4AKFRMreKXy/sJklpb5wAAMozTU/LVBeqz8C3rlOR8Oplgan53OU2WdIx1CgAgo1VKukOVeSM1YO4665j6CPcAKOraTrHYWB7fCwBIs9BfOxzOb5rTOzdURc5grukFABgL7bXD4RoAXk7F8Qvl/G2S2lvnAADwtRnyiX7qu+Aj65DaCs8AmNa1sxJuiqRu1ikAAOxAzbXDDbKG6eoXN1jH7ErwB8D0zm1VmVso+WskxaxzAADYhVBcOxzcAfDn7nnatHWA5G+U1Ng6BwCA3eNLFVNf9SpbZF2yI8EcANO6/EiJWLGkA6xTAACohyo5jdeX80cE7acBwRsAU/OHyml0INsAAKgLpwf1Zd5lKpxbZZ2yTbD+Tn1q14Fyull88wcAZBKvi9SyvMg645uC8422+MS4lHheUpZ1CpIj5mJq27CFDmjSVgfs2VaNchpIkprkNlKWi2nd1g1a+/X/vtyyVkvWr9D6ik3W2UBa7JGVoxZ5TdUyr5laNmimmHNat3WjvPf6bPMqfbZptXw0rqWPGH+++pQ9al0hBWUAeDlNy18kr2OtU1B3BzfdV9327qgT9/6BurXtqA5N91NuVs5u/RqfbV6l99ct09trPlLZyrc0f+Vben/dJ9afGlAvhzRtp5P36aR4m6N1aLP26tCsndo2bPm9/0x5dYU+Xv+ZXv7yPb3w+Wt6bsWrentNaI6YY+c+VOv9DgvC0wODMQCm5veQ00zrDOy+I5ofoEs6nKHLOpytg5vum5KPsap8nZ5f8ZqeWFammUvn6dONGXs9NzLID1ocrEsOOVMXH3J60l4b7637RPcvnq2/vfeElqxfbv0pos7cBepT+i/zCusASVJx/l8k/do6A7WTm5Wj3xz+I/3uqJ+pU8sOaf/4r6/+QI999IIeWvKMXlu12Pq3A/gvJ6ce+8d1fadLdeq+nVP2cRI+oX9+OFe3vPxXvcprIIz+rj7zf2kdEZABEP9Q8gdZZ+D7NcjeQ7898jwN7HSZ2jUOxo3L7637RA988JTufmeGlm743DoHEdalzZGa2K2/Ttz7B2n7mF5eDyyeo+vnFWnFplXWvwWovU/UZ/7+1hH2A6Coxx6Krd2soJ1IwLdc2uFMTezWX20a7mWdskNViWr9a8mzmvz6P1T6+ZvWOYiQRjkNNCHeR9cefb6c0ZfU9RWbNKxsukre+CdvHAwHrwrXSNeVbrGMsB8A0zs3VWXOOusM7NjeDVto2g8H6fyDfmidUmvPrnhFQ0pLtGDl29YpyHCdWnbQP84arUObBeNusoeXzNXVT4/VVxUbrVOwS4mW6rNgtWWB/Z+6N+Vy7C+gLjiou9685L5QffOXpFP2OValP/+j7j9zlA5sso91DjLUTw44Sc/97M7AfPOXal6zCy78kw5qkpo35CKJqly2dYL9AEAgXdfpUj1w9s3aK6+JdUqdODn9osMZeuOSv6ngmF8o5vhPHclz5RE/1sM9xqnx18+2CJIOzfbT8xfcoR+0ONg6BQHHV0V8S8zFNPmkAt12Yt+M+KbZMDtPE7v117PnTwvUn9QQXpcdepb+0P0GZQX49dG2YUs9fV6xDm9u/j4zBFhw/wtG2sVcTPeeMVL9Ol5snZJ03dp21EsX/Vm/6HCGdQpC7NR9O+svpw0P9Df/bVrkNdXMH0/c5QOHEF3B/68YaVN08gBd2uFM64yUaZzTQPefOUoTu/VXTsz8r98QMgfs2Vb/d/ZoZcfC87alA/Zsq3/1GLfbT+RENDAAIEnqdfTP1evon1tnpEXBMb/QrB9PVNPcxtYpCImYi+m+M29Sy7xm1im7rUubI3Vzl/9nnYEAYgBAJ7Q+QhO79bPOSKvT2h2vZ382Tfs04sej2LX+HS9WfO+jrTPq7PpjL9Np7Y63zkDAMAAiLi8rV385fXgkf0TYscUhmnfBH3lzIL5X24YtNarLb60z6sXJqfjk6yP5OsfOMQAi7sbOv9YRzQ+wzjDTfs82evq8YkYAdmr48Vf+9yrrMDu8+f4acMwl1hkIEAZAhLXfs42u73SZdYa5fRrVHJnq0Gw/6xQEzAF7ttXVR/7EOiNpBna6THvmNLTOQEAwACJsaOffqEH2HtYZgbBPo5aa89Op2q9xG+sUBMi1R52fUSdGWuQ1Vc8fXGCdgYBgAERU24Yt9avDzrXOCJR2jVtr5o9vV/M99rROQQDskZWTUX/636bP0ReG4jkGSD3+K4io3x71U+3BG4L+x1F7HaRHeoxXXlaudQqMnbVf11Ae+9uVdo1b66z2Xa0zEAAMgAhycrr80HOsMwLr5H066e7Thppd7YpgOP/AcF2CtTt+dWgP6wQEAAMggo5rdZgOadrOOiPQLulwpoYdf6V1Bow4Of3ogG7WGSlzdvv8UD3REKnBAIigHvvHrRNCobDL1bokgx+NjJ07pFk7tW7Q3DojZZrt0Vhd2xxlnQFjDIAIOm3fztYJoeDkdNepv9dxrQ6zTkGaReGb48ltO1knwBgDIGKcnI5tdah1Rmg0zM7TYz+aoHaNW1unII2OjMDDsY5pcYh1AowxACLmwCb7cAnObmrbsKX+ec4tPDMhQg7ccx/rhJQ7usVB1gkwxgCImAObtLVOCKUTWh+hP516IycDIuKACLxOGmbnWSfAGAMgYtrvubd1Qmhd0uFMDT+BkwFRwE/JEAUMgIhpkdfUOiHURp7AyYAoaJTDn46R+RgAEcMT7upn28mAzq0Ot05BCuVl8X4PZD4GQMTsEePxv/XVMDtPj5w7Xvs0ammdghRxvNUDEcAAAOpg30at9O9zJ/BGKgChxQAA6ui4VofpL6cP42QAgFBiAAD1cOHBp3EyAEAoMQCAehp5wtW6lJMBAEKGAQDUU83JgBvVpc2R1ikAUGsMACAJGmTvoX/1GMedAQBCgwEAJEnbhi31SI/xnAwAEAoMACCJjmt1mP56+nBOBgAIPAYAkGQ/P/hUDT+ekwEAgo0BAKTAyC6cDAAQbAwAIAWcnP502lBOBgAILAYAkCJ5WbmcDAAQWAwAIIXaNmypR3vcqkY5DaxTAOBbGABAih3b6lD95TTuDAAQLAwAIA1+fvCpGnHCVdYZAPBfDAAgTUaccBUnAwAEBgMASJNtJwO6tjnKOgUAGABAOuVl5erhHrdwMgCAOQYAkGacDAAQBAwAwMCxrQ7lzgAAphgAgJELDurOyQAAZhgAgKERJ1ylyw49yzoDQAQxAABDTk53nXojJwMApB0DADC27c6A/Rq3sU4BECEMACAA9m7YQo/0GM/JAABpwwAAAmLbyYCY42UJIPX4SgMEyAUHddeI4zkZACD1GABAwAw/4UpOBgBIOQYAEDDbTgbktznaOgVABmMAAAG07c4ATgYASBUGABBQnAwAkEoMACDAOBkAIFX4qgIE3AUHdddI7gwAkGQMACAEhh1/pX556NnWGQAyCAMACAEnpz+e+ntOBgBIGgYAEBKcDACQTAwAIET2bthCj557KycDANQbAwAImU4tO3AyAEC98RUECKELDuquwhOuts4AEGIMACCkhh7/G04GAKgzBgAQUpwMAFAfDAAgxDgZAKCuGABAyHEyAEBdMACADNCpZQfdc/oITgYAqDW+WgAZ4mcHnaKbTrjGOgNASDAAgAxy4/G/1uWHnWOdASAEGABABnFy+kP3GzgZAGCXGABAhuFkAIDaYAAAGYiTAQB2hQEAZChOBgD4PnxlADIYJwMA7AwDAMhwnAwAsCMMAGSk8uoK64TA4GQAgB1hACAj9X3+duuEQNl2MqD9npwMAFCDAYCMNPuTBfq/xU9ZZwTK3g1b6JEenAwAUIMBgIx11TNjVLbyLeuMQOnUsoPuPX0kJwMAMACQubZUbdUFs36vZRtXWqcEyvkH/VCjuvzWOgOAMQYAMtpnm1fp/FlDtKlyi3VKoNzYmZMBQNQxAJDxXvnyff16zmglfMI6JVD+0P0GxffmZAAQVQwARMLDS+Zq1Et3W2cESl5Wrh4+ZxwnA4CIYgAgMkYv/LPue/8J64xAadNwLz3a41Y15mQAEDkMAESGl9dvn7lF8z9/0zolUI5p2UH/OGu0sjgZAEQKr3hESnl1hS54nJMB33Xu/idqVJf/Z50BII0YAIiczzev1nkzB3My4Dt+3/lXuvrIn1hnAEgTBgAi6dVVi/WrOaM4GfAdJScP1A/36WSdASANGACIrH8teVYjF95lnREouVk5euicsTqoyb7WKQBSjAGASBv70l/1t/cet84IlJZ5zfTvc29Vk9xG1ikAUogBgEjz8vp/c8eplJMB33LkXgfq72fexMkAIIPx6kbk1ZwMuEGfbOBkwDedu/+JGt2VkwFApmIAAJJWbl6jH/3neq2v2GSdEig3HPcrXXPkT60zAKQAAwD42ltrluiyJ0eqmpMB31J88vU6ZZ9jrTMAJBkDAPiGmUvnaXjZH6wzAiU3K0cPnjOGkwFAhmEAAN8x7uV7dNfb/7bOCBROBgCZhwEA7ECf52/Xsytesc4IlCP3OlD3nzmKkwFAhuCVDOxARXWlLnp8qD78arl1SqD02D+um7tea50BIAkYAMBOrCpfp/NmDdZXFRutUwJlyHFXcDIAyAAMAOB7vL3mI04G7EDJDwdyMgAIOQYAsAuzlpZqaNmd1hmBkhPL5mQAEHIMAKAWbn35b/rj249aZwTKtpMBTXMbW6cAqAMGAFBLfZ67XXOXv2ydESjcGQCEF69aoJYqE1W66AlOBnwXJwOAcGIAALthdflX+unMQZwM+A5OBgDhwwAAdtM7az/WpbNHcDLgOzgZAIQLAwCog8c/ma8bSqdZZwRKTixbD50zVgc35WQAEAYMAKCObn/17/rDW49YZwRKi7ymerQHJwOAMGAAAPXQ9/mJemb5IuuMQOFkABAOvEKBeqhMVOniJ4bpg68+tU4JlB77xzWm6++sMwB8DwYAUE/bTgas28rJgG8afNzl+u2R51lnANgJBgCQBO+uXapLnxyuqkS1dUqgFP/wenXf9zjrDAA7wAAAkuSJT8o0pLTEOiNQcmLZevDsMZwMAAKIAQAk0aTX/qE73/yXdUagcDIACCYGAJBk/V+YpKc/fck6I1CO3OtA3X/WKE4GAAHCqxFIsspElS6ePUyL1y2zTgmUc9rna2x+T+sMAF9jAAApsKZ8vc6bNZiTAd8x6NhfcjIACAgGAJAi765dqktmczLguzgZAAQDAwBIodnLyjRw3lTrjEDhZAAQDAwAIMWKXn9Ad7z5sHVGoLTIa6p/nzuBkwGAIQYAkAYFL0zWHE4GfMsRzQ/gZABgiFcekAaViSr9YvYwvb/uE+uUQDmnfb5u4WQAYIIBAKTJmvL1Om/mYK3dusE6JVAGHvtL/b+jzrfOACKHAQCk0XvrPuFkwA5MPfk6TgYAacYAANLsyWULdN2LU6wzAmXbyYBDmrazTgEigwEAGCh+4yFNe/Of1hmB0iKvqR49lzsDgHRhAABG+j8/STOXzrPOCBROBgDpw6sMMFLtE7rsyZF6e81H1imBck77fI2L97LOADIeAwAwtL5ik346c7BWla+zTgmU6ztdxskAIMUYAICxJeuX68LHb1RFdaV1SqBMPfk6nbpvZ+sMIGMxAIAAeG7Fq+r9/G3WGYGSE8vWA2ffzMkAIEUYAEBA/OntxzT19QetMwKFkwFA6jAAgAC57sUp+s/SF60zAuWI5gfoH2eN5mQAkGS8ooAAqfYJ/fLJQr21Zol1SqCc3b4rJwOAJGMAAAGz7WTAl1vWWacECicDgORiAAAB9NH6FbrwCU4GfBcnA4DkYQAAAfX8ilfV87kJ1hmBwskAIHkYAECA/fmdGZry2v9ZZwTKtpMBzfbgZABQHwwAIOAGzpuqGR9zMuCbjmh+gO4/k5MBQH3w6gECruZkwEi9ycmAbzm7fVeNj/e2zgBCiwEAhMCGys366X8GcTLgO67rdKmu5WQAUCcMACAkPt7wmX7++O+1lZMB31LEyQCgThgAQIi88Nlr6vnsrdYZgZITy9aDZ4/hZACwmxgAQMj85d3/aOKr91tnBMpeeU3073MncDIA2A0MACCEBpeW6LGPX7DOCJTDm++v+88crexYlnUKEAoMACCEEj6hy58s1BurP7ROCRROBgC1xwAAQmpD5WadN3Owvtiy1jolUAYccwknA4BaYAAAIcbJgB3jZACwawwAIORe/Ox1/e7Z8dYZgcLJAGDXGABABvjruzN12yv3WWcECicDgO/HAAAyxA3z79C/P3reOiNQOBkA7BwDAMgQCZ/Q5U8V6vXVH1inBMrZ7bvq1ngf6wwgcBgAQAbZWLlF580crJWb11inBErBMb/Q747+mXUGECgMACDDLN3wOScDdmDKSQN0WrvjrTOAwGAAABlo3udv6Nq546wzAiUnlq0HzrpZHZrtZ50CBAIDAMhQ97w3S+Nfvtc6I1D2ymuiR3vcyskAQAwAIKMNLZuuRz96zjojUA5vvr/+cRYnAwAGAJDBEj6hK566Sa+tWmydEihn7ddVEzgZgIhjAAAZbmPlFp0/awgnA76jPycDEHEMACAClm74XD+ZOUhbqrZapwQKJwMQZQwAICJe+uIdXfn0zfLy1imBwckARBkDAIiQBz6Yo3GLOBnwTdwZgKhiAAARM6xsuh74YI51RqAc1qw9JwMQOQwAIGK8vK5+Zqxe+fJ965RAOWu/rrq5y7XWGUDaMACACNr09cmAzzevtk4JlEHH/VIXHXKadQaQFgwAIKKWbVypn826QeXVFdYpgeHkdPepQ7VnTiPrFCDlGABAhJWtfEu/njOKkwHf0CingfbIyrHOAFKOAQBE3IMfPK0xL/3FOgNAmjEAAGjkgrv0j8VPWmcASCMGAID/ngxY+MU71ikA0oQBAECStKVqq342a4g+3fiFdQqANGAAAPivFZtW6fxZQ7S5qtw6BUCKMQAAfMvLX76n38zhzgAg0zEAAPyPhz58WqMW3m2dASCFGAAAdmjUwrt1PycDgIzFAACwQ15e1zwzVgtWvm2dAiAFGAAAdqrmZMANnAwAMhADAMD3+mzzKp03a7A2VW6xTgGQRAwAALv0ypfv69dzRnMyAMggDAAAtfLwkrm6acGfrDMAJAkDAECtjX7pz/r7+7OtMwAkAQMAQK1tOxkw//M3rVMA1BMDAMBuKa+u0AWP/17LNq60TgFQDwwAALvt882rdf6sIZwMAEKMAQCgTradDEj4hHUKgDpgAACos4eXzFXhQk4GAGHEAABQL2Ne+ovue/8J6wwAu4kBAKBevLx++8wtnAwAQoYBAKDetp0M+GQDJwOAsGAAAEiKmpMBg7WRkwFAKDAAACTNq6sW61dzbuJkABACDAAASfXIkuc0YsEfrTMA7AIDAEDSjV30V9373izrDADfgwEAICV+O3ecnl3xinUGgJ1gAABIiYrqSl30+FAtWb/cOgXADjAAAKTMqvJ1+unMwVpfsck6BcB3MAAApNTbaz7SpU+OUDUnA4BAYQAASLlZS0s1rGy6dQaAb2AAAEiL8S/fqz++/ah1BoCvMQAApE2f527nZAAQEAwAAGlTmajShY/fqA+/4mQAYI0BACCtVpd/pfNmDdZXFRutU4BIYwAASLu313ykS2dzMgCwxAAAYOLxT+br9/PvsM4AIosBAMDMba/cpz+89Yh1BhBJDAAApvo+P1HPLF9knQFEDgMAgKnKRJUufmKYPvjqU+sUIFIYAADMrS7/SufN5GQAkE4MAACB8M7aj3XJ7OGcDADShAEAIDCe+KRMQ0pLrDOASGAAAAiUia/er+mcDABSjgEAIHD6cTIASDkGAIDAqUxU6aInhnIyAEghBgCAQFpTvl4/nTlI67ZyMgBIBQYAgMB6d+1SXTJ7uKoS1dYpQMZhAAAItNnLyjSotNg6A8g4DAAAgTfltf/TnW/+yzoDyCgMAACh0P+FSZrz6UvWGUDGYAAgI1V7/s4401QmqvSL2cO0eN0y6xQgIzAAkJE2VGy2TkAKrClfr/NmDeZkQBLwxkowACKmKgJ/Mk74hDZVlVtnIEU4GZAcXLwEBkDEROEb45qt65XgQpmMNntZmQpemGydEWr8FAUMgIjZWJn5PxpfvI6nx0XBtDf/qaLXH7DOCK11FRusE2CMARAxUfi78cVf8SaxqLj+xSLNXDrPOiOUVm5eY50AYwyAiPl04xfWCSn3xuoPrROQJtU+oUtnj9Dbaz6yTgmd13mdRB4DIGLeWJP5L/q5y1+2TkAabajcrJ89fgN/p72bXv7yPesEGGMARMya8vVasWmVdUbKfFWxUa+uet86A2m2eN0yXTJ7uKp582etVCWq9daaJdYZMMYAiKDXVi22TkiZWUtL+SYQUbOXlWnUwrutM0Kh9PM3VF5dYZ0BYwyACHp6+SLrhJT5++LZ1gkwdPNLf9b9i5+0zgi8Bz6cY52AAGAARNCjHz0nL2+dkXSrytdp9rIF1hkw5OV1zTNjtfCLd6xTAqvaJ/TPD+daZyAAGAAR9MFXn+qFFa9ZZyTdnW/+SxXVldYZMLalaqvOnzlEyzautE4JpDmfLtTnm1dbZyAAGAARVfzmQ9YJSbW5qlzFb2TW54S6+2zzKv10JncG7Mgti+6xTkBAMAAi6p8fzs2os9N/eOtRfbFlrXUGAuS1VYt1zowCnnn/DXM+fUnPrnjFOgMBwQCIqIRPaMCLU6wzkuLLLes0+iXe/Y3/tWDl2zrnsQFaX7HJOsWcl9fIBX+0zkCAMAAi7MllC3Tf+09YZ9TbsLLpWruV55pjx8pWvqUeMxgB0974p+Z9/oZ1BgKEARBxfZ67XZ9sCO+bpWYvK9Of3nnMOgMBV/r5mzrp4Wv10foV1ikm3l7zkQaXllhnIGAYABH3VcVGXf3MmFAeC/xiy1r9Zs7NXP2LWnlzzRLl//MaPb/iVeuUtNpStVWXP1WoLVVbrVMQMAwAaM6nL+m2V/5unbFbKhNV+uWTIznOhN3y5ZZ1OvOx/vrDW49Yp6RFZaJKFz8xTK9m8NM/UXcMAEiSfj//Dj34wdPWGbXi5XXt3PGa8+lL1ikIoYrqSv3u2Vt14eM3alX5OuuclKn2Cf16zmj9Z+mL1ikIKAYAJNWcCvj1nFF6LgQ/Hv39/Dv0l3f/Y52BkHt4yVx1/McVmrW01Dol6bZWV+o3c0brHzwWGd+DAYD/Kq+u0PmzBgd2BCR8Qn2eu123vvw36xRkiM83r9aP/zNQv54zOmNuyVyxaZVOfaR3RpzwQWoxAPAt67Zu1NmP9Q/cF4+NlVt06ZMjNO3Nf1qnIMN4ed373iwd/vdfaNzL92hriB8n/eJnr6vLQ1dp/so3rVMQAlnWATp7vwbK0hDrDGxX7RN6ZMlzSnivk9seo5iz3YnvrP1YZz9WoGeX8wQzpE5FokpzPn1J//jgSe2Z01BH7XWgsmL2XyJrY33FJg0uLVHv526L/PMOQiOh2/T4ctN/Wc7690CTujdTTjnPcA2oY1sdqj+dOlSdWnZI+8euSlSr6PUHNHLhXdpUucX6twIRs1/jNrq+06W65sifqmF2nnXOTj28ZK76Pz9Jyzd9aZ2C3ZFT2UrXLjL9eyf7ATC9c44qcyqsM7BzObFs9T/mFxrY6TK1btA8LR9z7vKXNeDFKXqN40sw1jKvmS4/7Gz9+rBzdYzBEN6RhE/o0Y+e17iX7+Hq47BqkNVEV79o+ghT+wEgScX5qyXtZZ2B79cgew9dfcRPdH2ny7T/nnun5GPMXlamMYv+GrmHtSAcOrXsoF8ddq7OO/BkHdhkn7R//M83r9bf3ntcd787Q++uXWr924G6W6U+81tZRwRjAEzNnyunU6wzUDsxF1O3th3184O664KDuqtd49b1+vXeW/eJ7l88W/e9/4Q+/Gq59acH1Mphzdqrx/5xnb1fvuJ7H60muY1S8nE+/Gq5Zi6dp5mfzNOcT19SVaLa+lNHfTnNUu/559pnBEFx/PeSH2udgd3n5HRos/10fOsj1LnV4erUsoP2adRS+zZqpUY5Db71/034hJZv+lJL1q/Qe2uX6sXP39CzK14O9V0EgFTzOjikWTsd1+owdWrRQUftdZDaNW6tfRu1UqsGzWr1a2yp2qol65frw6+W6521H2vhF+9o4RfvaNlGXh8Zx7nfqXfpdPMM6wBJUskJ+8lnfSAp1zoFydMop4FaN2iudV/f1LepqlwVIT5iBdRFXlau9m7YQk1yGyknlq0muY20sXKzEt4roYTWlK/XmvL12lC52ToV6bFWLq+9es/daB0SjAEgSVPzJ8ppgHUGAAApdL36zJ9oHSEF6UFAlW6o5F+1zgAAIDX8c2q93xTrim2C8xMASSo5YW/5rDmSjrROAQAgid5WTuUp1mf/vyk4PwGQpN4LP1dO5YmSHrNOAQAgSeaowp0cpG/+UtB+AvBNU7teKefGSzI/KwkAwO7z6+Riw/Vl6TQVKmFd813BHQCSVNK9sRLlA+V0g6Q9rHMAAKiFhOTuU1VikArKAnuOM9gDYJspXTso242R10XWKQAA7JTXs4rFCtR73qvWKbsSjgGwTXH8dHk/WU5HW6cAAPANn8q5oepVeq+cvHVMbQTrTYC70qd0jlbnHSv5ayUF6s0UAIBI2iyvm1ThDlXv0nvC8s1fCttPAL5pYnwv5fqRknpJyrbOAQBEipfTQ/KxQeozL5Q3M4V3AGwzNX64Yn6ivHpYpwAAImGRnC9Q77IXrEPqI/wDYJuS/J/Ia5Kkg61TAAAZyLvP5BKFat3+T7r4wdBfy5g5A0CSpnfOUUV2Lzk3SlIT6xwAQEaolHSHEn64+pWtt45JlswaANtM79xSlTnDJfWWlGWdAwAIrRlKxArUb96H1iHJlpkDYJvi/OPk3GR5f7J1CgAgTPx7kq5Tn7KZ1iWpktkDYJua9wcUSTrAOgUAEGhrJY3Xqg2TVPhWhXVMKkVjAEjS9M4NVZnTV9IwSY2tcwAAgVLz+N5E9vXq9/yX1jHpEJ0BsM0d8X1VrVskf3kkP38AwHc9o5gvUK+y161D0im63wCL4l0US0yWXNw6BQBgYpmcG6bepfdYh1iI7gCQap7jNC1+hbwfL2lv6xwAQFpsktdtapw3TlfOLbeOsRLtAbDNhI6NlNdwkJyGSMqzzgEApETN43tVfb16L1xmHWONAfBNJfFDJD+Wa4cBIOMslHMF6l06zzokKBgAO1LS9VR5N1lSR+sUAEC9rJD8TVpVdpcKlbCOCRIGwM4UKqZW8cvl/QRJra1zAAC7pULSnWqQNUxXv7jBOiaIGAC7Mu2k5kpUDZE0QFKudQ4AYJdmKFbdX70WLrEOCTIGQG1N63aYqhO3y/kfWacAAHboHXk3QH1Ln7AOCQMGwO4qyj9DMTdZ8kdZpwAAJElr5P0otWlfnAnX9KYLA6Autl87fJOkptY5ABBRVZK7WzkVQ3XtolXWMWHDAKiP4i4tpNgIce0wAKTbHGXFCtRz3pvWIWHFAEiGovixcn6SnE6xTgGAjOa0WAk3VH1LH7ROCTsGQDLVXDs8RdKB1ikAkGE2yut2+ea3qN+srdYxmYABkGyFR+WqReOecm60pD2tcwAg5Gqu6a1KDFJB2UrrmEzCAEiVqd32kUuMlPw1kmLWOQAQQguU8P3Vr2y+dUgmYgCk2tQux8vFJkvqZp0CACGxXM7dqF6l98rJW8dkKgZAOng5FccvlPO3SWpvnQMAAbVFUpFc3s3qPXejdUymYwCk0/TODVWRM5hrhwHgf8xQlvqq5/yPrUOiggFgoahrO8ViYyV/ufh3ACDaXlYiUaB+C563DokavvlYmhY/RYnEZMl1sk4BgDRbLe9H8/heOwwAa9uvHb5VUhvrHABIsUpJdyincoSuXfSVdUyUMQCCoqR7YyXKB8rpBkl7WOcAQNI5PaVq31/9yt62TgEDIHimdO2gbDdGXhdZpwBAkryvWOI69VrwH+sQbMcACKri+OnyfrKcjrZOAYC68eskN06rNkxS4VsV1jX4NgZAkBV2z1bLLVdJboykltY5AFBLNY/vzXID1XPeF9Yx2DEGQBhMjO+lXD9SUi9J2dY5APA95n59rO816xB8PwZAmEyNH66YnyivHtYpAPAdy+TcMPUuvcc6BLXDAAijmmuHJ0k62DoFQORtltcENc4bpyvnllvHoPYYAGE1vXOOKrJ7yblRkppY5wCIHC+nh1SVPVD9X/jEOga7jwEQdtM7t1RlznBJvSVlWecAiIRF8uqvvvNftA5B3TEAMkVx/nFybrK8P9k6BUCG8u4zuUShVpXdpUIlrHNQPwyATFPz/oAiSQdYpwDIGBWS7lTCD1e/svXWMUgOBkAmmt65oSpz+koaJqmxdQ6AUJuhWHV/9Vq4xDoEycUAyGR3xPdVtW7h2mEAdfCunBug3qWPW4cgNfimEAVF8S6KJSZLLm6dAiDw1sj7UVrdoESFc6usY5A6DICo8HKaFr9C3o+XtLd1DoDAqZLc3UpkD1O/57+0jkHqMQCiZkLHRsprOEhOQyTlWecACAL3tLwK1Lf0DesSpA8DIKpK4odIfizXDgOR9oG8u1F9Sx+0DkH6MQCirqTrqfJusqSO1ikA0maTvG6Tb36L+s3aah0DGwwASIWKqVX8cnk/QVJr6xwAKeMl9ze5qsHqvfBz6xjYYgBgu2knNVeiaoikAZJyrXMAJNVCKdZffeaVWocgGBgA+F/Tuh2m6sTtcv5H1ikA6m25nLtRvUrvlZO3jkFwMACwc0X5ZyjmJkv+KOsUALtti6QiNcgao6tf3GAdg+BhAOD7bb92+CZJTa1zANTKDPlEP/Vd8JF1CIKLAYDaKe7SQoqNENcOA8Hl9Ip8rEB95j1nnYLgYwBg9xTFj5Xzk+R0inUKgP9aLe9Hq037Yl38YLV1DMKBAYC6qbl2eIqkA61TgAirlHSHcipH6NpFX1nHIFwYAKi7wqNy1aJxTzk3WtKe1jlApDg9JV9doD4L37JOQTgxAFB/U7vtI5cYKflrJMWsc4CM5rRY3l2nPqUzrFMQbgwAJM/ULsfLxaZIOtE6Bcg8fp3kxinRfDKP70UyMACQXF5OxfEL5fxtktpb5wAZICG5+1SVGKSCspXWMcgcDACkxvTODVWRM5hrh4F68HpWsViBes971ToFmYcBgNQq6tpOsdhYyV8u/nsDautTOTeUx/cilfiCjPSYFj9FicRkyXWyTgECbLO8JqjSjdd1pVusY5DZGABIn+3XDt8qqY11DhAwM6RYH/WZt9Q6BNHAAED6lXRvrET5QDndIGkP6xzA2Mtyvr96l71gHYJoYQDAzpSuHZTtxsjrIusUwMAqeX8zj++FFQYA7BXHT5f3k+V0tHUKkAY1j+9N+OHqV7beOgbRxQBAMBR2z1bLLVdJboykltY5QEo4PSWpn3rPf8c6BWAAIFgmxvdSrh8pqZekbOscIDn8e5KuU5+ymdYlwDYMAATT1PjhivmJ8uphnQLUw1pJ47VqwyQVvlVhHQN8EwMAwVZz7fAkSQdbpwC7oebxvYns69Xv+S+tY4AdYQAg+KZ3zlFFdi85N0pSE+scYBeeUcwXqFfZ69YhwPdhACA8pnduqcqc4ZJ6S8qyzgG+Y5mcG6bepfdYhwC1wQBA+BTnHyfnJsv7k61TAEmb5HWbGueN05Vzy61jgNpiACC8at4fUCTpAOsURJKX00Oqyh6o/i98Yh0D7C4GAMJteueGqszpK2mYpMbWOYgK95Kc+qt36TzrEqCuGADIDHfE91W1buHaYaTYCsnfpFVld6lQCesYoD74QonMUhTvolhisuTi1inIKBWS7lSDrGG6+sUN1jFAMjAAkHm8nKbFr5D34yXtbZ2D0JuhWHV/9Vq4xDoESCYGADLXhI6NlNdwkJyGSMqzzkHovCPvBqhv6RPWIUAqMACQ+Urih0h+LNcOo5bWyPtRXNOLTMcAQHSUdD1V3k2W1NE6BYFUJbm7lVMxVNcuWmUdA6QaAwDRUqiYWsUvl/cTJLW2zkFgzFFWrEA9571pHQKkCwMA0TTtpOZKVA2RNEBSrnUOjDgtVsINVd/SB61TgHRjACDapnU7TNWJ2+X8j6xTkFY1j+/1zW9Rv1lbrWMACwwAQJKK8s9QzE2W/FHWKUipmmt6qxKDVFC20joGsMQAALbZfu3wTZKaWucg6RYo4furX9l86xAgCBgAwHcVd2khxUaIa4czxXI5d6N6ld4rJ28dAwQFAwDYmaL4sV8/VviH1imoky2SiuTyblbvuRutY4CgYQAAu1Jz7fAUSQdap6DWZihLfdVz/sfWIUBQMQCA2ig8KlctGveUc6Ml7Wmdg51wekXVif7qt+B56xQg6BgAwO6Y2m0fucRIyV8jKWadg/9aLe9H8/heoPYYAEBdTO1yvFxsiqQTrVMirlLSHcqpHKFrF31lHQOECQMAqCsvp+L4hXL+NkntrXMix+kpVfv+6lf2tnUKEEYMAKC+pnduqIqcwVw7nDbvK5a4Tr0W/Mc6BAgzBgCQLEVd2ykWGyv5y8VrKwX8OsmN06oNk1T4VoV1DRB2fJECkm1a/BQlEpMl18k6JUPUPL43yw1Uz3lfWMcAmYIBAKTC9muHb5XUxjonxOYqkShQvwWvWYcAmYYBAKRSSffGSpQPlNMNkvawzgmRZXJumHqX3mMdAmQqBgCQDlO6dlC2GyOvi6xTAm6zvCaocd44XTm33DoGyGQMACCdSuLnyPtJkg63TgkYL6f7FHM3qGfpcusYIAoYAEC6FXbPVsstV0lujKSW1jnmnF6RfD/1LnvBOgWIEgYAYGVifC/l+pGSeknKts4xsEbej+LxvYANBgBgbWr8cMX8RHn1sE5JkyrJ3a2ciqG6dtEq6xggqhgAQFDUXDs8SdLB1ikp9Iy866++pW9YhwBRxwAAgmR65xxVZPeSc6MkNbHOSaJP5dxQjvUBwcEAAIJoeue2qswtlPzVkrKsc+phi6Qiubyb1XvuRusYANsxAIAgK84/Ts5NlvcnW6fUwQxlqa96zv/YOgTA/2IAAGFQ8/6AIkkHWKfUwrvyrkB9S5+wDgGwczHrAAC10Hv+Y8qpPEryoyRtts7ZiS/k1VOr8n7AN38g+PgJABA2d8T3VbVuCdC1wxWS7lRO5Qhdu+gr6xgAtROELx4A6qIo3kWxxGTJxQ0rZihW3V+9Fi6x/u0AsHsYAECYeTlNi18h78dL2juNH3mhnL+Ox/cC4cUAADLBhI6NlNdwkJyGSMpL4Uequaa3V+m9cvLWnzaAumMAAJmkJH6I5Mem4NrhjfK6nWt6gczBAAAyUUnXU+XdZEkd6/kr1Ty3vyoxQgVlK60/LQDJwwAAMlWhYmoVv1zeT5DUerf/eaenlHDX8dx+IDMxAIBMNzG+l3JUIJfoK7lmtfgn5sjrZvWdP9c6HUDqMACAqJgYb6Ac/VgucY7kOqvm1ECupHVyelde86TEA+qz4H3rVACp9/8BzjBHoRti/gIAAAAASUVORK5CYII=;rotation=0;" vertex="1" parent="7sJCd6B2Vx5864JhMqsD-43">
          <mxGeometry x="29" y="23" width="55" height="55" as="geometry" />
        </mxCell>
        <mxCell id="7sJCd6B2Vx5864JhMqsD-49" value="&lt;b&gt;NginX&lt;/b&gt;" style="text;html=1;strokeColor=none;fillColor=none;align=center;verticalAlign=middle;whiteSpace=wrap;rounded=0;" vertex="1" parent="kEIAtn397vdBtJ0K74f4-2">
          <mxGeometry x="190.87" y="170" width="49.25" height="30" as="geometry" />
        </mxCell>
        <mxCell id="7sJCd6B2Vx5864JhMqsD-50" value="Private subnet" style="points=[[0,0],[0.25,0],[0.5,0],[0.75,0],[1,0],[1,0.25],[1,0.5],[1,0.75],[1,1],[0.75,1],[0.5,1],[0.25,1],[0,1],[0,0.75],[0,0.5],[0,0.25]];outlineConnect=0;gradientColor=none;html=1;whiteSpace=wrap;fontSize=12;fontStyle=0;container=1;pointerEvents=0;collapsible=0;recursiveResize=0;shape=mxgraph.aws4.group;grIcon=mxgraph.aws4.group_security_group;grStroke=0;strokeColor=#147EBA;fillColor=#E6F2F8;verticalAlign=top;align=left;spacingLeft=30;fontColor=#147EBA;dashed=0;" vertex="1" parent="kEIAtn397vdBtJ0K74f4-2">
          <mxGeometry x="526" y="78" width="118.5" height="119" as="geometry" />
        </mxCell>
        <mxCell id="7sJCd6B2Vx5864JhMqsD-51" value="&lt;b&gt;Amazon RDS&lt;/b&gt;" style="text;html=1;strokeColor=none;fillColor=none;align=center;verticalAlign=middle;whiteSpace=wrap;rounded=0;" vertex="1" parent="7sJCd6B2Vx5864JhMqsD-50">
          <mxGeometry x="-0.25" y="95" width="113.5" height="30" as="geometry" />
        </mxCell>
        <mxCell id="7sJCd6B2Vx5864JhMqsD-52" value="" style="sketch=0;points=[[0,0,0],[0.25,0,0],[0.5,0,0],[0.75,0,0],[1,0,0],[0,1,0],[0.25,1,0],[0.5,1,0],[0.75,1,0],[1,1,0],[0,0.25,0],[0,0.5,0],[0,0.75,0],[1,0.25,0],[1,0.5,0],[1,0.75,0]];outlineConnect=0;fontColor=#232F3E;gradientColor=#4D72F3;gradientDirection=north;fillColor=#3334B9;strokeColor=#ffffff;dashed=0;verticalLabelPosition=bottom;verticalAlign=top;align=center;html=1;fontSize=12;fontStyle=0;aspect=fixed;shape=mxgraph.aws4.resourceIcon;resIcon=mxgraph.aws4.rds;" vertex="1" parent="7sJCd6B2Vx5864JhMqsD-50">
          <mxGeometry x="29.5" y="43.5" width="55" height="55" as="geometry" />
        </mxCell>
        <mxCell id="7sJCd6B2Vx5864JhMqsD-53" value="&lt;b&gt;unicorn&lt;/b&gt;" style="text;html=1;strokeColor=none;fillColor=none;align=center;verticalAlign=middle;whiteSpace=wrap;rounded=0;" vertex="1" parent="kEIAtn397vdBtJ0K74f4-2">
          <mxGeometry x="302" y="172" width="49.25" height="30" as="geometry" />
        </mxCell>
        <mxCell id="7sJCd6B2Vx5864JhMqsD-54" value="&lt;b style=&quot;border-color: var(--border-color);&quot;&gt;Ruby on Rails&lt;/b&gt;" style="text;html=1;strokeColor=none;fillColor=none;align=center;verticalAlign=middle;whiteSpace=wrap;rounded=0;" vertex="1" parent="kEIAtn397vdBtJ0K74f4-2">
          <mxGeometry x="398.87" y="172" width="90" height="30" as="geometry" />
        </mxCell>
        <mxCell id="7sJCd6B2Vx5864JhMqsD-63" style="edgeStyle=orthogonalEdgeStyle;rounded=0;orthogonalLoop=1;jettySize=auto;html=1;entryX=0;entryY=0.5;entryDx=0;entryDy=0;entryPerimeter=0;" edge="1" parent="kEIAtn397vdBtJ0K74f4-2" source="7sJCd6B2Vx5864JhMqsD-43" target="7sJCd6B2Vx5864JhMqsD-52">
          <mxGeometry relative="1" as="geometry" />
        </mxCell>
        <mxCell id="787doy9NoyU9D87VZDhD-17" value="" style="sketch=0;points=[[0,0,0],[0.25,0,0],[0.5,0,0],[0.75,0,0],[1,0,0],[0,1,0],[0.25,1,0],[0.5,1,0],[0.75,1,0],[1,1,0],[0,0.25,0],[0,0.5,0],[0,0.75,0],[1,0.25,0],[1,0.5,0],[1,0.75,0]];outlineConnect=0;fontColor=#232F3E;gradientColor=#60A337;gradientDirection=north;fillColor=#277116;strokeColor=#ffffff;dashed=0;verticalLabelPosition=bottom;verticalAlign=top;align=center;html=1;fontSize=12;fontStyle=0;aspect=fixed;shape=mxgraph.aws4.resourceIcon;resIcon=mxgraph.aws4.s3;" parent="kEIAtn397vdBtJ0K74f4-1" vertex="1">
          <mxGeometry x="370" y="30" width="55" height="55" as="geometry" />
        </mxCell>
        <mxCell id="787doy9NoyU9D87VZDhD-60" value="&lt;b&gt;Amazon S3&lt;/b&gt;" style="text;html=1;strokeColor=none;fillColor=none;align=center;verticalAlign=middle;whiteSpace=wrap;rounded=0;" parent="kEIAtn397vdBtJ0K74f4-1" vertex="1">
          <mxGeometry x="350" y="85" width="100" height="30" as="geometry" />
        </mxCell>
        <mxCell id="b87ZAK8lSTTPDpUrN3-H-11" value="&lt;b&gt;CloudFront&lt;/b&gt;" style="text;html=1;strokeColor=none;fillColor=none;align=center;verticalAlign=middle;whiteSpace=wrap;rounded=0;" parent="kEIAtn397vdBtJ0K74f4-1" vertex="1">
          <mxGeometry x="5.25" y="433" width="73.5" height="30" as="geometry" />
        </mxCell>
        <mxCell id="7sJCd6B2Vx5864JhMqsD-69" style="edgeStyle=orthogonalEdgeStyle;rounded=0;orthogonalLoop=1;jettySize=auto;html=1;entryX=0.48;entryY=0.7;entryDx=0;entryDy=0;entryPerimeter=0;" edge="1" parent="kEIAtn397vdBtJ0K74f4-1" source="b87ZAK8lSTTPDpUrN3-H-1" target="7sJCd6B2Vx5864JhMqsD-21">
          <mxGeometry relative="1" as="geometry" />
        </mxCell>
        <mxCell id="7sJCd6B2Vx5864JhMqsD-70" style="edgeStyle=orthogonalEdgeStyle;rounded=0;orthogonalLoop=1;jettySize=auto;html=1;" edge="1" parent="kEIAtn397vdBtJ0K74f4-1" source="b87ZAK8lSTTPDpUrN3-H-1" target="kEIAtn397vdBtJ0K74f4-14">
          <mxGeometry relative="1" as="geometry" />
        </mxCell>
        <mxCell id="b87ZAK8lSTTPDpUrN3-H-1" value="" style="sketch=0;points=[[0,0,0],[0.25,0,0],[0.5,0,0],[0.75,0,0],[1,0,0],[0,1,0],[0.25,1,0],[0.5,1,0],[0.75,1,0],[1,1,0],[0,0.25,0],[0,0.5,0],[0,0.75,0],[1,0.25,0],[1,0.5,0],[1,0.75,0]];outlineConnect=0;fontColor=#232F3E;gradientColor=#945DF2;gradientDirection=north;fillColor=#5A30B5;strokeColor=#ffffff;dashed=0;verticalLabelPosition=bottom;verticalAlign=top;align=center;html=1;fontSize=12;fontStyle=0;aspect=fixed;shape=mxgraph.aws4.resourceIcon;resIcon=mxgraph.aws4.cloudfront;rotation=0;" parent="kEIAtn397vdBtJ0K74f4-1" vertex="1">
          <mxGeometry x="11.75" y="370" width="55" height="55" as="geometry" />
        </mxCell>
        <mxCell id="787doy9NoyU9D87VZDhD-78" value="" style="sketch=0;points=[[0,0,0],[0.25,0,0],[0.5,0,0],[0.75,0,0],[1,0,0],[0,1,0],[0.25,1,0],[0.5,1,0],[0.75,1,0],[1,1,0],[0,0.25,0],[0,0.5,0],[0,0.75,0],[1,0.25,0],[1,0.5,0],[1,0.75,0]];outlineConnect=0;fontColor=#232F3E;gradientColor=#F54749;gradientDirection=north;fillColor=#C7131F;strokeColor=#ffffff;dashed=0;verticalLabelPosition=bottom;verticalAlign=top;align=center;html=1;fontSize=12;fontStyle=0;aspect=fixed;shape=mxgraph.aws4.resourceIcon;resIcon=mxgraph.aws4.certificate_manager_3;" parent="kEIAtn397vdBtJ0K74f4-1" vertex="1">
          <mxGeometry x="10.75" y="580" width="55" height="55" as="geometry" />
        </mxCell>
        <mxCell id="787doy9NoyU9D87VZDhD-81" value="&lt;b&gt;Certificate&lt;br&gt;Manager&lt;/b&gt;" style="text;html=1;strokeColor=none;fillColor=none;align=center;verticalAlign=middle;whiteSpace=wrap;rounded=0;" parent="kEIAtn397vdBtJ0K74f4-1" vertex="1">
          <mxGeometry x="4.75" y="635" width="64.75" height="34" as="geometry" />
        </mxCell>
        <mxCell id="7sJCd6B2Vx5864JhMqsD-68" style="edgeStyle=orthogonalEdgeStyle;rounded=0;orthogonalLoop=1;jettySize=auto;html=1;" edge="1" parent="kEIAtn397vdBtJ0K74f4-1" source="787doy9NoyU9D87VZDhD-18" target="b87ZAK8lSTTPDpUrN3-H-1">
          <mxGeometry relative="1" as="geometry" />
        </mxCell>
        <mxCell id="787doy9NoyU9D87VZDhD-18" value="" style="sketch=0;points=[[0,0,0],[0.25,0,0],[0.5,0,0],[0.75,0,0],[1,0,0],[0,1,0],[0.25,1,0],[0.5,1,0],[0.75,1,0],[1,1,0],[0,0.25,0],[0,0.5,0],[0,0.75,0],[1,0.25,0],[1,0.5,0],[1,0.75,0]];outlineConnect=0;fontColor=#232F3E;gradientColor=#945DF2;gradientDirection=north;fillColor=#5A30B5;strokeColor=#ffffff;dashed=0;verticalLabelPosition=bottom;verticalAlign=top;align=center;html=1;fontSize=12;fontStyle=0;aspect=fixed;shape=mxgraph.aws4.resourceIcon;resIcon=mxgraph.aws4.route_53;" parent="kEIAtn397vdBtJ0K74f4-1" vertex="1">
          <mxGeometry x="11.75" y="480" width="55" height="55" as="geometry" />
        </mxCell>
        <mxCell id="787doy9NoyU9D87VZDhD-63" value="&lt;b&gt;Route 53&lt;/b&gt;" style="text;html=1;strokeColor=none;fillColor=none;align=center;verticalAlign=middle;whiteSpace=wrap;rounded=0;" parent="kEIAtn397vdBtJ0K74f4-1" vertex="1">
          <mxGeometry x="9.879999999999999" y="535" width="59.62" height="30" as="geometry" />
        </mxCell>
        <mxCell id="7sJCd6B2Vx5864JhMqsD-18" value="" style="shape=image;verticalLabelPosition=bottom;labelBackgroundColor=default;verticalAlign=top;aspect=fixed;imageAspect=0;image=data:image/png,iVBORw0KGgoAAAANSUhEUgAAAgAAAAIACAYAAAD0eNT6AAAACXBIWXMAAAsTAAALEwEAmpwYAAAgAElEQVR4nOydCZxcRfHHRf174YEHHogKeB/ggRfeoqIo3kQ0JDtvZuOKIAIeoKIEEQFBFFEUEP4KAiIC/kEQFTGcyk3AJDv9ZsNCIHInHIHd6Z7k/aveTMgS9pij+lW/N7/v59OfIJJ5XdX9qqr7dVc95jEAAAAAAAAAAAAAAAAAAAAAAAAAAAAAAAAAAAAAAAAAAAAAAAAAAAAAAMzA0NLkGaURu3XZuE+XY/tlavvRPx9Sjt2RUeyO4T/5f0fGfpv+v73KpjFQMfY9c5cmL56VJI/T7j8oBqXR5Eml6virylW3fcnUvxjFdh+ad/unc4/mYWsuHpbOTWO/HplGqVRzHxmsjb1s6Orkf7T7DwAAQcNGlgzoB8m4zidnfi459dvJqCbdN1uPjKvR75zOBjuqum05oNCWE4RNVEte1Aw43UE0b86ntryXeUh/39LvLaIg4TccxHIgoS0jAACos3OcPL1i6hEZyb+Qo36wN4ffRjN2DQUFi6n9NKq5D89aljxZWwdAl3KcbBzFjdk0N06kefhf73OQgwJjb6Kg4KhS1b7zMUmygbYOAAAgM6Ja/U1scKk9lIXBnSYgeIjaX8nw78qOQFsvIBt4Fd7caXJXkjNerTkHo9gtLcd279JospG2XgAAwBuVmt2GHO4CVac/pSG2jvp2Hp8j4J0JbV0BWfhcCDn7b0TGXas916aYfw/Qn4cNLkqepa0rAAAQo7I4eQl/i+cteG1D21Yzdoz6+zsOWLR1B7qHD+BFtcYsGst/5mjureADrfMXJI/X1h8AAHRPkmxABm2IVjf3qxvWrldmbgn1f49dFyVP1VYnaI+hJckLmif17TLt+dPDvFtYietv1NYlAAB0DF+BIiN2kbYhFTPIxt4bGfejwaXJ87R1CyanZOpvoNXzqennnADmTO/N1ql9D1cJAQC5gRzlZ8hwrdI3oB6asQ9RYPML/qyhrWfQpFy17+Kro7nZ5u94zrnL5owkz9XWMwAATAsn5dE+WZ1FS+93x/a3vNOhrfN+hQKxD9FYXKw9F7JpdjQarm+prXMAAHgUu8fJE9OrfeqGUiEQMO4ofBrIjqhq30IO8R/aY68w1+6PjPuotv4BAOBh0tPWxv5Z20DqNruKU8Ei26A/5i4ZfwUFmacVdqu/nWZsg282aI8FAAA8hnPuk/P/g7phDKSRLu7klK+oRSDH3CXJs2nl+6viHO7reY6Nc9ps7XEBAPQzfM0vdsdqG8RA23V8OE17iPLM/CR5LCdmagZV6uMZVOPU2dTerT1GAIA+JYrdgdqGMOjGtQdie0JpNHm+9ljlDa7qSPPrevUxDLkZuxKHUAEAmcOHkfrhtL+Qob6P2ld5Ras9bqHDhykpaDqlr7/zd9A4tTFX0tQeNwBAn8AlU8lI36Vt/PLWyFj/qxyPv0Z7/EIlTduLedXNvPqV9tgBAPqAWYuSJ5SN+7e20ctrax7gsvsiu9s65lXHNied/F17bPLcuKSx9jgCAAoOJ/pRdJ6rW8VSRmnVs5i3P7mcKh8S40NR2ka4w3Zdv+d6Tw/5xXbPvGWNfHgeGnvz+vOQC0mp9IvPAyAXBQDAF6Xhsc2ydbT2VjKuv6zEjZ2jWv1NQ8uTp0zXv9k3J88cNPatvBoqG7d/FNtzqN2j7TCmdCSxtRxQ9eOVwXQuhV4rwthGmW9zGHdUuWp3q8RuO96tmG68+P/jg3n0dz7dOiR7Q4bz6YQsxxAA0EeQQTw7C6PLpXg52xtfM+y50+lVxfHXlEz9i2Qgzwx0p+Bidoi9j1A+qJh6lB6M1Nf7JE7ULaE/D2JnXxlOniYhb9mMbUG/+YPm7pXXd2cN356Q6DMAADxMVHOf9G+A7Z9K1fFX+ZRj1rLkyWTkPx4ZdxxX+NN2OA87HupLqdaY61N2bYaqyXNojM/Q1vWjHae7mssHV4bHX+lTfg4oSP69fZbHpnn9n/kLksf7lAMA0Eek2f5iV/VngO1K3ubPXC4KBspxYw4Z5QvCudJoTy1iOmEKID9M43ybvn5bjjK299Cc/tlAtb5V1rrg3R7SxQJfsvFuV9YyAQAKSlRt7OTRGN/A1wq1ZeRvu+QQfhzC1jSt4mpFOSDIq1GS6aBgAizjruEzIly8SlUv6QFI9wNPMo5gFwAA0DtJsoGvjGz0u1dwnndtESfC27S0OtyDT3jrBgF2nPuhrY9eGDDJC8vhlOu9lD/9iJwrEYQPF/oIjjR21AAABcPjt/9LZzrVrwnf0y/H9UEyzjepOi5jT951UfJUbX10SqnmPhJCDn/qw1llU3+9tj6moxLbXeTldouReRIA0BPN7HXShtmOzhlJnqstWzukiY94lRbb5YqObDgvGQT5vAj19yD9VL72H9SHt2nro13Kxh0hrYNS1X1KWy4AQE4ZqNVf68Ewr4qG61tqy9YpzdsDdh+fJ7ina/zcSs19QlsP0zG4KHkWrbj/pun406Q8Vbetti46pXnQ1p4v/K6dqy0XACCnpIfipI20sV/VlqsX+Cobnx5vJYnJ1sHxqtq4Q0Lc2uXT9JwNT83xp6f67R55TqrEZyZEr6bSHK0MJ5toywUAyBn8DZyM0e2yDsz9O0Tn1Q2VYftmkucyHYdnzwjpXEDJND6vlc6XnL7jgIyzQGrrQQKSZ1dh/eyjLRMAIGeIH/6j1Qh/UtCWS5Qk2YAPcGkkFOKELwPx2Es1xW997z9MJwhKb5FcVTL1N2jqQBoOkFkuQR0t0ZYJAJAzyGGfJrwSKWyect5mpSDg9OwdoL2rVLXvVJKZs9qdq+P8ebfB7pXn7f7pKFfd9qLzhNNqAwBAO7S2/8VWtbxNywVStOXyDe+akKz/zdQZGjvGW/BZyjl3afJiX7kh2pD3vH6omyB5+4Z+6/va8gAAckKp5t4nugKJ3W+0ZcoKTmwkvXvShlNcQ23fLOTjaos6KX3tKgpKvxRaIh9fVIz7mNz8cFdrywMAyAnksA8VDQD6cAsyqjVmZV2KmAMtzlvgS6ZK7D6rUU2R5Lp87pLxV/iSK0TSswBSSai4SiBuAwAA2oFWDIsEjff12vJoMS9ONuVCQ9k6THuBj2JCfJo86+Q+9ExLTvA7Rf3WPxMk/3w5XdYr2vIAAAKn6bTkjHjJ2N21ZdKkWfTFfi/jvAHXlUaT58v13x2ZbRCTBjKjpdi+XUKGvMJFsqTqBNDv/FFbHgBA4JCx2FFs1UHGKy8pf31TMfY95NRuzcyBGjfS6zVBrpiX+XmGOF35n1mUe/29InYY0NjbtGUBAAROWfJet3H/1pYnJJpZBO05mTlSY2/vtqwwf0agv//PTB0/V0A09ivSes8zpI9vS+mXb29oywMACJiyYPlW/n6rLU9wJMkG5dju56ME7ORBmL2vUnPv76SLaV6D2C3M0vlz+WXOruhL7XmlMlJ/ndj7WGvM0pYHABAo8xckj5dM6cr54bVlCpX0mpexK7NwrryyLhv36Xb6FY2Mv5y/v2fq/NODksnGvnWeVwRLUh+mLQsAIFB4u1hwRbeyX+5sdwsnRyJd3ZCJkzW2EZlGadr+mPFXZ132OIrdMZx4Kiud5xEKAE4S0vfF2rIAAAKlbBoDgg7nPG158sCchcmGfEI7syBgiutgaXGj2N6dmfM39qGsMxjmlXLV7iajd7sKQTkAYFLISPxAzsjb/bTlyQ18LsC4/TO5Z0/P4LK5Ex9PAci7+axAVs6faxiQU3uXlrrzhuTOHF/z1ZYHABAg5LRPFTPyNfdhbXnyRjluzEm/12cQBFSM/SY/k8cpy+x+kXGL+yGXvyTNqosyZ3OiqttWWx4AQIDQKvQaKUM/tCR5gbY8eSSq2XeQg74jE4ds7MmZBBxrnU9szy+NJhtp6ziPSL2baT0FAABYH6ltYK4kqC1LnplXHds8il01K8ecifM37jgc9usewYOAh2vLAgAIjMGlyfPkVnruCm158k6zqqC7TNtx99zScw32W9r6zDsUAHxXaDzO1pYFABAYpRG7tVwAYE/QlqcIzFqWPJnT4qo78e6dzRiSz8hQFkrRzWcwtGUBAARGqeY+Imf8cQNACj4AFsXuF+rOvHPnf0elZrfR1l9RaF7TFHk379aWBQAQGKVaY66U8S+Z+he15SkaaUVBbafetvN3I2UztoW2zooEp2eWGBtOQc0ZP7XlAQAEBBmGb0g5AE5zqy1PEUkTwmSRK6AXBxO7JQMmeaG2ropGehVQqKQ0bugAAB5BZNyPpJwAnyfQlqeo8O5KZoWEOm3pVTXk9PeFWJpmU3+9tiwAgIAg4328lCPACtAv/LmGnIFTd/gTGq38L9o5Tp6urZsiI5YLIHYf0pYFABAQ5dieIeUMOL+9tjxFpxK7z9KY1bUdf3NFac8bWp48RVsnRScy9p8S41WJGztrywIACAhyJueKrC6MXY2CI9lQrrrtuaiOpvOn8T6rNJo8SVsX/QDf4RcaM2QDBACsgwKAf4gYl9jery1LP1Ex9j2scyXnfxJOlGcHp26WGTu7p7YsAICAIMNwqVAA8F9tWfqNqGrfQnq/J1vn7345P0keqy17P0F6P1oocPu2tiwAgIAgw3ClkGOoacvSj0S1+puyqupHY/wTbXn7EdL94ULjd4C2LACAgCDDcIOQgxjWlqUfKcf2yxnuAFy566Lkqdoy9xtR7A4VGr/DtGUBAASEVPU5/h1tWfqNcq3xucxzA/DJf1T3yxSpXB2cWlpbFgBAQHAGNyHnYLRl6SeiqtuWnP94ps5/rSMx9ne48ZEdZeMOERq7X2vLAgAICAoArkcAkC+i4fqWtBJfqeH8J7Sfa+uhX4iMO1gmcHO/0pYFABAQFABcJeIQjIu1ZekH5lXHNucbF8rOvzXm9uva+ugHSNcHiQQA+AQAAJgIrQr+JeMQ7Ki2LEWH8+2Tro26418XAKwpx4052nopOuS4fywUpB+hLQsAICA4l7vI6sLYO7VlKTKcclcuWJNrUWwtZybU1k+R4dwLQuOFWwAAgHWQAT9fxrjYVdqyFBU+dU/j9BdtZz9N8PdgVLPv0NZTUaF367cy4+QO1pYFABAQUrUAeDsYGeI8kCQbSDkAr0FAbO+qDI+/UltdRYTerdNkxsgdqC0LACAgyHCfIuUEUA1QHtLrD7Wde/vNjg4uTZ6nrbOiQe/oOUJB2nxtWQAAAVE27igpBwDjLwsfsGsetNN27B004/49a1nyZG3dFYnIuAtFAoCq/Zq2LACAgOBtQTkHMP4abXmKQqVmt9FK9NN7EGBPQ6IgOSioWiQzNvWytiwAgIDgu9xyxt++V1ueIlBZnLyEnP/t6o68pyDA7a+tx6IgNRci4z6jLQsAICB4VSBo+HfUlifvcLGdKHYLfTpnTv8smAJ6igDAronixmxtfeaeJNkgvWopM+4f0hYHABAQpar7lJTRr8R2F2158gzfoiDH+X9+nb9dzjsM8+JkU1pZ3uI5CBjjTxnaes0zpdFkI7H3c9i+WVseAEBA8La9nNG339OWJ88IFn2Z3Pkbe+9Atb7V2udV4vobKSC433MQcEdpeGwzRbXmmrIZ20IuAMA1TQDABNgoiDkY5BrvmrJpDHh2/uOVmnv/+s+txG47qS3mqZ/t/rNznDxdQ695h3dQpMahNJo8X1seAEBA8N19QSdzlrY8eYSz6Hk98W/smlKtMXfK58eN2d6vGxr71/kLksdnqdciEFUbOwm9m6uhfwDAoyDjvELI0F+nLUveyObEv91rpn5QH77rtw8OxWi6gMblG0IB2G3asgAAAoQMxA0iq4zY3qMtS55onfi/3qfT5Upy7faH/ttjfAcBOCjaGRw0icwD467VlgUAECCShWYqw8nTtOXJC7QqO9Gr8zf29E7qM8xKksdJpZ2dJki01K93+9RrkSB9nSk0F/6sLQsAIEDIQBwrZ+SRDbAdOC2rX0frruISwp32iw/rlYV2hKZsxt5GgeImPvRaNHgchfR+rLYsAIAAKcd2PzHjjtrwM1Ix9j0+T96T07hxzkjy3G77N686tjlf3/MaoBh3IQ6lzYzUOJC+D9CWBQAQIJLZAMmx7aEtT8jwypdXwN6cq7ErB834q3vtJ99M4EQ+PoMAaodL6LSoDC1NniGla5y9AABMSrlq3yXngNxR2vKEytDVyf+Qji715VDT7+tVt61Uf8um8QXf1wP5mptUf4sGZ+4TCwBq7hPa8gAAAoS3iwWd0Pna8oQK6edIr87U2C+J99m4/X32uRzbVQO1+mul+10E0vwMUgHASP112vIAAAJFLBeAscu0ZQkRSWM+RTvIS8ebxWhO8Rq4xK6KTIGPRuxsjrFrujkQCgDoE8gIXwFj44douL4lr3T9OVD7F77C56v/pdHkSYKn0SeXgbNIUrDhS4Y8Qjo5SWh+LNeWBQAQMKJ30k399dryhEJ6kMu42J/jdP/JIvdCK2PhnT6DAAqSvuVbjjwhFpTH7mJtWQAAASOZCrYSN3bWlicIaEVLTu0Mb84/tvcM1sZelpU4pap9J8lT9xfM2NWlmvtIVvKETJqUydgHZeaJ+422PACAgIlqjVlyhtwdrC1PCPCK1qPzt5NV9/MNOaWv+JKpJddd8+Jk06zlCg0+tCcYWH1XWx4AQMA0v1NLGXJ7rrY82qQV/mLr/DlL+2Ut2crGHe81CDD2n52kMC4iouWhTeML2vIAAAJm1qLkCWLbu31+E2D2zckzSQc3+3OQ7pea8u0eJ0+kIODfnoOA72jKqA2N8U/FdFm1b9GWBwAQOFHsFkoZndJospG2PCo0r82JFHCZ1JjH7hJOKKQtJmc0JDn/609Oa0uxfbu2nFrQOF8kFEitnrMw2VBbHgBA4JDRPUHMiFftu7Tl0cDnN3L67dsHTPJCbRnXwg6a+jTuMdhZ2o/5AfjzB72L9wvpsKotDwAgB8hWqNP7Rq1Feo7C2Ie8OERjG2TMP6Qt4/qIfquePOj5g7aMWVMZHn8l9AcAyJRS1X1AzvDofqfOGt5mJbmH/TlDu7e2jFPB9R98BgGlWmOutoxZktZgkAsA+vosBQCgTeYuSZ4tZnhid4m2PFki+vlk/Wbs2SFnyUuLHBm7wJf8pNsH5i4Zf4W2nFlB786hUrqrGPcxbXkAADmB04YKrTzuDdlpSRKZRsmb8zOuxtkEtWWcCQ4eyXHd6C8IclfzTRVtObOgHNt/SOkNORUAAG3DeeXFVh+Lk5doy+Mb/l7LK1Q/zt8+OFCtbzXZc/mgGF83bF45HNti/VaJ628sjditu2n8dyf7zbXPm+qOPv9db2cgmsHQj/yOZgBw9kihwlycKVJbHABAjqCV1iGCRntHbXl8wkVySMbrfDk8cgQr6c8b+DQ851ZIHYOx93l7Xuf9u6/Vp2VpH6mvrT57CgDsapqfH9Qed5/wpw7B8VmgLQ8AIEeIHkCK3aHa8viAE+GUhsc2IxmPVXfCfdY49wDvUBT1bns5bswR05dxR2jLAwDIEeV4/DVixtq4C7Xl6QQ+zMb37Gnl9Lao5j7ZutP/Ay6mQv/uPK68x7nqtZ0g2tpm76Y/r+NSwjRGP6M/v1GuNT5XqdltOFFRHs+gkDxHyumnXtaWBwCQI9IkJMbeK2GA+Nu4zzr1ncJ94ZU7X3ckGb/UPG1tzyDHfi05+NuordF3amhyzdZbn08WpLc0jNufK1VygDe4KHmW9nycDOrv5VLy85kMbXkAADmDDORfpYwQVzXLsu+8PT9oxl9Nz96BHMCe9OfPWwcbjc9Stmj5a3xIjh0uBYMn0T/Pj+LG7EFj38oHHbOcs2tJ63EYOyYiH/0OvwsacgAAcgw5yu/JGVo/GQF5u76Zea/xBS4/TAb8HDLkN2EVjybT7N1pwSNjT+SyzpWa+wTfhPBZpbAybN8s1f9+y8MBABBCNiNg76lI+Xsun/4mJ79HapCNu1pspYSG1lGzdQo4F9P8O40/KUS1xqyBWv21EoGBZB0JDop77Q8AoA/ZdVHyVLFa9sbe0e5hLDaizUOI9TIZsF/R379U6jwCGprPxvOU5uy/6J+P5UC1VHPv67SQEQUXv5XqD+9YdPf2AwD6HlrdXCNljHiFNNkzOMMdr+zTlZSxf26d6lY35mhoUo2vLaZzm+d47D4+VE2eM+U7J1VLIv0MlmzszzoAAApNWfA6Em9tzl+QPJ4DATJOQ7yN39pGxfd6tL5rkwUFHAyniY5knjGsbT8AADkmqjZ2EjN6xq7wWTceDS3XjQJhqRoczd9zx2vbDwBAjkkT4mgbRjQ0tC4aEgABAHqEViY36xszNDS0ThoXqNK2HQCAnBPF9hRtY4aGhtZ+41TVeUyBDAAICE6VmubAD8CooaGhtdmMPVvbdgAAcsjcpcmLS8buXo7tBWJ5ANDQ0LJsh2nbEQBATuCreeTs9yHDcSmu5aGhFaAZe0czU6Ed4qBe28YAAAKBK+JFxr6bDMXhaaU0bWOFhobmtxm3iP48nLMThlSdEwCQAZyEpxK77cqcptTYO9UNEtqjWhTb+7kkcWRcrVXrgEvYnlOO7akUqB1D7cf0/32fd2uaOzb2y7zCi6r1eZyPPm2x+3grs+IjW9W+i0vDTteimn3H5H/Xbf/w75tGqZXIaahi7DfTfhi7L/13h5AMP+f51Vp5nk3/3/n0v6+kPl3fDDTt3fispN+4AmKzwJHbsTKcPE3bNgEAPMDV8iji/wg5jeOQYlfZ6Bp7Elct5PzsUdVtyw537pLxV3CuBc4Apz1XsoTrTDRzTIy/plKz26RztNrYiXT0O+1x6reWJueiYK0SN3ZGMABAzuHtPV7t0YrrZ+l3wACMDJozs5YlT9aeG6HDtetJVzcEMF792Ywda6YnbgxwkKY9HwAAbcDb+/QC75BWEjN2pbohQZtoVNfQuLxXe47khfRThKfPBPzpi377AfU5kYdm7H3pziEtJpBTAIAA4dO99JIeIJpDvB+asQ+V05Wm/RP9eVgltru0bkGIP4tLGmvPk7zBc9rPuLtFvMswuDR5Xqlq38nnGdJnGXtyFLvL8ZlsyjlcI918D7cJAFBmfpI8tmLcx/i7HbWGtnEItbVWkYadPBmwgzk3esXY91SGk03W12l6KyJ2V8kbTntLp/XgAY3HouQJNB4L/cwLd+B0z559c/LMUmzfHsX1Cv23h6aHMI0bEazSl9uW6sDYv1Zi91k+X5TVfACg7+FVC5+2ppfwJm1DEFRLv1u6azllMenmu/TvduS8BuxE2tUt/cZXPfVvB59zosiUTf31FLzVxZ0YBYZRrf6mTvtTGk2eVDL1NzQPK/IOBQWWsbuxX/Nm0Lt2O9/8GKyNvczH+AMAiEEz/mp64X6NUrqOnf2y5rU4dxAbYtYNn3/oRb/paXRj7/PQ15Ol5kC/0gro5J1X7BZKrWB5h4c/J6RXMmN3NAUH/+qrcwbNMy7/4Pexk6AbADANlZp7f3P7sQ9XGMY2yJAuJvlP4NU5Jy/hugQ+9ExO5nTp/nMxlnKcbOyjv/0EB3c+Ps00m93PW7+T5LF8xTOKG7NpHv+EnndxXwQFaQ4L+92havIcX7oFoLCkp/lN4wtpEhjtlzk7o8EBjkkPYlXt1/g7fVZXkMrpzQl5mdjwZ9H/fqAyUn+dj08B6aejkfGXZyUHnzNJU25zIqVmwiSj/u75e6f5kO2xnOchK/0CkFvSLH2mHvFhI/WXN1tDsaI0mmykofM5C5MNybGMSsvEuzYa8hQZf7cC7N/VZOLdLe33z//7vaZ1aHA7XCUEYD14q5DTq5aLvBqYodGq/y0auucT3h4M3n1RLXmRhjxFhq/u8SchH/OvZBqfz1oe/lbOwa/2u5dxu4ETDKEOAeh74PjXtZmuZfkgGq5vSSswKy0L5xPIWpZ+Ib2a5+MqnrG3Zb0LVfb06SkXjYsSIRAA/QrfoaWXIFZ/EUNpZBCy1H8afBn3L2k5KJC5CNucfqFx+6WneXhklnKkGTu13zvllu7omMYXEAiAvmDQ2LeSk7hE+8Xr/cW1D9LLe6Hob2Z4GIsr54nrxdiH+NR3VjL0K1w0iZznreJzmnMDDNe3zEIG6e1/fhf5ndS2C93r3i2Jau6TWegegMyZFyebpqVcc5xJLC0fbOyJ/NkiPaFPK12+ky/1+1xWNoux4KuEfkoh272z6D94zGPSLJh+HNElWezgiPbf2Dt4Bc1JirhsMxcA4+yT2vaiO1ncv9O6AwAUAT5lnqagNXZM/eXqziByKtYfpIf0JjGM9MIeIfi8S7MYEw7EPBiuq3tNRgQ6g5zcH73M+WpjJ+99j91vBOfe8Y96AL2rXFCJ/r/9qV2TqzwizaRCv59XHdvc9zgA4A2azDvkLWUvH4qjPv+NovDdKouTl8wkYzP7mdCzjV3NqY59jgkHMuK7MJywqIu0sqA3hpYkL/CUvXEZB+6++i29/V+puU/M9Ewu4EPP/DoFHldo25gO7ME49ffHleHkab7GAgBxOK2sj8xy3lpzdXAxpzGduyR5diey8mE60e+xxg75Gpf04J+XYj/uJ776DKbHV/0Gn7dSJLf/+bv/0PLkKZ08n1fWadVL3hnQtj1tNXsrH5r2NR4AiMDf4VKD5GNV4sfILeTv1r2W95T8DEAG7Z9S47E+fD1PXI+0WswqYyF4NGkFR+Ou9TCuYwPx2Et99JmzXQr28/966QsX8WkWF/OTX0G22XPxWQAECRsLH9fKpBtXLuPVDacjlZJd+jPAZKV6e4Vz8tOq5x5xfeLksjq+cgPQb54l3ddW5slVcv2sl6X6lt5Q4iuWxq7UtlPTjMmD1L6NMsQgGPhKWchFPqhv99OfR1dqdhsfJ5zFPwPEdk/pPpJhO05ctz2uvoAcXg52UivV3Edk+9mYLfhe204/2bVDs+Rx4/OcvjfgW0vXcX0IadkBaBteVbITCOBlmKpdWTL1L2axRS36GSB2V0j2jQMfaUPGAR/S/TkXYU8AACAASURBVIaDr6udNBerkuVtW2WsZfpHDlqqX1ORXl829rtBXivkQk5V+zVegPjWAwCPgFcGnD5U/SV4tGO6n7fxKnH9jZnqQ/AzAB9KlPr+6u0bcWz3kugfkCMtpOXH0Xxdon9cHlcy9TTvPEr0qx3SQmWx+yyf0dG2cY/SA/Wp13NMALQHJ7+J7X6hbY2l3/YpGuYsaRpq8XAbYF+JfvGtAnmH4K5B6tIAoXfTR5ZNPjsiUSeAb9kI9snL9n87NMsZu1+G9NmT7PG9GgWdQB+RpiA19mztyf5IQ+AuopfxMyE4JNGkQAK1AXaOk6dzljRRnRu7hg+dSegLyFM29ddzXgbxd824Q3rtm2Rwwrk6JPTVC62UzHsF9XmAbBAOCAJxOOotB1K1j3cfOAtaaMlnRD8DUBuo1rfqpT8+Sv1yBjcpfQE/kBM4St6x2If4e3i3fSoNj20mmY0vy+3/mUgTG8X1MvVrWNs2ttrFpdHk+dp6AQWBjP7HQ9juSrP0kQMqVcdfpa2TSWl+HhkVk7eHBDvNa5l2XFT/xt7rO1NhFrDBnn1z8syyGdsiLYlMjf+Z/53kgTct+EAgzcO7xd8/447rtk/07s4XnIfjPFaSOpMg/Qxo3KfJRl0egK1cnt56AqAXorhe4SphqpO56ch+noeDLmQkDxCU+85uHRKN2ZkejMoe0vryCRtkPgzK/W4Wokorxt0+o6x8uNXYBenfob9bMvU35O2kteT39gl6aZTj8dd02pdWBsobBd+LP/rQmSRR1W1LwcBlmnaT5kA9Mo2Sti5ATmHjp1lEIz1oaOxpvDrT1kW7tDKLiemsmxSgpZp7n7zxd4vy8G2R86bzaXgOgGQTH/GK2p7BBjUPmQ/9pX3uPDlQ6gxl+7GDD535gKsTqqYcZltk3P7aegB5onma+Meak5YMzZ+zqk0ujWxGRHtuJ89ubUNeLT0mlZp7vy99SVCqug/QnDkpm5rwdhU953fs2LTlno70TIqHAJ4DzE76wboStA135CEQfQRsT2uNWWXdM1Q/z9suFlCg6UDsiVoTNT3VH9jhvk4hg/clQYPX6OTwFR+Okh8X+3uf+uqaZqD6ceVvrteVTWMgVOMqmnf/4TnpLmv3+XxSXjIoy3PhKQ5c2DZEsb1LZ67aU3ePkydq6wGESnqIzR2rNDlHOUrWVoEEzQNmdkzO4LaXE4Cv/bX1jbsTgxvbB7i6o2+ddUprW/kGnbk6mZ7cwk5XxlmQVub0cIC3VHWfauf50nko+DyGb535JrUPtCLXOVtlzy3CQVfgAZogRypMyFXs4GYtS56sLb8k6dkFKR0ZN9JODQO+qy0+PkIJiaTg603pDpXi2ZTpGn+66uW6nA94DMXljN0Szo4307MlP4fRM6/PQl9Zwdd8eccz+3lqz2hn7EAfQS/qjzKfiMb+le8Ha8vuA5JvB0ldzbS6ZKfDd7WFDcUoF0bJSGUzUq41PsdXEbM3mB3Pa64mt6O2vtbCwbXk9dS1baa7+INm/NWyz7Nfy0pnmcG7rqbxhazTqvN5mVA/W4GM4WxWmU6+9BtYY4623D7hCFtyO550dsp0zyt7+HQTyicZ/m5JK6WfZTlHRZqxJ4ays9U6hCYso711aHnylKmeSf/N4YLz3xU5uQ2nNfZyXmP69msf1VFBjqjEbjsvqUOnNhq/56Ig2nJnQWTcTwUNoK0MJ5tM9pzK8Pgrpb8n8tZk1vqajOaWv/ythgzblaEkT/Kx3cy16Sd7Fgc+ktcwuYpg1vrSgM9WSJ/jmbbhimD/Eo2Mv5yc/4psJpq9r1RrzNWWOUv4wJKssXXfn+w5oucNmmPVyLqa4mTMq45tTgYqzswYemppoSp617T1ybdrxIt4GbtysqI84pUJa43PaehMA9Yn7/hlMj/TK9fuM9oyg4xJr+fEbkk2k8xdxsZcW2YN+OCSmCOhlcH613hKI3ZrDwfijtXS11r4gFSI5aZ7MLS3hZDXgtP5epDv8Ec9J3ZXCOpuRUhnUbIirS8gfq7n0S296dNj3RGQM8iZ/CEDo8dZqA7p5xOnfHBJVq+PPDvBmdlEjYGx984ZSZ6rpS+GMz8Wyvmv0+2d2jsB/DmCd+OE5RqvLE5esvYZaVAq+vvuV5o60yQNhDNJIGRH++XTbN+Tnjr1b+wejKqNnbRl1aZ1uEcsJwCvrNb+dvqJQXj1T+P2DU19leNk42wMnlIzbkT7MBsZ+73l5bInrvt992vZ366/XlNf2rTye3hfsPEVVm1ZgWf4IJlsjvTJmh0tQsIOKURToTaN7dtav3u6sAG4STNTGG/z5vzAX3t6piBOX8/2ZuG5s5odNf32RmluD7nfvlRLT6FBev2W7/wXXPxNW07gi2a52nM9G7gbpjqt3q+QcXy3sLE9iauyiR/oUr6aGRn3S89zM5jG1xo1dc3pi+Vlsn9JC4iJ/mZjtqaeQoN0sqNoltH1m7H3TfycAwpEJW7s7New2Qt4u0pbzhAh5/YfQT3X6UX9u/D4XaeZGMTPPfWwm+bp61a1QLEDqhPm5t1iv2XsHchd/2g4DbbfhFj2AuQHKBi87cdbvP6MmT0dL+vUkH6+ou1wph2/mvuwlm6GliQvyEWGP+lm7ArNHAHlqtteXQfTzUnjDtbSTejwjRKf+QK47LW2jECQKLb7+Jss9qzclejMGL52KfxtVNIRLdDUTWZ3ngNsJPsJmrqnOfkPbR1MqhdjV/fr1eF24SBAdMflEW36LI8gR3D1KX8H/+wF/XhHtxs83cHurRm7hq9taemkYux7Qi3sk5X+KzX3fi3982Fd+bMkIno5W0sneaJ1E8hLMrepsjyCnOGx0M+Vuy5KnqotX16IqvYt6oZ1/Zd8hhoDXmmWnw6mpK9iu07zmyun5w5AB4+cl8Z9VEsfeSOq2Xf42F3kz3LIDZBzeBvHS4Ro7G0h1okPnbCuufFhwrEttHTBec/1dRBM20FrHAbisZemc0FfB2mLYrcUleo6oxK7z/rYSaOxOFRbNtADFMV9SX5SWMtbt9qy5RF6SYe0DezDzbijVHURuyvVdRBII0N7ueZYcLY9bR2sa3ZvTV3kFc66Km8j7EqcBcgxZS9brHZPbbnyCn8ykU7F2uWLPaa5g8NXmdR1EFgr1dz7tMZjXpxs6vV+eZuN0wpj27k7ZiXJ42hxdr78uNQHtWUDXSCdgKbVLsX2XG/wylvf0LqfaOqgmcxIVwehNe0bAZLlq7tuE1IKg87h4InzJwjbimu15QJdwEZe+OUcK1XHX6UtV94ZqNVfq3nynat/aRb84V0Q7oO6swmu2VWah2rTQkHKV1UHjX2rlvxFgcuuS49LKbZv15YLdAgFADXJSTBVPXrQORQA/FXR0B6kKbt4rfhCNd10zF6+I7fZothdoil7YUiSDSJj/yk6Nsb9SFss0AGDZvzVsi+nvYeT2WjLVRQqsdtOxcgae+/gouRZmrLTXDpT18mG27jqm+bYtKpXqpxR4VshmrIXCd6p5cPacvPSLdaWCXRAxdhvir6gxu6rLVOhSKN0yfoA7Ta7n6bYzRz09i5tRxtus3drn7EpG7d/5nIbF2vLXTTEz9koXhkGHUKG5AypgaeJ9CCK/MjDpTezdi7a4xjV6m/Sd7Jht4FqfSvNMeKdPv8lw9ezMbHdVVPmIiL+rhn7VW2ZQJtQRD0iOPAna8tTRLh4EidUyszIGvsdbZmly8UWsZWM3V17nChY/F5m85KCjTkLkw21ZS4iXOdDbqzsqdrygDZIT1lL5veuuu21ZSoqvCWfiaE1doX26r8prztW28GG3jgpj/Y4pcWrjF2ZibyxO1Bb3qLCh0oF5yXOAeQBvrIh94LaVfMXJI/XlqmolONk4ywSsNAqa762rAwZ+4u0HWzojU9wa48Tw7d+MpB1nMtBa8taVNKrnUJXjsmGOJR8zwHCUd+F2vIUnbLnVTGf/OeKkNpyMj5rmBelkaFdrj1ODM8Z3zcCyL78r7acRYeC7oVS41WJ62/UlgfMABnZr4i9pMYdoi1P0SnH46/xmRgolC3W9MxDAA42+EZzYejq5H+0x4uh/vzQp5xc015bxqJDuj5czJZUGztpywNmgK/syb2o9bK2PP0Arfr+4sPIcsY9vtutLR+TpinVdq45aaHs2PCY+craSAuVv2nL1w9E1fo8qTGrxHYXbXnADHDWJrEBr7lPaMvTD9Aq/UN+jGw4GbxKw2ObaTvWvLS5S5MXa4/XWiTtySNsS+y205atH5BMOkbB4D7a8oAZEC02U7Xv0panL0iSDcrClRs5f4Nmzv/14e1ebceal1YZqb9Oe7zWwnOI55KwjDfwnNeWrR+o1Ow2guP2Q215wAzQavLHUgOOIhAZgQAAbUJDAACk4EWcmE2J3S+05QEzIHm3nLemteXpB3zVBsAngHy2fvgEANuSDVHNfVLQnqiWEQdtIJltjdPVasvTD/iqDohDgPlsfXEIMLZ/0ZavHyjH9UHBMQsinwiYBslyq/w5QVueosPbvbgGiPZw66NrgHwFVlvGokO6Pkxu3Oye2vKAGSgb90GpAY+Mu1ZbnqJD43W8Z4dyXygrSiQCauOdCyQREJeNzqA08LHachYdWgBcIjdeuBYePGn6R6kBpyg9pINkRaM0mjyf06F6dyzG7a8tK4NUwDO3fkoFTPblIU6HrS1rUZm1KHlCU8dCc7PmPqwtE2gDGvQ7xAY9bszWlqeokH5/kIljMXYFF3gJQF4UA5rpfQugGBAFphtlVQyIDy1ry1tUSL87SI5VZTjZRFsm0Ab0Uv1D8AW9QFueIjK0PHlKFNu7MnMuxu6rLTPKAc/cAikHnE2Vyua8vIMCjidpy1xESLenSY0T2ypteUCbRLE7VPIlRREIeTitZpaOheuua+8C8DzSdrCht4FqfSvNMWqVAl6R7dzEbSNpWsWcBCuNYiGYG6Kq21b0JTX2RG2ZisT8JHksBWnVzB2M8lmAptwZ7nrkrdFqWDtBTibf/h/dkBhIGL6yJzlGuBGWI/gaEZeBlZsAtl4ZHn+ltlxFgV6mj2s4GJ4TfLpbU3aaS2eoO9pgmz1Vc2w4Z0QGJ/8nbagNIAev/mXtv+PFwwe15QIdQBPgD8LG6QJE6TLQKutCLSdDzz5YV/ZGSdfJhtsqcWNn3bHxk/WvrWbseZqyF4mycP4GDib4RoG2XKADSrXGXOmXlH9TW668UxqxW+s6GruKr4pqyT9nYbKhr+xy+W521a6LkqdqjUvrSqp0zv/2GxIDiTBQq7+Wd2wlx4YXk9pygQ5hQyt+lcfYOzg9qLZseSaK3W+0nQ2t9H6qqgNjf6etg/Ca/a3mmJSNO0JbByg20xuzkuRxpMMr5MemMUdbNtAFbOjFJ4Oxf+eJpi1bHmllVxNLzNHDGI4NmOSFWnoQP6RaiGbfqzUe8+JkU9kT49013mrmhYuWHvIOzaFvebAVKzEmOWWwNvYyeqlWe3hZD9KWLY/QC7qXtpFdZ2zdLzV1Qc//l7YOQmm0artccyyoD0dr6+BhXVTr8zR1kVc4qI5i6zzMTZz+zzN8uEb8ReXvdcZ9Wlu2XJEkG6hc/Zuy2fpAPPZSLXVIlinNe6sY9zGtcUgXCbG12jp4uBl3tZYu8kplcfISH9drefGoaSOAALy16ONF5YNclZrdRlu+vFCqug+oG9dHNft7NYU0A6KF+jpQbsZdo3m7Rv62UO+tMmzfrKWPvMGJm7hom49xoLnxZ235gAC0Yj/bj/GyK6Na/U3a8uUBepn+qG1YJxm/NZrGlnTybp+lkINvqex63/6jqn1LiPonh3aclk7yBKcTJ31d7M02YIFXDDiJj4/vQ62JshKpgqdnaEnygqC2WR9pbC/U1A0FASdp60BN97H7jabuObeHtg4mn5P2QS5IpKmb0Ekr/cX2XH/joJuUCghDxuYYb5PF2NsqI/XXacsYKpkWV+milWruI1q64fvn2VWeC6dxbQbNUtsU+H1UWwfTtqrdTUs3oTNrWfJk3p73p3/d80HAA5z8hQb2bm8Gzdh7KzX3fm05Q2P+guTxpJtb1A3qtM7ILeQ8/Vo6oj7sqK2DTJvyIVq+xkv9uEFeNjn7QgHKf7T0EzJpqWZf2/7rdP8TbTmBB6JqYye/xs3Wo7gxW1vOkChV3aeEncd9fIVP3ik1BjT1xElg/M7NcJp+IiYP6Zj5tpGxX5X8zVLVvlNTT6GRZmv0fnDW3sq1BLRlBZ7wfuq3ebDpW9pyhgLp46+izoMcpY+iLTQvbtKsy757nDyR+nGlX+MWQDPu35p51XmMae4sE547q0um/obm6tSuEvzd32npKTTSFOLG3ux3bto1mp8DQQZwKl/+Zu/b0HGgURlOnqYtryb8HU06ERPn+ubf5tK+0mNWMfabmvoqx8nGYeVKkH4nXE2zDgMTxXYfcdmMPXndGLpfC/7uGAe7mvoKAd6dyyhT49HasoIMKFfd9p4yBK7fzEC1vpW2vFqQMztU2IFcuPa3d46Tp4uf6TD2Pm0HNa86tjk5qf9mMDczbSTT8tLw2Gaaum1uIdv7ZWWz9bIZ22LtM/hasKjeqvZrmjrTJC3rHrufZTM/3VLNYlQgY7zkjZ6spbnv62VtebMmPfwn7Mj4DMfEZ/CK3cOY/VpLZ2uJhutbFikIYFlCuCVTNu54D/L9fP3ncGpjOd256zV0pc3cJeOvINmvymR+GjuOO//9RpqJzZ6SoRE8pZ+283iXRVSHxt62/rdjTgQiHmQYuzqEvA68Wqb+mKzmp79575Zyul1tffLKXHrXj7OBTrZjJH3IkM8XaOhMC66HIHmWYuZxrFe0ZQYK8H1Szr2dmUEkJ8an4rXlzgJOpCHsSA6c9DlVu5u8QXAXZa2vyeB78n7Km2ZlWHklnGysrUcO9ssero5Fxn1/sseldkX2SmBfXEtrfaI5M9M5qnwjBSjTKgXq93Tp+s3Yk4u8G5CehpY8tGNsY+7S5MWTPauVEWxU3DDUGrOy1ttk8HdQClIPCTFl7bT6i90xmqf9J1KuNT4n7zjsnXwOZapnchU5wWfdzp/UstRZpqQBWn2Q5viKTOepsX8vtF5Be7Qqgi3PePLdVjaNL2gWQvEFyTYkrKuzp3texdQj+TGyo7ySy0pnM0Erlc9kbiC7aJzhL6RdrtZqfNSDnHtM91xOPy75PM2KiT6JRsZfTgHOP7Ofp+563PcHD1OOx1/DUb3CRLyoaDcFSK5LJXU0k0NpZXYbFh8fY/fNSmftMLgoeVaa0jrE3YA0u589UTO972TQO/1deXntKOdtmOnZku8BXyvOQl9ZMWdhsiEFtQdkdL3vkbqMXVX7tg8IED5so7LKMrbBCW6KEJHyboqkg+LtT94Gn+m5lZr7hLyhsA8MmOSFWeitEyrGvof6d13m83TK+euuKVftu7T1sj48djyG4vNivdsoU5Fua8vZiLFCFAhKD183ZmulB+dDqSG+0yAQuDysxk5Ac3Lauyqx3aUdhxcqfDBK+IX9cfvP9rCVOCHJS2iQ4/0gZ9bTmKvp2Bh3bXpWItDPWLRS/70HuS9tV15OBCZ6mt3YId8680mz/LK7TG++2ls4z4a2HkDgtO6g3qhoWGscJWsWqOmK9DCPHZXUxdrMf+3A1/fEEzzxbkaAq9uJlGrufRQ8nuBjtfuouUnP4GfROL9XW+7p4MJc4vLTXGAn1kk/uOSxYB8u9aUvn/DnVZovZ2h+ugrlOirICemVFFrhaE3YdNIatzjkFdb6sCMSfmkv77QPpLP/9TAW1/E5Ax86k4S/q5bjxhwytKdJ7mLxb6WprePGzvwMbTlnopmEyl0v70TsCZ32pfW5RqwPvDjxoTMf8M2d1pmVhqYdpXYDtv1BxwwtTZ6hcUL1UY23eY37oLY+ZkLa+ZLuv9RpHyrDySZ+VsL2yz505g0KGvlwacnY3an/R/M8buemC/836X9r3K/476YHVHMSgK6Fxmov6fEnnTzIV4Y77gzvihkXy/Vj8twDIcGpkXnOpWmStW1nbP8x3XVNAKaFT/umUaz6RE5XxFdVYvfZED8NtLLyyeVZN/YhDsC66YuXgi+xvZtP4UvrLWt4dcyHTdOaA5xymBr/M/+7ItyJ5p076UqRzXfPzu+2TxQ8fFvQBtwYakDGn+u4giHpymnbytY7+/tQclGAnNNKVJH5lZUpjECV01eGNLn5ZLSojMae1G1fmsmBfFwLdEdJ6gzIw1cRxd83Y2/hALfbPvHOgeTZlKhm3yGps14ZNPat5Gz/lFGBtXbGi/ph9ws1UAI5hW8IZJ41cAbDxNXCul0pS8LfnSVlq8Ruu9764z4ornP+lmnqr5fSGZClVLXv9HHQrFRrzO21b7wVLffe66evTc9Z1BqzysI5PwTe0ZVFTZoEAoBzm0u+zCIGgU9mG/crrYprrWxrYteduMCPxKE7Prgmr2t3CVYW4dE6+LfQw3hfITHeXBFUrE8U+GvNQf5URO/63iEthCa0G3DSH3iHv8HTS/gNLiMZwKR/ZDN2Af25Y5bfczlTn6jRFSp+km69ejgQyKmHJfoH5OD30cO7tEaqTCwfRGuWBhd6RzL+DJDufsbu2Cyr9HXW7O/zcEMFFIhm3Xb5VYfQC3ErfwebqoiOqB6M/Z1k30sjdmvBvokdwHrY+Bp7ZxEOBBaFyuLkJV4ck3HHS/ZTckcqi88AaSIjruvBmR7V7dmU7+K9ZdMY8K0LACaFbwm0qrVp33Wd6gVZzVWvOLGQj+I2fOAufQml+hu7JZL9a42P2DWsCf08RrKfoHto/v1ZfnztPdKljCXTVfNnAC+3gZJkA9714PkteqvHh22L3UWl4bHNxHUAQKdwtjh2XtovxQxGgx310aXYvl1Obre9aD89FOCh393Bgy5XS+oRdAdfi/XxrnBKbum+tkpX3y3VRz70KNW39Apf7A7UzIDafuP8AnbvEK9Dgz4mfcHJgUl+6/PVmsGK/V6vmcUi444T65exa3xF9LSaOUdch8Zdm4cMgUUl/a6efuoSfzeu8uVcaM78Uu59cUf00hf+dMI5M3xkTfRot67CTRwQNAPx2EvJmZ2n/bJ00K5Lv5WbsS06kbN58treJdiPi32NSavuuPihzZnqwgN/kP6PFB9PY1d3mu+/E9KrinJ97fgzwFA1eQ7N2V35NkuQZaWnapzcydivIuAGuaFca3yunfSrIbU026Cx3+TVwUzyRVW3rezz/abbpdXXwT4ME6cf9tlv8GhaOTnEz914P9uRpgaWu0LXzmcA3lVLU0KnZ4FCydLXkV04A7n8QS5pFmix+2VRqc1Du46c5gFsbCe7d8yZ8cSeRcZ8zkjyXJ9jseui5KletoyN/aPPfoNHwuWyeW6Kj2Ns75q7JHm27/7Tsw6Te28m+QxA7ypn52t908/N9v4k79VN1P+P+x4PALzT3HpzP8tnBN68+sZpVjn7FzvSNBdCbP8rZ8js37MYB65o50M/nAshi/6DNOvkvl7meLU+L4v+t+7Uy/SZ3kF+F0ujyZM4+yXbGB9BbrbNriJZ9vdxawkAVQbN+KvJgJ2t/5L1YHSMfTAy7kLJ3yyZ+hczGQBaHaXfP+WN1q0hpGQuOqXq+Kt81OTg0tNZnionBzci9z66C/md1LYLvY+BdXxI0vdOIADq0Av77tBSCiu++DaLrde1ULDxBi/fj8l4ZSVDP9LcdZIP3tjxVOL6G7OUhZ77Q+33LqTGuRx4cZTlGACgDh/iocn/N+0XULUZe17Weudvpx6M2GrOB5G1LP0C6XY3P85HJvV0JwxU61upv3cBtOZOon1v1voHIChaq9LTcnU1R8wINEpZ6ztNc+rnDnmVv8dmLU/R4ZTWXjLTGbuM54KGTOT8Fmu/e4rtUhzwA2A9+A5yKxAIMrWwdOO7+eQwN1LRdbOcqQeZ3AEa8hQZCtbO9TFWWoc30xwaxv1K+/1TaBfz9WENnQOQG/juLr0sh0vm2Q+ypVkT7alcza1Uc+/j7G5Z6tlPwiZb1yrNXETKcWOOj7lHc+6sLPrPyWvK8fhruGhNmZMXGXdZEQ7tdaTr2J5PwdYHstA3AIWhtVW9ZxS7pdovcSaGgjOxxa5Kf57EcvM3db526Eu/nLXRhzFO08lmWJK5qPCJcOFsk2sd0gM+KmVyOvDm57zGAFfsK/OKN585QCR0bLlSKOtDWs8A9BW8iiCD8hmOpPvtnEAaFBhX44Q7XL8gqrlPzquObS6l2zTQ8NPv70r1sV/hOu9e5pWxX++1b6XR5PmV2G3HmTNbJbFvYKen/b5oN961pAD40HlxsqnEHAAATKC5anUHkxG7TftlD8DQXNLMSGi/XKm59w8uTZ7XqT75ehlvy8r30dZRuKR7+JCYp7lzXSe7M1EteRH15UOciz79bm/sgjQxVgDvQFDNuJGoar+W9Wc8APoSTomalkM19q/pFTRtAxBKM3ZF8zurO47PFtCfH+VCR9MVEqkMj7/SU4KZhbwtnOW8KAKcVImL3YiPB78nxr5t/eex0+JcAHwwlAtj0Ur+BPrvr/Ry86BArZnZ1P4pqrkPozwvAErwljifPuf82dpGIdxm63y+gE+Uc8rUtEBK1W3PJZFbtdr39mIkcSugY/ydkLcXRHFjNtfn4NTW6c6PsXfoz828NXsrp+tFkR4AAoKjcN4Kb65g7Cp9Q5GTxtcuBau0TWy8SiqN2K2150Ze4MQw/XbOJQ8tLafNacyN+zQOuAIQOHx6vmLqUfqJIKdFiArTjFu0e5w8UXtOhA4XgCFdxerjhdaat3aM2v/xVUzUugAgp3A1wkpsd2kdYMJ5AYXGJ8WjamMn/uwQ1ew7Bmr11/JJaa1MdJpw8qc0u99wfUtOh806KZnG55vXP/XHqq+bsQ/RguHMsml8oR/nJgCFhl7qTTiverMGga2rGxy0tYfTVqT5HoxbRO3qZrEoe24zEVMzpwAAIABJREFUM6Q7nosN0Z+H8LdXMtD7tNqu9P8PcTXF9ABb2twnuTTs+o0zsPGniOnaZH+PGx825d9mJ83Pa7Wvru0HyfBDvvpF7Zjmt/U0m+Xf01zvJEt69oI/sRi7UlvXaJPOvwf5mi0HqD7zbgAAAoJPP5drjc+RYT45PT0fgDFCQ0PLoHHAaezvOLgbWp48RdsWAQAU4WtyvApsrerOx+4AGlrBmrHLeJeGcyzgeioAYEr4+1+l5j7RDAYCMF5oaGgdt8i4/5DDP7AybN/8mCTZQNuuAAByBBmRY7WNGBoaWvuNnT6nKB6sjb1M234AAHIMrR6WaBs0NDS09hsXItK2GwCAnDP75uSZuDaIhpavRkH7Fdq2AwCQc8iY7KBtzNDQ0DprXJUQJ/sBAD1BxuQgMcOUFumxD2kbRzS0EFsr1a7gVVz7Xm37AQDIMWRILhYzSMZ+na8acga8smkMcEEe+veXomYBWj82WqX/l5z+n9NESlX7rtJo8qS0QJXU7xv7HW37AQDIKVxumDOECRqkd0/2nIlBAWe6Y6OIpERoRWqtssKXpvM7dh+fM5I8d7J3gVMjyz3XnuvXQgAACgvXTRc0gG7OwmTDdp/NQcGgGX81l26NjDuYq5A10+SiShxa4K0ZvF5M8/UXHNSWquOvavv+Pf13FADfKdUPrg7atQEAAPQvvGUvaBivk+gTZy/j3QLOS5/mxE+3UBEYoGXf+KAdBaeLW7Ua9ueVfdmMbdFrsh3OyS/VR35XJN47AECfUY7tGYIG81iffeVSpVxhr1mkxh1Bf55HxrmGMshoPTdjG+TcbyTHfFaZix5VGzuxY+VPZD7mclrgSajvXCTKRx8BAAWHDN9tUoYoqtbnaciQnmMYGX85BQMfJcO6R3Nb1v6Vdw0QHKCtbXwCnxNeNc+fuCP4MB7Pmcrw+CuzzpkvfA7gt1n2HQBQAErDY5tJGtiBan0rbZnWhw373CXjr6gY9zEylHtSP49snTVYiEOIBWvpKt4up3++krfs03MlcX2wVHPvi2rJi0L6Vs7nX6ivD0jIzbtg2vIAAHJGqeo+JWV82ZixUdOWqVO4Lnp63oBXgrHdpczbv8b+jgKES7i2PXYQwmitQ3M30Hj8hcbqf6l9nwK6L3MhKy6AUxlONsnb/CMZLpTTUbKxtjwAgBxBBnQ/MQMdu4u05fFBulKj1SPJ+GttJ9iH7Vjepdo9Tp6oPQ98QPIdJqWrSuy205YHAJAjJA8AUgBwqLY8Ppm1LHkyV1/z5uyMXVlOV7jpbYeb+fMErXrvDcAJN8eX+9LM8nhz2kfqa6vPvp55HSfN0R53n6S3XOTG5xva8gAAckTZuBFBg72jtjy+qYzUX+crzTEnY5ruDAUXbOKWntswY1tMbHyIrTRit+6m8d9d//f4GWufN1V/uK+SCaQeoYvYPsDnNvyMYjhInsHhz1ba8gAAckJlOHma5L16NmbaMmVBuWp38+H0mkbc1WjVu5G2jDPBfeS++tJDqdaYqy1jJiTJBoK7KDdoiwMAyAmlqn2nmNE2dkWviVHyBMn7f76cH99QCFqX7LRkc0es1/rrSls5rZMhEDzG1hX1rAQAQBjJRCT0W+dry5MlvDWefqf35wS/pS3jVHDxGX/Bj4t5Z0pbxiyJjPullP5Kpv4GbXkAADkgit0xYgGAcT/SlidruAwr3zv34QjJya4O8VR3pebe71Hm8Upcf6O2jFnDVxnldNgoacsDAMgBFABcLrfyaHxeWx4Nmolm5J1h2oy9Y16cbKot41q4L2IFbCZt9svaMmrAJYLlAgD3E215AACBwxnRpLKQceOT5NoyaZCmIBYMpB4dBLjLfOWi7wTOpkjO5V++5KTA4nRtGbXgA5WCQdQF2vIAAAKH8+aLGW8KJEJKsZo1A/HYS2m1fp835xi7Y7RlpH4c6y3Iie1oHm4++ITmzzKhd/EubVkAAIGTljSVM+IXa8ujTbnW+Jw/B0mtandTk83Yr/oLbqzj6o5asoUCBUHnSul0wCQv1JYHABAwraI4Qkbc/UxbnhAgZ3aCV0dZddtmLVPZuA/6rIVQMfabWcsUIqTnQ8R0GuDhUQBAQKTlcqWcE04ep3CqYDLk13gMAu4ZrI29LCt55lXHNuctZV/ycC6FoPMdZEglbuws9z7ar2jLAwAIGDK+f5UyOLh7vA520D7z40fGLd45Tp7uWw5+Bj/LXzDjqlnIkRfKpv56Qf0eqS0PACBgWsVcJFZxa4aWJ0/RlickSC878D1+X86TdH6ez7K3fKCTsxH6c/72AS6/7Kv/eWTOwmRDsbTcND+05QEABErz6prQd11jl2nLEyK0ej7AWwCQ6t0d4rHvP/LZ96ja2MlX3/MMBY23yARY7kZtWQAAgcJV1gRXc32VArhd0lW04MnuyVoltrtI9zuK6xWvgUvsDpfuc1HgO/wi76Sxq4teRhkA0CXlqttezKAbd5S2PKEyuCh5Fq/GfDlTCr5sqeo+INVf6uuH+Df99dddFEJSo1CJjPuVlK7xiQUAMCklU/+ioBPaQ1uekOHc9mVjH/LlVJsHDsdf02s/2WHQyvFej8HKclqVPl9Cp0WlHNu95OaF+7S2PACAACFjPF/M0FTd9tryhA5fk/QWAKTNjg4uTZ7Xbf/YMZPzv8mj87dcelpSp0WEdLWD4JzYU1seAECAlAXTug6a8Vdry5MHJEu+TrHiu5pPknfar1bugn/77FvJ2N196LRoRMP1LeWCLvdjbXkAAAFCK7JzpAzNrouSp2rLkwdaRYMu8eloaRX/506uB7YKQp3ptU+xPcWnXosE50WQ0709VVseAECASGWr48x02rLkibScbmz/6zcIaL8cLM2DI/w6f7ewm12JfkbsHIZxl2nLAgAIEDIytws5m2u1ZckbpRG7Na3OVnl1vFX7tZn6wTn4/QYi9va5S5MXZ6HTIkG6u0FI/zdpywIACIx0K1oqSx3ncgcdU4ndZz1nClxTqjXmTvX8kml83vPzxyo1u02WOi0KUp/n+OClz2yRAIAcMrQkeYHYKi92v9CWJ6+Qk9zXmwNOm61PVj2Q/x3/fz6DDy5so6HTIiCZC6AynGyiLQ8AICD41L6gk9lPW57ckiQbkLM80WcQwN+TB6r1rdY+Mi04Y+x9Xp8ZuwM11Zp3KAD4vlwAYN+sLQ8AICB4a1bMwHhIRdtPzFqUPIEc8gK/DtkuLw2PbcYHELlug+dnnck3C7T1mme4lK/c++m205YHABAQpZr7iKDR31FbnrxTjpONfaYLbjpmt4Sb12cYdy1O/PcOn88QGxMUXQIATETSwFSMfY+2PEUg/SyTpvT156C9NmNvi2rJi7T1WAS4toPY+4kdOgDARNgoSBkYZAGUg7drxUo0Z+v8x0qxfbu2/ooCn9mQGpvI2O9oywMACIhybPcWCwB6yD8PHk25andTd+idOf81vKOkrbciMWCSFwqO0WHa8gAAAoJPaUsZGKQBlofG52fqjr3tAMDtr62vojG0NHmG1PhExh2nLQ8AICDIKPxIavWHE9/ysE5Jt6epO/d2nEuSbKCtr6Ixf0HyeLlxsmdoywMACAgyDIfLOAD7oLYsRYWvB5J+/6bt5Kcc+9iew45KW09FRSpRE4+TtiwAgICQ2mImB3WntixFpjKcPE2qaJOs83dX4LqfX8rGrhAZL2P/ri0LACAgyKkcJeMM7Ki2LEWHcwSQro22018X9LnanJHkudp6KToUXN8iNF4XassCAAgIWsEdI+QQjLYs/cBAPPZSvmev7vxbGQW19dEP0Du6VGTcUBIYADARMgrHIwDIF+ndcM1EQcbeVzL1N2jroV+QCgDod67SlgUAEBBkFH6DACB/UOD2Qa9V/KZyIsaOV2ru/dry9xOCAcD12rIAAAKCDMPRQsalqi1Lv8FJd8ghr87Q+a+Oao1Z2nL3GxTsjciMn1usLQsAICDIuBwh5CCGtWXpR6LY7prdDoDdU1vefkRwB2ChtiwAgICgVcHBQquLmrYs/UhpxG7NORgyWP0/GNXqb9KWtx8h3d8kFABcoS0LACAgOH2rjHGxy7Vl6TfIMbyb2r1Z7QDws6KafYe23P0GvVt3CQUAF2nLAgAIiHJsvyXiIIy9T1uWfiKqum3JMTyQlfNf1+wqPoCoLX8/Qe/WQ0LvKBIBAQDWQU5kD6HV4Wrkgs+GqOY+yWV3s3f+D4/1OPdBWw/9QKsWxBqhAOBsbXkAAAFRMfVIyjEMLU+eoi1P0SnH9TIZ8oaW81/XbD0y7jPa+ig6aQpoucDtdG15AAABQUb8o2IBwJLkBdryFBly/F8VWw1KOJTYunLcmKOtlyIzL042FQzafqstDwAgICrD9s1SBqYS19+oLU9RIWe7j7bDn7RRQFIydndt/RSVqGrfIhewuUO15QEABERUS14kZmCM+6i2PIUjSTYg3R6m7uhnCALIUX1NW1VFpFJzn5Aap4qx39SWBwAQEKXR5ElyK4x6RVueIjErSR5Hej1W3cG3Hwjsq62zolEy9S/KjVG9rC0PACAwxO6SwwGIwQcq+dS2ulPvvB3JJ9e19VcUyrHdT3BsdtCWBwAQGFHslkgYmMi447RlKQJzRpLncta2AJx5l82ewTtL2nosAoLFupJBY9+qLQ8AIDAEV5qXasuSd+YuGX+FWP13xUYyXDK4KHmWtj7zDgXV/5Iak8ri5CXa8gAAAoOMw+EyRt/epS1LnilV7Ttp9Xy3tvMWDAKWlIbHNtPWa56hd+oekbEwdpzPlGjLAwAIjEpsd5Ey+nOXJM/WliePlGqNuWyks3HM1nLL5FnG3l6p2W209ZtHynGysWQwpi0PACBAOK+8nNG379WWJ0+kqV5jd1AWzrjlkB/k65oV4z6WWTphek4UN2Zr6zpvlGrufYLjfpa2PACAAJm7NHmx3ErD7qMtT17gg3Kkr1Myc/6xfaBUdR9Y+3wO1ujf3Z9RELCmbNwhuCHQPuS0vy039u7H2vIAAEKEk80Ye5+QkzlTW5w8wAeyaCV+bVbOn8b3jskyNZZi+3b6/1Zk2I/T5ixMNtTQed7gVbtYAGDsl7TlAQAECq0GLxAKAP6rLUvocDldqRrvbTrdZZXh8VdO3Z/66zlAyKo/tBq9fiAee2mWOs8jsmOCT3MAgCmg1ejBUsYGxn0K0rS+du8sq/mRs63yJ56ZusYBAq0Sb8kwKFlRrrrts1B7HuHxENR1g6sKassEAAiUUtV9StDgfFVbntBgA0wO9o+ZOdim87+cT5K320cOFKSSQrXVP2NXU/suB0Y+dZ9HuLaCnJ7df7TlAQAEDDmoTQQDgL9ryxMSvMXOK/FMnb+xf+Z0wp32la9xSiafabevuD76SEgn/5R7H93x2vIAAAKHvxXLGB1b3zlOnq4tTwiQLr6c2XW7de3Y+QuSx3fbZ406BOnnh6p9l6Tu80ppNNlINE+DsUPaMgEAAoec1W+ljA4nttGWR5Ohpckz+MR7po6fr9rFdj+J/nMAwSvHTIOA2DoKBL7T71cFK6YeSeq1ZOpv0JYJABA45Vrjc3IrOnehtjxa8Eo2it2NGTtPK16OOUk2IDkOzDSIacpy/oBJXigqS44gHVwqqMu7kAIYADAjs29OnsmrMLGVR3X8VdoyZcnQ1cn/0Kp5/yxP+afN2BUTE/xIw4FFVqmDH3ZcXKK6D7eu+Z1p7uSI6fF32jIBAHICGY2L5VYf/ZN9bKBa34rvt2fq+FPn72KuIOhbvjRddJYJg9Y5sD/00wFBGs8jZOdH4wvaMgEAcoJs+lH7ANe215bJJ81Vv903q0I+j2z2gixL7jZXp24k8yAgtv+t1NwnspJTi8GlyfO4VoOg3hxKMgMA2oZXk7LGu7i7AOT430Yy3pC940/1egwHH1nLPFRNnlMW/EbdkczG/nFoSfKCrGXOisi4nwjr7GJtmQAAOYNWeZcJGu0HOceAtkyS7LooeWq6VZv1t/64uarTTrS0e5w8kfpwokYQQM9dmea1L1jyID70SLI9JKsvu6e2XACAnFEy9S8KG6I/acskAjmdkml8Xi5fQsfB1O0h5XSnvuwleWi0s0DAXVYZtm/W1oEUkoV/Wu9cvZMskAAAkMJJfCS/RabOq9rYSVuuXuBKemXBA5JdOLxruIKgth7Wp2Lse5qBiYZOuMSwPbE0mjxfWw+9EMWN2dK6oTE5XVsuAEBO4etDwgbpzqiWvEhbrk5ppUg+lvPWqzn/2P2at921dTEVpeGxzTItbbz+3Irt/dT2mbUsebK2LjqlWX9BvjJkxbiPacsGAMgpUdW+xYOxvo6/n2vL1g6tw26HyX+X7aBxCuGc3IVvpQ8+WU1XzUBgObVdZy1KnqCtj3ZIC0R5uDrKtyZ6SQUNAAC8C/A3ceNk7FkhGyfOw95K5nOfrjNz1TymcFWqfbBes6PluF4OeZ5x37gIkhf5jd1XWz4AQM7hA2denFuXlep8wtfLWo5/pa7zSg34iXnZKZkMPi8RGVfT1iOvhHlMOcOltk4mwnOf+naOp3frXg5itWUEABSAsqc7382Ss/qnlAeNfSsZzZOyTnU7ebOruBCMtk4kaB0k/YO+Tl3S2s05jM8qaOuFE2NRUPJvX7LSe3WAtowAgIJAxuqDHg3zHVGtMStrmTg7Gt+lV0ndO5Xhjt3CQTP+6qx14Rv+Jq//SWCtc+SDnPYflbixs8aBQS62xYdh/c0h+0A/pU0GAGQAZ2Dza5ztnziXvk8ZmjXWG7NTWQJxSGkztkGrtoPzcnCtGyoj9deFFGy19L6S9H4c/fMOvoMBDuzIOZ+ZgVw/9CkHAKAP4et7vD3t2SCv4e+ildhtJ5HilkugRrX6m+g396Df/nsYW/zry+xGSlX7TokxCp00e2DsDlO+TjlFs6vYQUfV+rx0F0YiyyD9Rpoq2tiTM5HZ2JvnLEw2FBgqAAB4JHzPOjvHaFc08xDUB9mI8vfk6frGV/YqNbtNZBol+vs/bDn8+/Udy9SNc/nn+aBft1Rq7v3srLT1P/3Y2HvSE/rG7c+7RnxOZKaDhOx8SyN261KtMZd+42i+kphln0tV96msxhAA0GfwFrXqNi6XoiXHERm3mP73ddSXpbRyu7uZ8lTfabTtXIy9qVx122uPpybNq5ZKtQR6m4MPcdKe5tyjOchzkYOZ5txcozanYnuO9pgCAApOZXj8laGvrINtzW/9P+3HVf9UkD4+GvpuQOiN38d51bHNtccSANAHcE5/baOXt5bunBj7Nu2xC5FmBkF3iEZlxSI0vtGgPYYAgD6CDM/R2oYvHy09XLaPxKHGosOHIUlnw/pjlqt2pPa4AQD6jNJo8iS+Tx2AAQyz8Y0GY0/iGu/aY5UnmjcF7Le83zgpQItid3mRr44CAAKGv2U3s/npG8OgmnFX98vVPl/Mi5NNKQg4VX0sg212lHWkPU4AgD6Gr0aRQbpO3yDqt7QSXbU+b36SPFZ7XIpCqebeR7q9QXtsQ2o8zwbisZdqjw0AAKS5zaPYXaVtGPWavbti7DdDK25UFLhqXsnUv0h6vlV/rNWd/10DtfprtccEAAAeJq1u5j1dcFgtvQ5p3P4zJSkCMnC6XgoC9k7v3Acw/pnPN2Nv58yW2uMAAACPhlOfxu4HmglRMmmcpTB2B3L2QW2V9yPpZye+NthHBwW5UNTcpcmLtXUPAADTEtXcJ9M67AEYTmHHv4yczl5I5BMGHIBx6dui7wjQyv8szDkAQG7gVRqtWn6jbTxlHL+7pmwaA7jLHyaV4eRprU8Dt6nPFdHGKa7t93CoFACQS6Ka+zA50FjfmHbWWumOj+biLto6BO3BuSmiuF4pwoFUliEarm+prVMAAOgJXjmXq3Y3PsSkbVinNbrGribDexFf5cOWa77h6n3pDpSxY9rzqqNm7EOcCIlvPmjrEAAAxGhmD6wPRsb9R93QrjO4XKDnQg5QhpYkL9DWEZBl7pLk2Ty2NNaXBn04lesgGHc8kvsAAApPVLVvoRXaz7Kumd4ytjfTKuu3/F1/cGnyPG1dgGyoLE5ewnUZ+ES9usN/uNlV5PiPikbGX66tHwAAyBa+Omjqr+dDXHzaWTogoN97gNMVU/sVb+0P1sZepi0y0Iev1HFyIZpzp1NAuDLjAHQNBSGXVGK7Cx+W1dYFAAAEA2/FcwpYdthlzisQu2MpQPgTOfPz6Z8v5lz765pdwP+e2jnk5I+j9n02rGRgP87OHieowUzw9/aoZt8RVe3XaB6dQnOoJu30KdC4pVnboF6uDCebaMsMAAAAgEnglXmzDkG9zEElBZon8qqd/nkx/bk0zT3QOmBIzv3B1v9exkEpBRF/ae442a9VjPsYzpYAAAAAAAAAAAAAAAAAAAAAAAAAAAAAAAAAAAAAAAAAAAAAAAAAAAAAAAAAAAAAAAAAAAAAAAAAAAAAAAAAAAAAAAAAAAAAAAAAAAAAAAAAAAAAAAAAAAAAAAAAAAAAAAAAAAAAAAAAAAAAAAAAAAAAAAAAAAAAAACAjohid8xUrWzsidROm6lFsf0LtfO7a+6SsnFXP9xid+Uk/92Z6z3zxAn9PJD+/z0qcWPnUtV9YF51bHNtnQIAAADBQw43KVqjgOCucmzPpYBi/0rstpu1KHmCtp4BAACAoNB21pk0Y++LjP1dqebe95gk2UBb5wAAAIA66s45690B4xaX48ac+QuSx2vrHgAAAFBD2yErNkPBwEe19Q8AAACoEIAjVt4RsCeVRpONtMcBAAAAyBRtBxxEM3ZZacRurT0WAAAAQGaoO99QmrEP0Z87ao8HAAAAkAnqjjekZmyjYuqR9pgAAPqDNN9KZzZqSLvPoECoO93AWmTs6krsPqs9LgCA4oMAAKii7XCDbMY+VIrt27XHBgBQbBAAAFXUnW2ozdhlc5ckz9YeHwBAcUEAAFTp3DFOyNs/SaMJfdVM+f9pEp9Xju2fpqsLEBlXo//ujsjYca0ggJ59uvb4AACKCwIAoEqnTlGjj6XR5ElzRpLnRiPjLx809q2cwKcc1wcpUDiC2mV8eM9XEFCquk9pyAwAKD4IAIAqeQgAZmL2zckzKSAoU2DwL/EggHMEUACiLSMAoHggAACqFCEAmAgX/Ckb92/hIODr2nIBAIoHAgCgStECAGZ+kjw2MvYr1B6UCADod+6ctSx5srZcAIBigQAAqFLEAGAtlbj+RnLeNwntAuDFAwCIggAAqFLkAICZFyeblo2Le98FcP/RlgUAUCwQAABVih4AMFEteVEU2//2GgQMVOtbacsCACgOCACAKv0QADDp9cHY2h6DgB9qywEAKA4IAIAq/RIAMOXYfq+nAMC4EW0ZAADFAQEAUKWfAoChq5P/6fU8QFS1b9GWAwBQDBAAAFX6KQBgyrXG53rbBbD7assAACgGCACAKv0WAMxKksfxVn73QYA9V1sGAEAxQAAAVOm3AICJjP12DzsAKzjRkLYMAID8gwAAqNKPAUDZjG3Ry2eAgVr9tdoyAADyDwIAoEo/BgBML58BKqYeafe/V2YtSp4wtCR5QWWk/rqKse8hfXw6qrlP0p8f5MaHHfn/1+5nnuDPS83CVMnGaZBJbV51bHP+d9y0+5dHKsPJ03h+lozdnd69wyNj/8i1PshxLqG2tBzbuzlVd/rPxi1Kq4PG9lT6bw8rV+1u1N41Z2GyobYcU4EAAKjSvwGAPbHbAIAMzne1+98JXM0wderppw/7e85q2HZOBGMf4v+e/t4Z1PaKavU3saPTlkkTduqlWmMul6Mmnf6ZHU/7dSfsKvrTULuY/s4f+Dcqsd2Fi1gNVZPnaMumDdfcSMt9G3cU/bmYdLS6l9261hxupL8Vu1+Uq277kOp6dBwA9K4LBBBgHf0aAJAD3Kf7AMD9Srv/MzFgkhemBZFie45UUaQJAdC9vBKr1Nwn+Gqltqy+4d0SknsH0uUJ1Jb7NNDN1az9C7U9KsPjr9SWPQv4TE0ldtuRczqNA84MnOBD6U4CBwPSwWySbNCSZaitRoEgAgCgRt8GALXGrB6M9Fna/Z+M+QuSx/M2fnNVahtZGBR2WLyKHYjHXqotvzTRcH1LCvaOI12uzNRIP6LZUVolHjp3afJibX1Ik672q/ZrJN+NWvql+XsL6fhb/KlBQiaaKyfrzZU2GgIAMJFOJ5B2f6WIqm7bro1G7K7S7v9Edl2UPLVi7Dcl6h10rxPrKBA4nrfHtfXRK6Wq+wAZyr9SW6NusCfqN7anckprbf30yu5x8kTe4SD93qat1wn6vYczhfK71JNcEp8sfDYEAGAinU4g7f5KQS/C27p/idwi7f4zze+l6Xf9u9UNyzpDavlbq9SKKkv4QCTp82/aOpy52VP5E4+2vrqB9PtukmFYX4dTzF9jb4mM+0xXstWSF2n3f8aGAABMpNMJpN1fKfh0cPdGwi3W7j8bKd4eVjcoUxvSm/jgobae2mHnOHk66fOXWX02EdEvrVgrsfustu7ahQ+itnQczK7KDPo9Z85I8txOZOTrwdr9nrEhAAAT6XQCafdXivSkcbfGwbhrtfo9uDR5Hr3EZ6sbkvaMDRv7o9n4a+lrJtIrkLEdVddVl/qluXgAHzzT1uN0VIaTTaLYXaGur46bvbVUte9sV85BM/5q/T7POGcQAIB1dDqBtPsrBUX4u3b7EtHq9p8qfW4e8LtT3Yh03i4N7Yobn/4m53lw8N9s22s/19bnVFSG7ZvZkQago65ael22Tac5WBt7mXZ/Z2wIAMBEOp1A2v2VgmQ5svsXyf4+087SCq9s3P552T6d3PC4kVCutQ0tTZ7BV+3UdSLYKJj5vrZe16eZWCqDa33e5y69d8Z+fSZ558XJpup9nVkWBABgHZ1OIO3+SkEO6ZqujW3sDsyqn62TxaerGw6Blp60NvXXZ6W7yeBVGmeR09aFB8O+hvMyaOp2IuRlymxpAAAZiUlEQVT8P0zzdlxdL6LN7j2dzLzLpd/HGecJAgCwjk4nkHZ/JeDDPb1t/TbmZNLPhcmG9ML+Xd1oCLb0qqIZ2yIL/a0Pf6P1dVWSr+k175S768hR/IP+95nUzqdg46I02DR2mW+HSL9/+9wlybM1dDsRkv+90smn1tM13zS5MTLuwmZyJncMtd+0Egn9H+k79vFph8eYP2lMJTdfIdR+v2ZsCADARDqdQNr9lYBegq/28hJlsZWdXvFj5yFvABqtA1lH8zkI3qalleP7SyN267WtmSOhMYdzC/Dd/uZuia2LGVLjanyY0bcOJ9K64ne7oB5X0O+dxAaV6ya0m16Wg89mvQX7dT5pLr1FziftfetyOtL5E9v7RWWK7V1pKmp6bzk5UzvVOIeWJ0/hcWlV/rxBsD/DpdFko8meyYm4xN9X6YYAAEyk0wmk3d+eSZINyAFe3/1LZO/2feqaD6g1c++LvfRrmjsJjTndHsbj3QjeYk5XW8be23uf3NX8eUNad1PByZt616Wts9On3/qQVArkNNCrNWaR4/6XzHjbeml4bDOJvnUKFzySyuqXruCNPa9i3Mckym9zANiq3dDzLgwHbhL6Yjhg6vT5Rcy6CZTodPJp97dX0oNJvTnTk333kZ5zuIgRbRb8OToaGX+5ZP/S1VVcr5SbRW16MPLuJ5L9mo7WqrurQ5StFe0P+Tqb1z7G9r1lmSQ5h/ns56RwYG3sWT33vVm455fSc3YtnKmSD/H2MBce4Fz/Uv3pOAAg/XBtCqnngz6n0xdAu7+9wC8OJ/HpxUCVTOPzPvvIyV0kTvvzN2jfKwVeBZMx/XIzjWpXxn4Nr6Z99nEiXMSpIx3SKpT+zv+WRpPnZ9XHNGFO7H7W09gbeydvR2fVZ4ae+Y3enb/7dyWuvzGT/tbsOzotCc56ne4MQDd0EQAsk3w+6HP6KQDgMr49OtX7fdYW59VJr9vraTW5WmOWrz5OBqelTXPnd6fT5VnlCOBDWm1vURsXc7roLPo1Gem1zx7mASc4yqqvc5eMv6KXMyLNbXn7ZYmt/k5IM0BSoNzePHU3+tiV6DwAcNdI9wH0Mf0SAHBGr9aWeNdGlQ/E+exjr3noyUhdzneRffZxStItYPejLvt+bFbd5AOPM50Q5wqAvRSFkSKtX9/9XMjsqip/q+++n/YuTsudVV/Xh4OO8gyf3EiXC4eWJC/w8fwuAoCrffQD9Cn9EADwtbOer3+lB+n83WEv1Rpze+zfyVkeqpuKbm5YNCvdjb8mqz6Sg//pFP2gALFezqofM8G7TeR8lnblWCmYzKKPpar7VA9BSlXrSuj6UH9+PsV7tYATR/l6LgIAoErRAwCuo87Xznpyrmmz5/rqY/NQnV3eQ/9+nfX26XSQrvbrwmGdlVX/WoVpFq/3/HtDLF7U9aFVY2/z3Tc+U9N1HQXqX2Vx8hLffWyb9HaQPWG9OfFH30E1AgCgSpEDgJKpv0EiDzlvGfOL6qufrbvK3fXP2BNDLAZDxvSULvT87sz6V6u/ae0nIS7uVKqOvyqrZ3dC60po53PY2DW+izBVTD3q8n16kO/o++xbN6T3+Ol9ajnao7IIqhEAAFWKGgBwwguxJCvsZD1RGU6eRr+/sru+2QtCvRLEB6y6OGWdybb1Wkjv+3JlxRA+nUwHf8/vZn54XWE3z3x0daMmihuzvfVLgCyDEwQAQJWiBQBck5ur9Yk4/qbzX+Hz/jetQvfo0vnfGlqFvfVJ7953FgCszvKbMK/4pBL6+IQPsHY3R/ydq+CkUF2+T+f56lMeQQAAVClKANBKQXqKdA5w3ub01WfeYuzmkFd6P73qtvXVL0k6Tg5j3CHafQ4N3qHoZjfL52crrnfQhfN/KJRDf6GAAACoktcAgLe+KzW7DTn9+WXZXN8Tmj3DpwzNnPtd9e3XPvslyUC1vlVHiY2MvSPUzxqakG6u7HSeDBr7Vh994StxnJGui3l7kI/+5BkEAECVTl/iVuWtZuPMarRim6px4h1y0Pt01Thpz8O/437CzyOH/Fs+jU//blHPd/pnlnPpVEU/pEgrmHXaN2NXlONkY5/9koar4nWk+4wTGeWB5tzvbK5wgOylL11e9eSEUT76k2cQAABVfDrRvDbO9803CHzqPb1CZex9XfRtvs9++YCM1qc7M3L+Dl3mldZOV2dz2VOCnW4KF1FA/wcffck7CACAKtrONrhmbIMrkPnWezfb/3x9KvSDf5PRzG/fQYlYY+8IKa9BCFRiu0vn89m+V7ofzXLGndeqyMuZlaxBAABUUXe4AbXm4br6vIz0fljH/YvtCVn0zQfkjE7tRFbpoit5h1bdnwnB6abFqjqft/fn4baFBggAgCraTjecZutRtbFTZnqnF7nTPpZq7iNZ9U+aNC9DJ07D2O9q9zkkeDu/4zntIbMh/e6RHQcAGWZ5zBsIAIAq+o5Xv5GBuiXL6mmt1L8dHmK0q/K8iuL8DB2Oy6XafZ6KdPxGxl/ecso7lozdncZn71byqbRxjvxouL6lVPXIyvD4Kzud1z4CRi6M03E/SD/S/SgKCACAKtrOV7vx4aTZNyfPzFLnnPK28366C7PsozjNXOvtnwOIbZ0drXa3Zy1LntyqIPiNVnpj02muCfrvb6e/ew7JtBdfi+wmdTNXeex0zkifZeGzHN1c/4tq9h2S/SgSCACAKtoOWKvRSub6qOY+rKFzcga7dtHnwzX6Kgnn3O9MZvlDbO2QHlqsNnbirWs+eCk+/4y9o5xupbefqW9wUfKsTp/D2fok9dLFLk7aBpcmz5PsR5FAAABU0XbEWTdy/JdzLnLNU+blqUqPTu8M99TqrxTk+E7rSOaq3S3T/sXJxhSkHEC6vjuz+WjchSXT+DwX/Zmub+nqu9PfN+7Tovrp9Dpn3LxSK9mHooEAAKii7ZAzMbJcavf/2zsTGMmKMo7HRA1BxaAoeEQERVGJCBEQBY/AiveBILDsbk/3LEMwXqABFAVxQQ4RQRZd0EQJEC65RUEFBKK4sIYVdne6Xs+ysMqpsOAGZrqqM8/v/97sMjN0z3TVq3rfe2++X1LBg+n+V3UdX1V99X3KnF8Uz3JaCP9oP5l3DuPWnRUEdLKc7M7JQ1cSaje9w7eOy+Cvj5qVM3rtJ8l3rMNcH+SznaiNjnepl08NVUMMAIEV7sU5zGSqNyL6HIKnIBpa0d6Uk8Zh2zphl8itOyu0gJxoN9npK0NrStICK/MAd5/d3Hdx7TAytlNXrdSvrT7L86sWWsyXOtTnKp8aqoYYAAIr3BOet4kzMudiwsM9JbK8cbfrTLjtNNt1bt1ZsQ8hq28KrGcIzobcfffFk7x+vqbaR3TR+4TdmPCbdpe+/1LrcanMaT41VA0xAARW7Ccns8JjGXHJctajLONuy37AszD2BaY0Rd8a5EdIXiSYs/jrN2v9Lzs8irfaJJv++zq7v+8s8NlsSOVrW4eBqN3wqaFqiAEgsGI7oH1/P96202Q8b0Dp2zJNlkqP15pmP9/6fJNkUmNfWEpSlL4hxG8AfxD2uvVZaAfdwjUFdNN/Xm3zt7VWZ6HPdoMDra3+PMJqlxkxAARWbAd0MCGJk5M5LdNkGZkHv7IqfmUwjR5IAsgUYGEpQyGj8GLv7Y8skyH0Kv009b/l9PmXTM2Iac5AciP6/+5KnFHdPnuUynX09/+x+1vPJwCRuc/hN9zXp4aqIQaAwIrtgA4qJvV0vj7TohGZpUE1ZgRZBrkX1hKVC322PbzsHTzpe/QzBDXS19LnHdlYHW/fr4bFzdEdcCyO+3Rbpz774tcAoLF1r7UG1d7Vp4aqIQaAwIrtgA6tp7Yu3o4mxqecJ+ZkgucJINMPjai9WwEW1lIUWnAu8NXuiPZIi+76TJqQBU/p2+Fch3f5WTXhfh8GhEteiP6Kbx8Ac7ethlpzbGefGqqGGAACK7YDOg9NDdUeyDZRmxFfMdh9gx0R98JaluLTAJgI45tFS7PWMh/1pWc6uCt3ibM/U2lEncN9aqTPvNNeQ3s3nxqqhhgAAiu2AzoXUXH8EqdgOVMn7HNz0WoJEsRwL6xlKb4MgIGm3iOjjqUIFuRDy0wgXgV27bbP/XoV3wZAms/AUkNL7+1TQ9UQA0BgxXZA56ULd6XIgOc8aeMqoKn3yUtvvyD+O/fCWpbiywCAA52TBqXHadE7zocGK71JSGJ9Rdb2C3AC8Et7DebjPjVUDTEABFZsB3S+2vTRmSZBZSJkc8tT82ykho31Qrh8cqrZuVJ8eJAnJy64u3fqQ/pEH7+5s/aoM5/aYKxABsAS676r9JE+NVQNMQAEVopsACBBisvb42mlUFn0XJK64AkZt+6yQu23zM141Ne5pO31rl+Z/V1PwnxHAnTJYolnkD41VA0xAARWimwAgPTOPEO4VqU7RctHjjfjdpOofpJbcylJIv7pRx36zNML18Sv5Za/Cezki2EAmHn2GvQ1PjVUDTEABFaKbgAA2kWc7GwApGXYx7MtX9hGdEMZasbbcOsuG4NK7+nWX4qXetk6lXIAA2BwbbytgwHwqE8NVUMMAIGVMhgA8MB2WTSnTkTmTA7t3XB54VBrmi9w6y4b9JufYt1XlH7i4FXxy7m1Twf+EPZ18Z9CmnQ8bqtj4Zqxd/jWURXEABBYKYMBAPCcKFMUN6U7VPbi0j8Z0vMTe/3mHG7dZYN+75utDUVlzubW3Q2nJFJhDIBbrNu02V7sW0dVEANAYKUsBgDA235nAyCd3Ffn8Z579np05ltrj8xKbt1lg9psrW07N4b1+7l1d2PokXhL27rUVOdQ3zrIqDrB3hDRN/vWURXEABBYKZMBgEQ/tAN5KIsRQOVHnHUAjeGxdzpMouODrdG3c2svCzjGT059rAxE/dxJt8cv5dbeDZcIkgPNziG+ddQi/QGHvttBFkzfWqqAGAACK2UyAECtZT6RxQAYiLTh3uUlEd+UftZeP++79DLhYmQNKPM3bt29wG7euj6tzsG+dcBAIkPpGQcj4Fu+tVQBMQAEVspmAACkV81kBCjzALejl0t0OsSj59RcJuAz4mBgXcatuxf1VufLDn39oBBayAC4yn7M6Ye4x1wREQNAYKWMBgDeaHuIl76Esw4DqlNz0R0yIU2VQOpfewNLX8StuxdO9VHmwCBa6HOdxpzSQyH0lBkxAARWymgAAJcj0WmTvebMVAYjBtcRDpOoOFT1QRpBz3rB/BW37l44xTRQ5oshtMCRlvrhBvv2lVOA6YgBILBSVgMA0CR0QzYjwKwcWhG/jE1/pG910t1q786luSwgEZR92+qruXX3oqH0h23rEzJ2RN0hMVA65vRJoTSVETEABFbKbAAsjuI3uznTTZn02Rzr6qqzyGkSVfpGLs1lwclrvsA5FwZa5gDb+jRa5nPB9DgnWdLtxkh7l1C6yoYYAAIrZTYAAE0oR2U0ANgmJByH0o7oERfdEhlwZpBS18GwerIICYC64ZIPgAyaz4bURAbAHxzH3T1FfW4JcCqY18mgGAACK2U3APCkjia6O7IYAUi3i8yDHPrJADneSbfS6xEXgUNzKUAiIKWfszasVPt93NK7gZMq27o0lPl0SE1khO7nPO6UOT+kNmeo31BbX06G+e/ySCUuBoDAStkNAIBY47QgjmYyApT+Nof2+Q/HW7umey3sJFoQyLC716EffJdbdzeof19qXxfzqRx0Wee1mNTWXw2tz5bJKY+p/f5yeBRvFfL7HAyAf4TUI8wxqmAAAJpMvpPFAKCJ7PmBkbGdOLTToP6B8yQatRscml3AsSpNqqctXBu/JY/vqzs4qlE/+henY2g3JgJHWT97RdCs0NoWtdrvcXrNko65Tq3VWRhaY7+QpoPwOmiazntCpoa2NQAku6LglaoYALhTJH33ZTECYPFz3AHjqNElbv3EgjU20NIfzFuzLXDYRKS9dBIzy/PIyVCPOgvc2rRTC63NBpcXAEk9WuaAPPRlydGBBF811T4iD50zgUBLPQ0ZZVY1huM3hvhe+xMAPU5aXhVCizAHqYoBADCYnHcjm4s+ikM77mudNdPuEDsxDt39gLtiONhN070s9Pci/rxTBkmlHwu567PF+bloZObloS/N0WFaGfrvOC2yp7M4BuLOX+kTZu0nSq/HywffXw+fE9v2gkHoW4cwR6mSAQBoIjojiwFABsT/8jqing5N9Nc666YFljvHwXRwlJ5cb/RIypPHThunOm5tWoywwC6ZI19YtMz+eelEkqDMxrfSt4faaXdjcFX8GtJ8jcUYe8a3UVVrju3s8Lue7lODMIepmgGA43QaIFFGI+D3HNqHmvE2mbIdwo+BFgwO7dMZaOo9aLL85ywT6nP1aOzdQXVE7UaGfsAatIaMkI/gisdVP05e8tSb2Q8n7cPPUvl66Fc5yfWQg18FfAR8+t1gs2GtQZkW16sloWJUzQAAiJfvFqRk8kTUWcSiHXeC2V80XAJjgkX/ung7hNTt9+gdRgL9zRYB9WzR5frBouijQ2mbCdJ8ZNZ+0GiZj+UqOn16aZ0oqEe5n8bgYb4XOvhFIOBTtrlBdwbV2Lt86EligThcU7m8oFik4jfldS0klIQqGgCAOvoFmRbRSD+FxYxDe0O1BzJPoEpvoDocN7Q2fnUemgfXxtviaJK+c6OD3p+F1IZ2yNQXyKDJw2kRII0xTe7X+1hEORJHwR+gntEZd+o4NGvxNLOuRnd01bRgJH598rxPmRVeNDX1MT7bDJ799n1Sj9lEekyzSer/oj3l9EDYjG3H49bbL1j4XKPsTRpkv+XSj8XUzwSqN9IC9vNQAW7gd0DfcyGuH5x1pqc1nwmhD6TXQvrhjAvRypDOV4hlAaO1yzM058LlLDZxCuTuFNizn5gV9Lk/HWh2DsEOfOiReMvp350mKhrdEf2J2vOUxAekhw+KowbvsTeQ4Mtx3HQwthdFo2/r9rkTQdLm0Tx225S+3DKf910HoaTYdjpuvTYgXK6HQR8kp3o/4M2850l0GE55jZbe29njOvGabu+K+/HZ7vjtij7Wc/NNAUFxPOm8GnfzPp6LLlgZvwJ9FFHnnF4rzFLoM/f10XYuLG6O7oCYCr7r9KKS+gw8vbkE/C6qz8Uhds/UN0/20A6PJU7EZKDQuFyaJErr6eOgb/VdB6Gk2HY0br220CC4MuOgfxzewmz6I7Mk4MSJKG4/hjc+HMbwlBC7J+zgUOCgV2vqD028p1+CSQVXIwEm1u/l1JYX+ms/M0L/PBW77H4DB2FHBq9vasNvoO2zOPj1U/DbhW7TmagNj741q0NuUQqugfD7hWgnGOR512dRs/3eEHURSoZtx+HWa0tyHJlx0aK/v4izDmSxfz+zU2MRCyLBKf21vNoRx8MIQhSgHs8jRCucL+nzz0relUf6uLSYM5Mwvsrc7egfsek7RnHqYtVvCxAgCr4hLiGZi1Ro8T87aIAwOE9G5sF866QvDlYfoTzYdhxuvS74cKoLmVq1H5JIZQ7JbYpaEG8hdLa6ru0Yxa+j713DXX/LtvoTTg5S/f3/Hd7m592+3UgML9pBc7ejdUmMrnxCbcOxMOe6dXr5DghzCNuOw63XiTTal3PSkokBsz50YpDZSBzu0qNn/skxQ8EunCvvAkjCEpfACMCucLqRZNln9+Jq424g5C8MP+527avtlWnhSW5ebZM4qkb63znX87y86icUFNtOw63XFTglOWfde2FS+AV3PRAHnOrxG+4J0q3oNrXhD4uQbAd+HaTpTv426dLPIm3gANotHa3V5zT1HhxtOxMTzoG3hWg3LwWe9ZE5q9sLg9AgeVOeV32Ij5F3HYWCYdtpuPVmAUFdMk4O44kHeAHA855yOVjpP286xi4KeAmB0NEhPPDdJ2WzelDpPXtptvmsooWGnkw9ybyX7733rG0fmTu4jSY8Xcyvr+kbOesqCLmCJzxwxso4Qbc4dgfdSO5Wm/qYbJHugk+qy5HoiLutZgLe8lh4edsp3fXPFnCIjNChfgtXNMh+SX0DEPGQ+VpLmb/mmTdhNgI8/+0yj+nHGyPtXbjrKgi50lgdb591wcQRIXc9JjNxLXBs1mA3/iZUBCjRN+aVjtYHSeKiSB+VvqfOefFHmmTV3pW7DbiAYY7gNNT21/kMhDRLH92QvJlvtXfnrn834LiM5ENh6q8vhzMsdx0FgYX0vTsCZZgVLiXZ1ZIhwV2P6UwcaR+IiRT37bkvZJFZiSeLXNkUfYDcAXBWQw74HNrs/kZkvhT0iVnJwKkF8nDQ4ncFQtd67p9NKufWm+aT3fwrikaaKAj+Ph7GstLj1Ka3wM+Au16CIARm/sPx1jXVORQxDPCCIciCr/STCJeMxCRVfFLUiNq7Je/6I6O8tRuOu2nnWW/qfbjrVwbwWgQZLtO7cX05/fPv6euIF78mSHbMSj+WRqjUN9WTwE/6mwhyVfTrkJnAqxWqy6lpKOT+/VXSzIXmLkQaRI4J7noIgsAEMoElYWfT98bnpeFnzeqJEKobukweGycMh/sT56hkR0aTUNSuI8Ts0Jr4Ddx1yhPkqU8WItzPJkfVZk1yldTNaxtRFiO9DnHo6d/7dZIml3adXMmlhOqQvF6hvoTrqiTXQZI/Ii3U95bR/35irdVZCL8WhJrm1isIQomAY1YRnumVBYSHxWnLphIqXKwgCIIgCIIgCIIgCIIgCIIgCIIgCIIgCIIgCIIgCIIgCIIgCIIgzF3+D5jUnLcQlW7vAAAAAElFTkSuQmCC;rotation=0;" vertex="1" parent="kEIAtn397vdBtJ0K74f4-1">
          <mxGeometry x="12.75" y="270" width="55" height="55" as="geometry" />
        </mxCell>
        <mxCell id="7sJCd6B2Vx5864JhMqsD-21" value="&lt;b&gt;React&lt;/b&gt;" style="text;html=1;strokeColor=none;fillColor=none;align=center;verticalAlign=middle;whiteSpace=wrap;rounded=0;" vertex="1" parent="kEIAtn397vdBtJ0K74f4-1">
          <mxGeometry x="15.63" y="324" width="49.25" height="30" as="geometry" />
        </mxCell>
        <mxCell id="7sJCd6B2Vx5864JhMqsD-66" style="edgeStyle=orthogonalEdgeStyle;rounded=0;orthogonalLoop=1;jettySize=auto;html=1;entryX=0;entryY=0.5;entryDx=0;entryDy=0;entryPerimeter=0;" edge="1" parent="kEIAtn397vdBtJ0K74f4-1" source="7sJCd6B2Vx5864JhMqsD-24" target="787doy9NoyU9D87VZDhD-17">
          <mxGeometry relative="1" as="geometry">
            <Array as="points">
              <mxPoint x="40" y="57" />
            </Array>
          </mxGeometry>
        </mxCell>
        <mxCell id="7sJCd6B2Vx5864JhMqsD-24" value="" style="shape=image;verticalLabelPosition=bottom;labelBackgroundColor=default;verticalAlign=top;aspect=fixed;imageAspect=0;image=data:image/png,iVBORw0KGgoAAAANSUhEUgAAAWgAAAFoAgMAAAAHi4lGAAAADFBMVEUBesv///9nsOG73PITbN08AAAED0lEQVR42u2bMW7bMBSGZQoa1EKjj6ClQNCl2nOEDJblwUB0hGwZ40to91ygRyiaS2gMkCN07pKmQ2JJlKj3yJ8Fiv7fKAqfCYl85HuUk4QQQgghhBBCCCGEEEIIIYQQQgghhBBCCCGEEEII+ft8err/dY5i/l7/4fYkujl9eXmqhzT3Dy8Dfg5vvnq7R+Te1G5uBvfml98Hq01/uXzAqsvh9RNSbUbXD0h1OX7bSHU/bmhx6nzScMSpq2nLCabupy0tSm3fd0CpM6tlj1Jv7aYTSD3T1GLUc7cdMOpipmmPUVdzbRh1N9d2DVHPtt0h1Ols2xGhnr9rj1AX840IdTbf+AhQV/ON1wD1tvYYIjJ1H++B1NFGiKmjTZnBjHkebKJOAPVmFEjffmin2OKWS88wH7+4SvQ8ZOpi/OJyUUyVqbPxwmKEexyVuh2swS1WfX25sUkg6nIy3PJJuoBQD7baJ6z6/SF0upcoUO8v29YWrH6ff4XuJWrU6SGaWg3V3oPvn1I38dQ1Xp3JNh6IeB1DfRNPvYunruHqQlEF8VYf0epcVc5SqTe6Kpyn2rPbi2pTh3Z7OcDVod1eVveh3V5Wb0O7vayudBU+jTpT5HRKdaGrlWnUG209Va6e1EMaoDrRJaMqdRfYbYe6Cuy2Q51pC6pyda4uMYvVpg7rtmtr14V126UulUU+hTpXl6/FaqOt4Si20V3Qi3SqS2W9TKHeOM8Lg9R2rW8PU5chY8StTkPGyEqi1QXMmhW1VcRuYGr7RT7C1KV/iFpTG/XhnTxfnnZ7h1Mb5XmSJssvfSfNutr0qqMqVW3iynM+Ssoevd8Qkahzv6kuKtZ0XnFVpP7oFUVkJabKZ2DL1KlPgBIWxiqPgS1Um3jqYbdbsDrVbxjERcgunrpQz3Sx2sRTX8oBR7haXfiTq/N4ahNPnWijqkLdxVNvlQFboa6Q6i/zEQqgTpvZWxG9Lsc7pRLXazOJ+kB1MYmfQHU3iUS4Z51Pr+J6XU13vLBxbawlFjYbS2tFQcUQY19GRb7CSi8MSt1bOQBqlcntNRa1NlZ2wgVa0VM7K0LtQ1I7vyhQGzMr3x9kj4HqYT53nmyC78LUw0OZ5jlJvtWw/fU4Mb/ta1xWUDi+EzuFqV2foQUmd2bZHJyS9ovqXah6u6gOTv8z0T88vNT5orpNMKuM+pNPydrYh469ZfXCx7WKCrbgwwJ4dTKtvT5UFe2e+sC36FCXYdN8bTsZMBedm+A+7FFrTkm1Zz4O9SZoVLvTpD4gNq2oi6DnoTwUVH0DpTu5a2FqE3Ru7E7/r2IdG08r16gPd+34J/vzpL287ter4s+JFvP1lfNi82d/8yoffty/8nBOCCGEEEIIIYQQQgghhPyP/AYep0+nIx+PCAAAAABJRU5ErkJggg==;rotation=0;" vertex="1" parent="kEIAtn397vdBtJ0K74f4-1">
          <mxGeometry x="14.5" y="176" width="55" height="55" as="geometry" />
        </mxCell>
        <mxCell id="7sJCd6B2Vx5864JhMqsD-25" value="&lt;b&gt;TypeScript&lt;/b&gt;" style="text;html=1;strokeColor=none;fillColor=none;align=center;verticalAlign=middle;whiteSpace=wrap;rounded=0;" vertex="1" parent="kEIAtn397vdBtJ0K74f4-1">
          <mxGeometry x="6.69000000000001" y="232" width="67.13" height="30" as="geometry" />
        </mxCell>
        <mxCell id="7sJCd6B2Vx5864JhMqsD-67" style="edgeStyle=orthogonalEdgeStyle;rounded=0;orthogonalLoop=1;jettySize=auto;html=1;entryX=0;entryY=0.5;entryDx=0;entryDy=0;entryPerimeter=0;" edge="1" parent="1" source="787doy9NoyU9D87VZDhD-16" target="787doy9NoyU9D87VZDhD-18">
          <mxGeometry relative="1" as="geometry" />
        </mxCell>
        <mxCell id="787doy9NoyU9D87VZDhD-16" value="" style="sketch=0;outlineConnect=0;fontColor=#232F3E;gradientColor=none;fillColor=#232F3D;strokeColor=none;dashed=0;verticalLabelPosition=bottom;verticalAlign=top;align=center;html=1;fontSize=12;fontStyle=0;aspect=fixed;pointerEvents=1;shape=mxgraph.aws4.users;" parent="1" vertex="1">
          <mxGeometry x="17.120000000000008" y="554" width="55" height="55" as="geometry" />
        </mxCell>
        <mxCell id="P3LnugzHq6Kd_qjz9YZf-16" value="Private subnet" style="points=[[0,0],[0.25,0],[0.5,0],[0.75,0],[1,0],[1,0.25],[1,0.5],[1,0.75],[1,1],[0.75,1],[0.5,1],[0.25,1],[0,1],[0,0.75],[0,0.5],[0,0.25]];outlineConnect=0;gradientColor=none;html=1;whiteSpace=wrap;fontSize=12;fontStyle=0;container=1;pointerEvents=0;collapsible=0;recursiveResize=0;shape=mxgraph.aws4.group;grIcon=mxgraph.aws4.group_security_group;grStroke=0;strokeColor=#147EBA;fillColor=#E6F2F8;verticalAlign=top;align=left;spacingLeft=30;fontColor=#147EBA;dashed=0;" parent="1" vertex="1">
          <mxGeometry x="755.13" y="513" width="118.5" height="119" as="geometry" />
        </mxCell>
        <mxCell id="P3LnugzHq6Kd_qjz9YZf-18" value="&lt;b&gt;Amazon RDS&lt;/b&gt;" style="text;html=1;strokeColor=none;fillColor=none;align=center;verticalAlign=middle;whiteSpace=wrap;rounded=0;" parent="P3LnugzHq6Kd_qjz9YZf-16" vertex="1">
          <mxGeometry x="-0.25" y="92" width="113.5" height="30" as="geometry" />
        </mxCell>
        <mxCell id="P3LnugzHq6Kd_qjz9YZf-17" value="" style="sketch=0;points=[[0,0,0],[0.25,0,0],[0.5,0,0],[0.75,0,0],[1,0,0],[0,1,0],[0.25,1,0],[0.5,1,0],[0.75,1,0],[1,1,0],[0,0.25,0],[0,0.5,0],[0,0.75,0],[1,0.25,0],[1,0.5,0],[1,0.75,0]];outlineConnect=0;fontColor=#232F3E;gradientColor=#4D72F3;gradientDirection=north;fillColor=#3334B9;strokeColor=#ffffff;dashed=0;verticalLabelPosition=bottom;verticalAlign=top;align=center;html=1;fontSize=12;fontStyle=0;aspect=fixed;shape=mxgraph.aws4.resourceIcon;resIcon=mxgraph.aws4.rds;" parent="P3LnugzHq6Kd_qjz9YZf-16" vertex="1">
          <mxGeometry x="29.5" y="39.5" width="55" height="55" as="geometry" />
        </mxCell>
        <mxCell id="787doy9NoyU9D87VZDhD-74" value="&lt;b&gt;User&lt;/b&gt;" style="text;html=1;strokeColor=none;fillColor=none;align=center;verticalAlign=middle;whiteSpace=wrap;rounded=0;" parent="1" vertex="1">
          <mxGeometry x="20.000000000000004" y="610" width="49.25" height="30" as="geometry" />
        </mxCell>
        <mxCell id="eyDXWGFDGW_XnUvpQX0K-25" style="edgeStyle=orthogonalEdgeStyle;rounded=0;orthogonalLoop=1;jettySize=auto;html=1;" parent="1" source="P3LnugzHq6Kd_qjz9YZf-30" target="eyDXWGFDGW_XnUvpQX0K-1" edge="1">
          <mxGeometry relative="1" as="geometry" />
        </mxCell>
        <mxCell id="7sJCd6B2Vx5864JhMqsD-10" style="edgeStyle=orthogonalEdgeStyle;rounded=0;orthogonalLoop=1;jettySize=auto;html=1;entryX=0.5;entryY=1;entryDx=0;entryDy=0;" edge="1" parent="1" source="P3LnugzHq6Kd_qjz9YZf-30" target="P3LnugzHq6Kd_qjz9YZf-47">
          <mxGeometry relative="1" as="geometry" />
        </mxCell>
        <mxCell id="P3LnugzHq6Kd_qjz9YZf-30" value="" style="rounded=1;whiteSpace=wrap;html=1;fillColor=none;rotation=0;" parent="1" vertex="1">
          <mxGeometry x="1032.13" y="474" width="120" height="120" as="geometry" />
        </mxCell>
        <mxCell id="P3LnugzHq6Kd_qjz9YZf-32" value="" style="image;sketch=0;aspect=fixed;html=1;points=[];align=center;fontSize=12;image=img/lib/mscae/Docker.svg;" parent="1" vertex="1">
          <mxGeometry x="1059.2" y="515" width="67.08" height="55" as="geometry" />
        </mxCell>
        <mxCell id="P3LnugzHq6Kd_qjz9YZf-33" value="" style="dashed=0;outlineConnect=0;html=1;align=center;labelPosition=center;verticalLabelPosition=bottom;verticalAlign=top;shape=mxgraph.weblogos.github" parent="1" vertex="1">
          <mxGeometry x="1065.24" y="344" width="55" height="55" as="geometry" />
        </mxCell>
        <mxCell id="P3LnugzHq6Kd_qjz9YZf-40" value="&lt;b&gt;ローカル開発環境&lt;/b&gt;" style="text;html=1;strokeColor=none;fillColor=none;align=center;verticalAlign=middle;whiteSpace=wrap;rounded=0;" parent="1" vertex="1">
          <mxGeometry x="1042.74" y="474" width="100" height="30" as="geometry" />
        </mxCell>
        <mxCell id="P3LnugzHq6Kd_qjz9YZf-43" value="&lt;b&gt;Github&lt;/b&gt;" style="text;html=1;strokeColor=none;fillColor=none;align=center;verticalAlign=middle;whiteSpace=wrap;rounded=0;" parent="1" vertex="1">
          <mxGeometry x="1034.88" y="399" width="113.5" height="30" as="geometry" />
        </mxCell>
        <mxCell id="P3LnugzHq6Kd_qjz9YZf-49" value="&lt;b&gt;GitActions&lt;/b&gt;" style="text;html=1;strokeColor=none;fillColor=none;align=center;verticalAlign=middle;whiteSpace=wrap;rounded=0;" parent="1" vertex="1">
          <mxGeometry x="1036" y="234" width="113.5" height="30" as="geometry" />
        </mxCell>
        <mxCell id="eyDXWGFDGW_XnUvpQX0K-26" style="edgeStyle=orthogonalEdgeStyle;rounded=0;orthogonalLoop=1;jettySize=auto;html=1;" parent="1" source="eyDXWGFDGW_XnUvpQX0K-1" target="kEIAtn397vdBtJ0K74f4-1" edge="1">
          <mxGeometry relative="1" as="geometry" />
        </mxCell>
        <mxCell id="eyDXWGFDGW_XnUvpQX0K-1" value="" style="rounded=1;whiteSpace=wrap;html=1;fillColor=none;rotation=0;" parent="1" vertex="1">
          <mxGeometry x="1032.13" y="624" width="120" height="130" as="geometry" />
        </mxCell>
        <mxCell id="eyDXWGFDGW_XnUvpQX0K-2" value="&lt;b&gt;Terrafom&lt;/b&gt;" style="text;html=1;strokeColor=none;fillColor=none;align=center;verticalAlign=middle;whiteSpace=wrap;rounded=0;" parent="1" vertex="1">
          <mxGeometry x="1035.99" y="708" width="113.5" height="30" as="geometry" />
        </mxCell>
        <mxCell id="eyDXWGFDGW_XnUvpQX0K-30" style="edgeStyle=orthogonalEdgeStyle;rounded=0;orthogonalLoop=1;jettySize=auto;html=1;" parent="1" source="P3LnugzHq6Kd_qjz9YZf-50" edge="1">
          <mxGeometry relative="1" as="geometry">
            <mxPoint x="580" y="340" as="targetPoint" />
          </mxGeometry>
        </mxCell>
        <mxCell id="7sJCd6B2Vx5864JhMqsD-2" value="" style="shape=image;verticalLabelPosition=bottom;labelBackgroundColor=default;verticalAlign=top;aspect=fixed;imageAspect=0;image=data:image/png,iVBORw0KGgoAAAANSUhEUgAAAOMAAAEACAYAAABBKcHUAAAABGdBTUEAALGPC/xhBQAAACBjSFJNAAB6JgAAgIQAAPoAAACA6AAAdTAAAOpgAAA6mAAAF3CculE8AAAAB3RJTUUH5QQcEDkH6dTVHwAAAAZiS0dEAAAAAAAA+UO7fwAAFzFJREFUeNrt3fmXXVWVB/BUUklVhSnBDBIhjBERhGJK3rt724LY0DhgK6iII05LnGmHhlba/ZVWEBfaSIsuRbEFxabVRgWVpYII2CoqTeOADDJIVECgOd/z6iWVpF7/ULfCoywhQ1XdV1Xf71rnH7j3ft47+55z95kFZ8Shg0+E5e5ZiqJUFziHwtKvYfnEcC4I51xdFUWpBmOrHM1wfiOczw5LO0atOUdXR1GqwTgy/hzGj4flVbC8IPpbs3WVFKUajC0414WnX8F4atTzAbC8ja6UolSDcWQMwHgVnK8J557h7NEVU5RqMI6M++D8UjiPi4LLVE8qSnUYR8ZtYTwbzmehPrAw+ltduoKKUg3GFpxr4fxJGE+D5ZWwPE9XUVGqwTgyCOcV4XxjOFeEU/+SilIRxpGxGs7/DEvHR625QFdUUarDODJuDk//BucR0d/q1ZVVlOowtuBslvXkB2H5AF1dRakOYwvOITgfhPN74XxzOJfrKitKNRg37uKB8x44Lw1Lx0atub2utqJUg3FkrIHz1vD0aVi26G9pKURRKsI4MnXNcN4UxtNheU9deUWpBuPI2ABngvPacL42nE/QHVCUajCOjPVwMix9I4p8WNSa2oCuKBVh3PhPGZ4ehPOTqDX3jkMHu2FZN0URxipHWPojjP8UzsXhVD8eRRgrR+m8PpwvDUsL9amWIozVj6Gw9OUossO5UK0/FGGsGqSne+H8SNQbB8PyDrpbijBWO9aFpZvgPDmce4dT/XgUYax4MJzfhvPVYdw9ak31d1WEseJxbxg/G8bnwfJOqicVYax46grnb2A8K4p8uOpJRRirHwNw/gjOd4ezP5z6qFkRxorH/XBeHpbeEEXeVeuTijBWP+4M57/DeRxWrVErSUUYKx6DcP4yjP8Gy4fBsl7wKMJY8WjA+dNwnhbOvXWnFWGsfvwZzqvC0uui1tT3k4owVv2pFpx3hadL4Hxu9Lf6dOcVYax2rIHzt2HpU7B8sO6+IowVb0Av+/HcEM5Tw7mrngJFGKufuiY4rwnj8WolqQhj9WM9nA+Gp0tQNFytJBVh7IwPmu8L4zmwvCKcc8KpB0QRxopbf9wczneEc+cocnfUmnpQFGGsuEnWVWH5+VFkbUBXhLH6f8mUw9NuelIUYeyMscfI9Yr+1qzob+mrEEUYq8aI+sAc1Af2D0sr1AldGY9ErdkblvYRxs3F6OyD84yw9LUwvhiWd9U/pbJFCPtb3XDuGcaXh6UrhHHLMH6sPJpgNZyfiiI/G5aX6PFSNnlGanlZFHwBnF8oj7gYEsYtx/jI95PGX8F5ejjr4dROHuWv/xs6F4bzMDjPhvH2ctNJC86WMG49xpGR4PwBnO+KgvtGramdPMqoupAHwXkanD8u+zc96hkSxvHD+EgrSedXwnkiisZy1ZOqC8sdXSeF8zI4H/prz44wjj/GkVaSt4Xxc2F8vlpJzti6cHEYXwrjF+G8u31KKoyTh3FkNOG8MZxnlfWklkJmRl24bTifCee5cP4GzrWb8rwI48RiHBkPwfnjsHRK1Bu7Ra2pJlnTsy7sjiI/NSx9AM6fl+8RNvk5EcbJwTgy/hSeroDzxDhow3Z6fKdNXdiFVWuWwvnm8HRl2cd3s58PYZxcjCPfT94dlr4Cy0foUZ7ydeEcWH5BWLoMztWPVxcKY2dhbO/Hc0s4zw7nvnqsp2RteGA4zy9fzgxu7TMhjNVhHOnHQzhvCktvj1pzkR7xKVEbLg1L74Pzd2OtFwrj1MTY3o/nofB0JSy/UK0kO7Y23AbOV4ann5Y/okPj+RwIY2dgbEf5QFi6GJYP0ePfUbXhM8LS5XA+XN6ncb//wthZGNvH6nCeGc4nR8HuqDV1iM/kTkW7wjg3nPuH87yyM/2E3nNh7FyMI+PGML4+ivwkFI250d+SlIlepiga86LIu4bxnXDeNln3Whg7H+PITp7LUeRjot5YAsva7zoxU9G5UW8sg+UTwtPVm7pzRhhnFsaRBlkPwvhpOGvhXBBO7eQZnyWKOeF8ApxHwPilsi6c9PsrjFMIY1sryd+G85/D0gFRH5ivVpJbURcWebuwtCqcZ8F5R5X3VRinIMa2f8prwvgaOFdEf6tbvDa5LpwVhw72wrlfGN8G5/WdcD+FcQpjLFtJNuC8JIr8AljeWdQ2qTbcI4r8CjgvC08DnXIvhXGKY2z7l1wN58fDeXg4dSjs2LXhknAeCecFYemBTruHwjhNMG7sx+P8BZwIS4dGramdPMO14TZhyTFcF/66U58zYZxeGEdGDucV4XwLLO8zU+vJ6G/NheUD4HwvnNeMx2ZuYRTGLd1a9wc4vxwFXwHLy2ZYXbhbGN8C5zc39yNfYRTGiZy63gLneeE8KpwLpnlduCiML4LzwvL7wg1T5V4J4/THuHHqCucvwnlGFDxourWSjFqzLywfBucnNqfvjDAKY5XjgXBeBefJqA/sGv2t2VO8LuxG0XgKnFH2neFUvTfCOPMwjrT+WB3Gy2A8AZa3naJ14aIwnhTOq7e074wwCmMn1ZN3hfOCcD49nN1TpC7sC+NzwnjpVKsLhVEYH2804LwjLJ0ZtebOHVwXzo6i8dRwfq7sO7N2Ot0HYRTG9sHwdCOcb4j+VkdNXePg9QvhPAXOe8az74wwCmOnr08+HJauhOWjOqQ2fEF4urX8B5+2z5kwCuNj9+Nxfjac+4elrsn6VCtqzVnhnB3OlWH8TvlPODTdr7kwCuOmjD+EpdOiaCyH5Qlr/RH9ra7hr+0H9gznJ6fyMoUwCuOEvnkNT9fD8olRG9gJlueO81R0XtQGdoHzrXDeNROfs1mdvnlWGDvwJY/xUlj+u3DuuLXLIeGcG8YlsHxceLoOw8fptWYmRkvfgfOP2IozAoRxRo57wnlOOIso8g6be7JW1JpzwvITwvmsMF6ExzhEdMZgjEPWLYDzJHj64WT0hhTGaTf+N4zvgnF/1Jrzo7/V9bh1YdHYDpZXhvMMOO/UNSwxblxMrTf2giXAecNU+eREGDtmNOH8bhT5RBR5xV9rJQnLPWF5PxjfjuFz7XXtRmNsm7/3wvkMbOaJq8KoUY6H4PxiOJ8XRV4URW7rwtZYEsaXwfkNDJ/Apev1WBg3oizyQhR8CYwXl2+21gujMG7GuB3DZ9l3DT9PjXlh+Rg479W12UyM5dx+DorGHsP1JC+b4fWkMG7++DDKJsvh7Avna3VNthBj21uvHhgPhPM0OP+7/EhVGPXwCONkY2yrJxfAeTicZ8N4ywxbDxJGYewcjG315DIUPBbOz5c1wJAwaghjBRg3tjpw7gXjq2C8fAa8dRVGYexMjG31ZC8s7Qfnu+H8H2HUEMaKMLbVkzvAeSCMH4Ol+4VRQxgrwljWkrOiyEtRz0fB+R/ooANFhFEYZxTGjUdtrVw7F8adhxd907XCKIzCWAHGtlqyC0XugXMvOE+F81ZhFEZdkwowttWSXXD2hOUDYDx/Cn8mI4zCOLUxttWTXXHIuj5Y/lt4+haGGwsNCaMwakwyxlFT2B1gfDWcPys/vRkSRmHUqABj2xR2Dzg/AOfNUwClMArj9MXYNoWtwdIXyk+1BoVRGIWx2pOE+uA8Fp4uL/vxDAmjMApjtWcpLIKlt8L5kw578yqMwjizMLbVk/vCeSacN5b1pDAKozBWWEt2R5GPgvFzcP624u8nhVEYZy7GjW39Vq1ZBOfL4bwEwycQCaMwCmOFtWQ3irwnLL0dzu/B+aAwCqMwVltLzodzJZzvh23cNCCMwiiMFdaTC1HwaBjPLTehrxdGYRTG6urJObC8C4wvhvGLcN4vjMIojNXWk/NgfDKG+7teiYk53VYYhVEYN6Oe3A7O/WF8LyzdPM5TV2EURmHcgnpyR9Szw3kuPP1ZGIVRGKuuJ51LYflIWLpUGIVRGDthfdLSTuF8HbaulaQwCqMwjkMtOSucPTAuD+PpsHSvMAqjMFZbS3bFqmYf6gMHw3khPDWEURiFsbpachZqzVlRH+hDwSNh6XsYPppgSBiFURirncIuhvPNcP78cVp/CKMwCuMkTWGfDOPZ5da6sVAKozAK4yROYXtg+XB4umiMfjzCKIzCWMFyyA6wdAKcV2D4/Mn1wiiMwlhtPbk7nO+C8zo4dxZGYRTG6uvJQ6LIfcIojMLYYRFGYRTGzsE4D863lfWkHiJhHI9BOL8uXZs/bZ0dlveA8x/gvBrOrIdJGLdwrIXzWlh6XzifLF1bjrI3ivx0GM+A8wZ07tEEwtiJw3gTjB8Oy4eF5bkStfVrk12oDyyC87kwngfnHXrQhPFxxp/g/AyMx2BVc8fob3VJ0viuTXaj4PKyv+vX4PyzHjphHDUynJfC+SpYXh615hzJ2Vp4lueG5efA89+MsTbZB+c+ML4FxuvQGUcTCGO1Yx2cP4XxZFh6ajh7pGj83qb2wvkhOH8els6Itt05bfXk9qjnlTB+AJ5umYRWksLYmeMOGP8FRa6F5e2lZ+LWGYcwfFLW1eF8S9SaO4yqJ2fD8iIYD4Px0xV0QRfG6sbDcH4Zxr9DPS+K/tZsyZmcRf/1cN4H5zeiyEdHf6vnL+pJS0vhPLbc77pGGKftGISln0SRToBzWRR6S1rVDpy1cP4+nOfD8/5j1JM9cC4Ny2+CpVvR2cemC+PmjSF4ugfO98LSsqinXkmpfjvcUPnP97uwdGo4l4xRT/ZgZXM3OM+CpySM0+AFjaXzsaq5G5x9EtJ5e1OH4BwM5/+E5RdGbWB+1AZmRX/rkfVJ57yoNw6Epa9N03/J6Y5xCM5ro8grYWme1gs7F+OjRhi/GfVGLeoD8+G5a/T0NZzHwXhD+a86JIwdDXAtLN0S9XRC1FO3REwxjHC2wlOG89wwrghnbzhHT1+fEMZ/gqe7psn65HTDuKa8N2di1Zrl+iecwhgf+ZdMfwznG8O5PGrNuaOWQ7pRNPaD8zw4/1C+FBLG6jdz3wtLF6LIq6LWnCcF0wTjI/+UvB6Wjw7jsuhvzRm1HDIfRX42nF8v9zKuE8ZJH+sxfMzgt+A8PpwL9PRPU4wjv7phvCCKfBg8LxljOWQpbONRdw9OsXpyqmIc3sxh/BEKvieKvIue+pmBsQXnUAyvUX0oLB0azu3GWA7ZG8YPwnk9Jub8SWEcHk04b4Knj8DywdHf0qL9DMO4cfdGWPoFnG8N5/6ja5OylaTD+Sk4b54C309OJYzr4LwTzotgPCZqzW31pM9sjO0tGC6D8RVR5N3HqCe3h/ElcF4M5+oOnrpOBYxD5fT/UhhfF86d9IQL41hjdRjPD+Pfw/PiMerJXWB8E5zf7NClkE7HOAjnVTC+L4q8j55sYdyU6dOv4DwzjEU4549RTz5t+FMtXieMmzx+PbwdkfXRG/sVYXy8keD8QTjfE5b3jlrzUTs/4qANvXAeDuc5cN4mjI/Z8uKzMD4/as3t9DQL49aMe8tp6atQay5u3wUStWZX1BuLYXwRnF8o18iEcWT3jPG/YHxlOJeP3v2kCOPWjFvDeTEsH41RncXC2R3OPWE8Ec7vVLiLpzMwGq+H8V1R5KdFkbWXVBgnrJ783zB+PJxPG6OW7EWRD4Tx3eX5kzMN4+/hPBNGx6rm9tpLKoyT1Y36+nCeErXmolFrk10oGgtg2WD8KJz3zACMhPNCOJ8Ny0ui1lTLC2Gc9HF/2eH8uOhvzR+1NjkHlpcMP6D8z7JHy3TDOAjnD2F8BSztHE7tnhHGyjc3/z48fRWW62OsTc6Dcaew/DJ4+tkEd62bTIy3ouA7UTRWhGV9bS+MHffZz+1hPDuce45RT/agNjBy/uQfpjDGh+D8FIrGvqjnbVQXCmMnf32wBs6bwnnSGK0ku2C5J4rGU2C8AM6BKYRxEJauiSIdCef8qDWFUBinzCdB64a3fuWj4pB182H5UeuTMHaH02G8Zhy/nZwIjOvg6XY4T4KluVFPQiiMU/aw1GY4L4TlA8PYG86uMaawL4Onu8dhv+t4YlwH5wOw9OHob2nnjDItMI40yLonnO8P595RNHrbp3nR35oVhw4ugTPK7WNrKsS4vjxE6KtR5Kfq6VOmHca21h83hOVXw/IuWLl27kgryY3LIUWjH8aLypc8g5OIcQOcD8LSD6NIf68ubMq0x9g2vhJFfg4sPxGWRy+HbAvjC2H8Vrk3dsMEY3wYnn4B56lQ3xllBmJshacGnOeEcdVYzZeiyEthPBnOH23iIT6bi7EB529h6RwUuX905zxFmTEY2+rJ2+B8TzgPjFqzd9RyyEgryTPg/OXjvOTZVIyDZcuLL8D53HDq6DRFGNvfXobzB7D8OjhXRH/r0d9P1przYfk5cH6+PDp93RZg3ADnn2C8DAXfEEVWywtFGB/nnMELw3g8LC/7i6mrcwksvaY8Hvv+Uf14HgtjKvfRngLL+43GrijC+NffbN4J57+G8chwLvwLlJb3gfHdMF7ZNnUdC+MgnL+B82wYPWrN+XqiFGHcsp6iP4MTYXnlGPXkPBSsl/14fl0etT6M0dgTxmNg/ByMx4ZzsZ4kRRi3fvwfnN+H820oGnuO0UpyWzifB8tHoGh0lW9i50SRd4oi764nSBHG8R/3hPOrYXwZLO/4F1PX/ta89k0EiiKME//95C1h/EwYjwid3KsIY+WjAeeN4fxIFI29o9acoydFEcZqx0Nl86s3xyHrdtQ0VRHGzmgWfPLI21RFEcYOaWKsKMIojIowagijIozCqAijhjAqwiiMijBqCKMijMKoCKMwCqMijMKoKMIojIowCqOiCKMwKsIojIoijMKoCKMwKoowCqMijMKoKMIojIowCqOiCKMwKsIojIoijMKoCKOGMCrCKIyKMGoIoyKMwqgIo4YwKsIojIowCqMwKsIojIoijMKoCKMwKoowCqMijMKoKMIojIowCqOiCKMwKsIojIqyhQnLvWH5dGETRqV6jF1R8Iko0nth6T6hE0alSpD11BVF6oVzPzi/BE8DwieMSrX1YxdWrulDPT8TxqvhXA/nkCAKo1Llv2WRF8D4ejhvhHONUAqjUv0UdndY+jCcv5vhKIVR6Zgp7NPh6WI474FznTAqSpX/kv2tXhR8KZzfhfN+ODcIo6JUW08ug/M9cF4HZ5ohU1dhVDq6nnwaLH0UzpvgXCuMilJ9PflceLoAzjuFUVGq/pc8aMM2sPR6OL8D533CqChVgnTODue+ZT15LZwNYVSUal/w9EaRD4PxI+WmgUFhVJSqQPa3ZqM+sBjO58P5aTjvEkZFqRJlrdmNgrvBeSKcX4fzAWFUlGrryflw7gfjO2D8MZxNYVSUauvJHVDkAsYPwdOt5ZchwqgoldWTlpfA+CwYPwvnQ8KoKFXXk5aWwXl8ud91rTAqSrX1ZC+cTwrLb4Ol2zt0r6swKjOqnuzDquYKOD8KTxRGRam2nuyCsy+KxkpY+rowKkq1teSsqA90hXN+OF8M50/KD5qHhFFRqp2+LoqCp8LSrRW2/hBGRSmnr90oGvvDeR483V3Bm1dhVJRRU9j5KHgUnF+D895J3IQujIoyJkrnE+F8A5zfL/e7bhBGRam2nnwKjKfDef0E9+MRRkXZhHqyB5b/Bp4+AeevJmjqKoyKshn15A6wdCycl8B59zhPXYVRUbagnty1rCe/DefDwqgo1deTB6Dg++H88TgshQijomwVyIM29MF5xPB+V/5GGBWl2lqyK+qNxbB0HJwXwblaGBWl2lqyO5x7wfkaGL8NJ4VRUaqtJfuiyAfB+I/l+uSgMCpKVSD7W7NRNBbC+HQYz4LzDmFUlGrryTkouBTO58F58WO0khRGRZmkerKnbP3xSli6rvxUSxgVpcp6ErWBveA8BZ5ub9vFI4yKUkE92QXLfVE09oWl88oDfIRRUSqsJ7tgqSecz4x6emHUU5euyqbn/wGM2Xs9JvnRxwAAACV0RVh0ZGF0ZTpjcmVhdGUAMjAyMS0wNC0yOFQxNjo1NzowNyswMDowMD41t0YAAAAldEVYdGRhdGU6bW9kaWZ5ADIwMjEtMDQtMjhUMTY6NTc6MDcrMDA6MDBPaA/6AAAAAElFTkSuQmCC;rotation=0;" vertex="1" parent="1">
          <mxGeometry x="1065.24" y="653" width="55" height="55" as="geometry" />
        </mxCell>
        <mxCell id="7sJCd6B2Vx5864JhMqsD-4" value="" style="shape=image;verticalLabelPosition=bottom;labelBackgroundColor=default;verticalAlign=top;aspect=fixed;imageAspect=0;image=data:image/png,iVBORw0KGgoAAAANSUhEUgAAAMgAAADICAYAAACtWK6eAAAnO0lEQVR4nOyde2wb173nj1yie/4QuqPCuBnsFST21N24aMqk67QxYHl52ExSp3WbtLERX5tFlNuUcXtTOMXm2srednmIJltVm6DOxt04vO7GQug0XicbZ6+zVeoJeLjSRR3UQl3GbVysMyW1vthJ63s1CYSLg65QLUY8tGWFnHNmOEMOqfkAgRFxHoff4W/O6/eIgQ4DUbIfInwjAOAmRSMbAQBx/l8//3c1lwEAFgDgEgDgoqWTiwCA8wCANyw9d7kDXyGih+nrxE0VLbsFIrwNIqwBAG4GAPhlqBUAALV0MsUM+iozSgs+XTdijdI2A1G07CaIcBoivAMAMNiGWzIAwJSlkwIz6CvMKC224Z4RPUagBgJRMgYRvkfRyEO8p+gUJjPoYUsnzzCjZHawHRFdRiAGYhuGopE9EOHvAAA2BHEPjzBuKD+IDCVCBt8NRNGyn1M0chAAsNHva/uIxQz6uKWTJ5hRYp1uTER48c1AIEqqaoY+BQDY4dc128AFSyd7LT1X6nRDIsLJB/y4iJop3q1o5GcAgH/jx/XayHqI8ChEeP3ifKW4OF+NJvIR19BSDwJREioa+SFEeK9P7bHstzp/s1f4nsfKpdoYAGBQ0YjK90hu8HFF7JyZxzuYUXrbp+tF9ACeDYQPqf6uxdUp+8d/ytLJFN/ou+D2AoqWXQ8A2AIR1iDC21pcFLDnJrvMfOq1Fq4R0UN4MhCIkterGap7fHvbw5iTfH/iNb8nyYqWvZHvt4zaQygv7WMGfdDMp57xs10R3YlrA1EzRfttfdLDj295iZUZ9AlLz11ye1+38OHfHojwmJdehRn0ITOfejKY1kV0C64MhBvHFPeTkmWR7z081om9B74ncy9E+FH7K7g5NzKSCGkD4cOqGZc9xxlLJ/dbeu7X3prnHxAlFUUj34MIP+jmvMhI1jZSy7x8Qj7j4g1s9xr//vKJ0a8vzE6+01oT/WFxvsoWZid/CgCg3EnyQzLnxQbi2yDC5xdmJ98KvpURYUNoIPZYXs3Q0y52xk1LJ7dfPnHf8cX56p9ab6K/MKNUZQZ9rn/TaEJ2bhIbiH8eAPA/mVEKhbFHtA+hgazfefSp2ED8S5LXO2fm8daF2cnftt604Ficr/4zM+jx2ED8w7GB+GckTvkgRHgbM+ik3RO1oYkRIcFxDqJmindDhF+UvNaMmcd3dFsMhpop/juI8OOSh79YGevbGXCTIkLEumYfQJQchAgfkbxOVxqHjZlPPWFPxCUP36FminsCblJEiGg6xBo8UPmxpG+VPay6tRuNo87C7OQbEGEYG4iPiI6NDcT/LTPos/YwrT2ti+gkDYdY3GV9SuJ808zjT7nd34AoqSoa+RpEeDuf/Cv2tfiy8Iv2/KATEYDx8aWfAAB2SRx6pDLW9/U2NCmiw7yvB4EoGVu/8+j/kNjvWLR0crvbCbmaKe5TNHIyNhDfxl1VIP+o3zYWiPBX+jeN7gYA/IYZpd+5+jYtwgz6Wv+m0S8BAP5McKjds56MVrV6n/fNQRSN7JFZ0mUG/Y6l595wczM1U/whRPigxE78BkUjenx86VmIkl78qTxhDxMtnezi8eyOKBqRndhHdDHX9CDcLeO/AQA+LDjvzOUTo193s8/BV4v+g8v23dS/afQvIcK/X5id/JXLcz3BjNIfIMIsNhC/XXAoAgBMMaP0D+1oV0RnuKYHgQjfI7F5Zg+t7nczR7DnHNwXygvrIcJH4+NLRUXLtiW+3dLJkzzXliOKRsba0Z6IznFND6Jm6H8FAPwrpxOYQf/L5RP3Tbq5yfqdRw/EBuKf9dpIThwinIEIg8X5ys+D3KXn1/4Nd5l3wjbY55hRsoJqS0RnudKDKFp2k0TwE7N08pjbm/DVKj+Adk+kZuibipa9xadrNoTHqZ8SHBaDCD8QZDsiOssVA4EIp0UH1+I5PLms3+DhHCc2Kho5o2aKT0OUVHy+9hUsnRDRMTK6RXQvKw1ElI1kkRn0CY/3EaUWPcsjDV0BEd6rZuhbaqZ4t8d2OWLpuVkAwIzgsEFFy24J4v4RnWfZQPgDFoXPngwqEtDSySFLJ/bw7oyH01WI8Ivx8aW/gyjZKNl1y20THSPxconoUpYNhCc7cMTSSSHIhlh67ldmHm/lflFe3Fa223MTNVPcB1HSt6z1zKCviNrj4xwrImTUDUQTHLfADBp4pg9mlBbNfOpJM48/bvdYHi7RDxE+qGboz/migx9tYhJt2aBoWd97r4jOsw6iZL/E6tWpdqboZEbpUmWs78vMoDt4HRC33Mwn8f+Jf7+WsHQiY6zRPKQHWceL1zgOSXjeqrZj5lMvmXn8SWbQQx4m8TGI8MN82PWFVtrBDPq66BiIcCez10cEhD3EukniOFc+V37CjJJl5lPfsnQyIrO73YA4RPhUfHzpBERJV1lNVrYBAHDO6RiIsIyOEV3GOl72zAnLS8ZDv7H03Bs113o6JuNM2IAdvDfxOhQ6K/g8zNnsIzyyrkkdwJV03Djq8En8D/gkXvdwifUQ4SlFy37C7YmWTkS9l+rHfCciXHSVgdRhRqlSGeu7jRk0zRNcu6Ff0chRD0vBF0UHQIQ9DeEiwss6UWwGz7IeSsx86piZxx8DABx1eerNEOE7XZ5TlTimHbUXI9qITA8S6tLK9gS6MtZ3n6UT7Ka3UzQiE1q7EpnNy3/h8poRIadpVpMVdEUyBkvPlfgk/lHJJWFhgoaVMIPK7MdEQ6weQ8ZAugZmlJiZT33X0skNEkvCLhNZR2Wk1yI9ZSCgFr3YzwOdRMuu0Q8+QojMSo5vjn9Bo2aKX4AIH5KYVwG3q3OKlpXpcbpiOBohT4xPwp0yh4R+ZQai5CCvsHuX7DnMoG73UWT2OP7R5TUjQs46XjizKbxgZiiBKBlTM8V9aoa+5cY4ePCXbFrVOjIviig2vceIcW9Zp2whoXTjVrTsLYq2HMzk2kmwVvHKdVGfj0ocE3hpuYj2EuM7xNjhGL/jyVtiRaWovR7nRzOWTv7a/X2xaNK/YOm5UO8ZRbhnnaUTkQvFIC+13HHUTPEeezjFy6h5MY4jPAu9a2dHCW9doStKRPcRk3Qh3wIAeKUN7WkIRMm4mqFPAwCEocFNuGjpZK+l54RxHU3ub+u0WXCYF1f8iJCzTibWQyIkNxD4JPxv+CTci3EwZtBHzTz+pFfjqLUD3yLhsyZyh4/oQtbxcbOjQ6JMUge/UbTsFjVD3+QpS6GHS1BLJzeZ+dR3Ww0Xlvz+pVbuERFO6jvpoj2BDYqWvbEN7bF7jfXx8aVnFY3MeAxCuswMmq6M9aUsPedLrUSIsMix0bL0nGPEYUR3smwglk6Em2btyCCoZor38uGUKCduM+xJ+MfMfOqYX23iKU5FSbM7ErMfETzLBsIM+qoojBUiPApR0stQRwhEeGN8fGkaInxUonBPI85bOhmpjPV93e9E0opG9oqOsXQiyuEb0aVwA1muLyh6C67nxXV8ByI85tb9nGNPwsfMPP6Upef+3v92LSd5EA2vGE8uF9GDXPHmlcmcaP+QPWYtDGKHecrM44+b+dQPgnJFVzRyQGKB4GQ3FzCNcOaKgfC3oChz+wZFI/d6uA/1cE4zLjGD7qiM9d3BjFJg4cC86I/M8MqtT1dEF3GlgM7ifPVPEOH+2EDcye0ExAbin2EG/fHifNXN0uk/+zDJX2QG/c+XT4zeY+m5X7Z4LSGDBypPSfh5nTfzKdduKxHdwzUBU5ZOnpHIOaUqGvmem5tYeu41j2l66py1dLLZzKe+3Y5qToqWTcqspDGDRoU8e5xrSrAtzlcXIMLrYwNxR7cKuxexh03MKMlk+liGGfR0/6bRtGRcRR3LnoRfPjH6wMLsZFuKZUKU7F+/8+jPeO12Jy7a7QqyFFxE5+lb/Qd77M33IkQ/kEu1JAklaQ9W7lP1smS60xfNPLZ7jLa6kMfHl56V7D1GzXzKVa3GiO7jA6v/wHuRmETRzQ/1bxpNMIMel32LLs5X7R7hx7GB+D/FBuI32NdocNiMpZOMmU99f3G++p70N/EBNVP8WmwgLlOq+uylH3zkr9rQpIgO874eBNTe9FDN0F/KuHowgx4y86lvebm5omXtnuR6vpRq90Szlp7zUgOxZdRMMQkR1mXc6O35kKXnOpbQO6J9NDQQwCeqikaklmeZQR828ymv9Qs7jqJlN/HvKpwftfJCiOg+3jfEqmNPwPmE/TOii8QG4rdDhK2F2cmue6ty4zgFAPiwxOH2xHzn4nz1j21oWkQIaGogYHnOUCn2bxrdLpNkLTYQ3wYRhguzk57jLtqNPazq3zT6M0njWLR0sm1hdlJ65S6i+2k6xKoDUfKjaoaelVjVqvOCmcdfD7v7hT0hhwgflg3dZQZ90MynfhR8yyLChGMPAmorT/MQ4XOxgfguyUyMN/RvGv0SAOB/MaP0B3+a6R8QJfsHD1Se4atVUpklmUGPmPnUd4NvXUTYEBqIzcLs5NsQ4d/HBuKy5Y7/DCL8lxBhtjhf+UVYNtMULZvkm4CO7jSrmLp8YnRPWL5DRHuRMhBQM5JZeyJuzzUkT4nZk/f+TaNfAQD8xs2uu99AlFQHD1SegggfdDFUtJkx8/jOdlb4jQgXwjnIamqF+pd/aG45aenkUUvPzXo41xO2YSgaOcC9ct0Ge83wFEGhnktFBItrAwGtGQngO+WHmEFfCerNzLMu7uXBTl6iIKfMPN4ZGUeEJwMBNSO5m4fIei1cucB7lZPMoK+34qULUTIGEb4FIryNJ1gQxZA3xZ6QWzr5RlQPJAK0YiCg9qa+UdHISZ/y957jbu3neZZCe86ywAx6qf5j5SUI+nki6Y9ChDfyjIebWzDUOovMoA9FS7kRK2nJQADPlatm6N8CAHb406SOcNHSya4g5kfcqLdAhDfz/L4beGKK1ckpLvGIzovMoOeZQc8wg76xloZ5YdSqZQOpo2aKe/i8JBR5fGVhBj1k6eQRP8VVtKzds9l63NVi8m/G52wvMIO+1I5gsXYTdq18MxDAk76pGfp9AMD9fl43IOzh3IN+euUqWvZORSMPe8zQIsL+ARQsnRz0ULohdHSLVr4aSB0+N3kcANCRnL4CLtby9foX7KRo2c8pGhmXDATzA/vh5yw913UZ5btNq0AMpA5fbh0DAGwPQa1De6z6uKWTY36tUPHSb0/z79dulhNzWzoJLO2Rn3SrVoEaSB1Fy8Yhwg/wzCbtrHnI+FLykVayuzdCzRTv4c6Obnbmg+Ccmcc7mFF6u8PtaEo3a9UWA1mJomW3QIR3QIS3t7Jf4YA9OZuydHKKb0b6urIBUTKmaOSHvIhPWFhgBt1l5lOvdrohK+kFrdpuICuxexYAwBY+WfMyJl3geybneX2OUpBZ1iFK9qsZeqKFQj5BssgjO5/sdENAD2nVUQOpI5NJhBmUMIOe56WW7V7iUjtrAvIH/tMWV11s471g6eTCqpos/RDhQb72v1kmQK0ZfLOzo0bSS1p1jYHwEmrPtK9VV6lVuqKnXbrJ29gTQt3SSYEZ9DXZFEl8b+BuPmdzXSOlk0bSa1p1jYHYk+3KWN+X29Ska4iPLz0HAHCTOnWRLy8+1upSrKJlb1U08h2XPzh7CHFXJ+YkvaaVVERdSNgGUbLtqyBqprjP5QOnlk5uqIz13efHPoWl516vjPWl7Imliyz5MYjwCxAlZWq7+0YvatVNBgI9Zpb3jKJlb4QIy+bfXXZ29LP020rMfOq4mcefAgDIFuux5wEveixX4Zpe1aqbDKRenySQKlfvv9fyEuVRyQ3OBWZQLehxvz0ur4z1fZEZ9FHJU25SNPI3QbYJ9LhWXWUgPLN8W1J+Khp5QHLp2bJ0MmLmU22rclur3EsfkjnWfqkoWjaI/aYr9LJW3WYg9pf4DkTJQHfj7bkOLz8tgjGDbrf03K+CbE8j7Dew5NsRui1X4YZe16rrDMR+YakZ+myQY2tFI/tk3CKYQfea+ZTvtRFl4amIZMbZuxQt+4kg2tDrWnWjgdhoikayQVzYnuPIlF4DABTCUP7AzOP7ZFZsFI1IDTPcsBa06lYDWR5q8WVFv697p8TurGXm8bf9vrcX7MkoM+jDEoem/V4mXwtada2BgNoDOui3kSgaEQZ71dxe5AsHuaW2G13cFx9f+ml8fOmt+PjSCUXLbml2vJlPHZcolGq/7e/2s51rQauuNhBw1Uj+1o85CUTJ9RK7sCav5RgI3I/pNA9f3sbdJ3YoGqFqpvhAs/MsnQgnoYpGRDXf3bRzTWjV9QYCakZyv5qhv1C07I0tXudW0Vo+M+iRoPJ5rXDya/TDi9k/BEXLNlzB4/EuFwS3GLHv4U9b14ZWPWEgnJsUjZxVM8WnIUp68vBUNCL04WEGDWSyKekBCwEATYdJzKAF0W0gwrd4b+VV1opWvWQggL859qoZ+rv4+NJzvJyzGxyr+9biTvyPA3fpHt50os0M+pL4Xlj0HWVZE1p1Ok48KOy3R1rRiP3fZe5GfYZ3q29zD9JGOKadYQZtpdZ744a6j51oOjSw9NwFRSOm08oST7TnB2tCq24xEMoMeg4i7GUtf31t86f1CSozlgsJOaJo2Rv4Pc+LAro8PPBLzKCvCI6xXwR3OXy+Iz6+tCR5P8/0iFbxbjEQYOZT31YzRQsiTDrYjKaepzyDy5GVb1ZFI02rbXl44AuWTnaIJr3MoBcgchurFAi9oJXaVXMQM5/KMYNu5yG3naDhW07RshsUjegNhh277Ae7euXIywNnBt0mk+SOGVQ2DiJoekGrwa4yEFAzklfNPP6kC19/37D0XKXR37mbdLPl05GVD97rA3fhxxSKXL69olXXGQiouQxc4r7+biLHgkS0orP84BUtqwb8wLuBrtKqKw2kDo8c+xj39w/cUBQt2ywxt0y2vhFFI7/r9ANvF72iVVcbCKj1JszMp5408/gj9sQMAHBS8iF4odlDn5E8XzYaspUH7ketFj/oBa2srjeQOswoLVp67qXKWN+XzTwesPTlZd3DPL+SXwbTMLDfzOPHeL0KP2jpbahoxHXqm4DoBa3MrlnmdQMzSgvMKB239NxxcLVE2wa+KfTnzXyIeFx1U2qbbLn3pYex50RmHmM1Q2kricx8GiqIHvpZSyeHWrj+MmtEq4vdkheLVsb6Um1ox+8E3a5eGeu7rdmHECWvb+HBt/zAeX2WPzgdwwz6uJlP/bXXe9RZK1r1zBDLJ0R5fR29YZlR+q39dvQwhPBlkgkR/pzoGGbQM63cYwVrQqvIQFZg6aTloCMPD963FRhFIzJJ23xZ6VkrWkUGci2viQ5QNCJM5e/iwfv4wJfT1Ygqep239JxfE+Q1oVVkICuw9NwFXk7BiZtl3OglHrxp5vHNfq3d8x1qUQDTST/uBdaQVpGBrIIZ1HF1BtQElkqxueLBr/ZsvWD/3f7cc0OvaU/2epmcuMygx/y434rr9bxW0SrWKhQtO8h3cUVvmAfNfOpHLq57M98beNvSc0JXcDfEx5eKEvHhM5Wxvq1+3nctaBUZSOP2yKTwX7B0srnTJZnVTHEfT1rgiKWTuyw9J4qPcE2vaxUNsRpg6cvDAtHue7+ikRf9SoLgBTVTTEpmVD8XhHGANaBVZCAN4PljRUH9NhsbxTC0A0XLfgIifEomo7qlL5fiDoRe1yoykCaYefyIZGDWSLsfvJopblE0MuMQV7GSU5aeEy7JtkIvaxUZSBOYUTJl0+bzB/+LoBJEr0TNFO+FCOuSNcctM4+/EXSbelmryEAc4AmXZfcONioaOaNmioHUL4Eoud6eEEOEj8q6gjOD7mVGqS0BZb2qVWQgAsw8/qpEFr46/RDhQ/HxpV94yMnVEIiSUM0U96kZ+r/d1P9jBj3E89C2jV7UKlrmlaAFz9Nl13Jm0JcaZetwQtGyGyDC9hDhfg/3nTLz+IvMKAUVONaUXtMqMhBJeKoaXXKytxoGAJhhBl3O78WT112u54LiOWTtB3s9RPhmiLAmSszmwIyZx3e4/ZH5SS9pFRmIC/iDP9lioE+QdNw46vSKVtEcxAWWnnuD+wvJjrPbScHM41QYjAP0kFaRgbiEO9V92sWKTdDUa45/tRNzDid6QavIQDxgv3kqY31fZgYd7WCWR1BziyA3B11zvBW6XavIQFrAzKcmzTz+OADgaICphhph1Txk8ac7UVbZC92qVWQgLcKMklkZ67vPfjtxn6QgH/5lZlBi5vFHzHzqR2EbUonoRq2iVSyfUbTsIF+Tt7/PBh8uaT9YaunkKN8jCKSkWSfoBq0iAwkQRctuBAB8jpcru0ky66H9kM8DAM5YOqHMoK8HWSU2LIRVq8hA2ghEyX6IcJyn5bxuhZ+QPXl9FwBQaZYVfa0RFq16MrNiWOEZH893uh3dQFi0iibpEREORAYSEeFAZCAREQ5EBhIR4UBkIBERDkQGEhHhQLTM20bCsrbfDQwlkv1DCWetZgrRPkhX42V3WNHImtxJH0nXtNqaltdqa/qqVtMFQufK9PW5crSTHmoC9C86wgz6Si/5Yo2ks4NDCXzvcMJfraYL5Mhcmb4yV+4dX6ynAABOtSQuVsb6PtbGJrlG0bI3Khp5GACwK8Ce2WQGPWzp5ElmlDoZW9ESI+nsjVvTwWtVLdPDMwXy5FzZu1Yf8LdNnknw4PtmfIgZ9PuL89U/tbFNUkCUVAcPVJ6CCB/iQ4MgFz76YwNx3L9pdC9EeGFxvvLLMGrSjKFEUv3mZOWp4UR7tFKui+PEbaN7hxJ44d13Kr989x33WoXCQCDC9rBkh8Mh6xbnKyeYUfp9G5slRM0U71U0cgoAsLnNK4IwNhD/fP+m0S/Z429mlN5p4709sXuieO/WdGe0Uq6Lfz5xW02rubI7rcKyzCtTHGVLG9ohBUTJ/vj40ss8c59MWsuguEnRyFk1U9zXwTY4MpRI9j8ytfTycKLzWm1Nk7O7J9xpFQoDYQY9z/MhNYWvBHUcnhjtFwCAuzrdFk4MInywlmozGapVyaFE8vo9E+HSajiBDz4ytfTcUEJOq5AYyHI4pKg88XaIklJ5VoNC0bK38KyBogL0nSCtZujpTtbgWMlIOnvLnonwarVngp62ezfRgaFYxQK18XwWIkycjrF0ssPScy+1r1VXCThbYH1DrCcyK9rGsTXdmlbVMqVz5atazRRqWo2kr2o1lMA3Dyda0+rYfnzHXDnkmRXB1R+gqBfpyH5Ir+WbDRI+rPKk1XSBHJor05ecfrCNGElnN/D9FE9aHduPvzhXDnFu3jrx8aX/AwAYdDrG0slN7Ux1Yw9Z+JzDzVDBNoyHLT1X8uH+UNHIA7x3lZ7k8ozl32r1/m6whyx8zuFKq+kCeXim0LpWQ4kkHEmTB4YT7rSqlumh5/c31ipUBqJmit+DCH9HcJheGeu7rU1Nso32ZReTzAVm0DE3FV1lgSi5Xs3QH7pM67+rnSUQHplyp1W1TMee3++/VkOJ5Po9E+60qpbpruf3v1+rUEzS6zCD/lgiV5KmZopfaEd71EzxXhcP/IKlk81BGAeoLWRcrqXMXM5QKOVCARE+DFHSsUf2i90T7rSaLpDNQRiHzVy5dPn72/q+Wi3LazWcwIeHEu/XKlQ9CJB/Y18y8/iTQbpbQJRU1Qx9S7KrbuvEWM0Ut/CilDJtO1UZ6/tikO0ZSiTVPRPyWokmxn6ye6K4ZTghr9X3t12rVSh20ldxASK8V3DMh/o3jcaDXNEaPFB5iu/6imj7qtHC7KQ9V5uCCNtDiA8KDv/XfLf97aDa881Jea3aaRw2b56uaTWckNdqrnxVq1ANscDVssIy2cB3BbWDrGjZGyXHrxc6taRq68QMul0mfaeikfGg2jGSlteq3cZRZ6aQ+1W1LKfV1vS1WoWxB7GZhQhnRJ6esYG4BhH+zcLs5Ft+3lzN0Me5M50TC5ZObl+YnfwHP+/thoXZySpE+L3YQHyb4FAVAHCOGSUZlx5X7JmQ02q6QG5/83TntHrz9GR1KIHfU66T02quXNMqdD0IqL0dLzKDyrz1YhDhF9RM8W6/7s1LfO0SHccMOmbpuV/7dV+v8HT+VHQcd8X3lZG0nFbVMh2bKXReq+f3y2nFXfGXCaWBgNp+x2O2JUscWjeSr/lxX4jwvRIxCmeDWq3ygqWTvRLDhxEe4egbQwk5rYJarfLCdEFOKx7hGF4DYUZp0dKJPbaVGbPaRnJEzRSfatVfi0cCOmLp/r+NW8HSc7/l5QQcgQjv8fO+PBLQkelCuLSaKchpNZSoaRVaAwG1B/9rZlDRitYVIMIPqhn6c0XLbvJyP/6GFYV+nvVjh9xveI/r+GaECPvmVcvfsEKt/Ngh95vpglir4URNq1AbCKiNsY8xgz7q4pSbFI2cUTPFpyFKuvXL+ZzoAEsnh1xesy3Y8zYAgC447AZFy/pVdVao1XQhnFrNFOS0Gkln1dAbCKgZyXeZQY+4OMUecu1VM/R3aqb4Q9mxt0TMCWMG7Yg3sQyWToRDB78Cz3j2ESfYXDm8Wk0X5LTqCgMBtYf/DQDACy5PgxDhhxSNvBUfX5pWM8V9AmMRLVfOhKXMciOYQV8THQMRltnQk0GoVSf2PGSZK4u1GkrgzaGKQHPCnrRXxvr+Qs0UTftH7+ESIxBh+z+7p7hc212mF5lBTbuT4sc45mJiBhUuEQLuVTqUwEm+pm7OlWnJbQqaoURS5deAAIDZmUJOWCuD58865/TjhQi7WskaSWfXc11Wxnb8uUirallOq07B82c5ajWcwBu7xkDqmPnUt9VM8QLPIuK1/etrEYrY/sFIn8SDnRzhwUIvrnLbvzRdIDtmCrk3ZO6ze6J4gLtsX1mR25omp47tx38h8Va+IHi7S+Wf4v5VzwIARBtrDeHBTmFHqFXXDLFWYuZTz1j68hi43Wk6Hf2Z7B/V1jSZahDTMmj/3f5cdIPdE8U9wwk8vtI4ONv3TNCfiM63dHJBcIiwDTyuo+jVODiB+X75xXRBrFVXGgiordr8vZnHn+J1t9uFY1rLkTT5KwevUYV/7gjvOZqxfSSdFYWXil4aQq9W3s5WNxW7IV2qUKuuNRBQG3NbvO72iOSue0vUY8ibMZxwngCLPueZNkRDIE97PG4YTuCRVq9RjyHvdrraQOrw3uTTPJjoYgebIpofOH7O46JFbhA9k5u3G+gJAwF8lcvMpyYrY30fs3RyFwBgSsa92Q08+0hTqmU61crnHKfVHzZXpqKd6ZbT/lTLdKbVa/DsI2FHqFXPGMhKLD33SmWs7w5LJx9hBn2I75r68eZd7/ThTIH82P6n2cf8c0e471LDnqZapmSuXDKdzocIi0JsL4naMFMgP+IrPK3gqFUYGEqItepJA6lj6blLZj71ZGWs7zYzjwcsnWDuaHiU/5ArLg3neqcP7SHSsf34jmqZHlzxI1+w/58HCwl7tJlC7lfTheU5lb6iB7xYLdP08/tTPxCdL7HP4Whg/HssHNuPU7wX9oqjVmFgOCHWKnQx6Z0kPr70/5z2VphBD5r51Lfb2yp3xMeX/q9gKffFyljfTtnr8Y1CZeVwda5MrT0T9A9OWtkvhef3h1urR6bEWnXdRmHAnBfsQjuVaOg43I3GcZ9DZrNzJXw1qtGKlKNWPONhaOHeyI5aVcv0XE8PsTwgyux4g6Jl/aiEFAgQYWFkJTOo6DvKItRqJB1erYYSYq3myvRMZCArsHQi9B/iEYehhGc5cYIxg0q5u4iYLoi14hGHoYRnOXGCzZXpG5GBrIAZ9HWJoKP7O51lvhGKlr1VYvfbN2/kubJYq+EEvn8oET6tRtJyWs2VSwuRgayAe8OK3oyqopEH2tQkaRSNiFK22j2k23CBpnBvWKFWI+nwabU1LdZqulDTKjKQVVg6Efp2QYQJRMnQrPOrmeI9AIC2B3tNF8RaDScwGUqER6vdE3Ja1YO9IgNZBf8RifYKFJ5IuuPYhgoRflzi0ILfqVr5j0ioFU8k3XFsQx1OyGlVr4wbGcgqmFGy37SHJQ5N8+TWHUXNLMdsCBNUWzo56Pe958olVi3LacWTW3cUHt8i1Gq6cFWryEAaYOnkSfsf0XEQ4cNqptix4qJqpvg9AMB2iUNfCCrJ3UxBTqvhBD68e6JzWu2ekNdqZZK7sKYe7SiL81UGEV6IDcQ/Lzg0FhuIfwUAMNXuUsxqprgPIvwfJQ5llk52MqP0T0G04913qmwogReU68RaKdfVtHJbirlVdk8U9w0n5LSaLpCdc+WrWkU9SBMsnTwjGWOiKBqZUTPFZBuatQwvNCQ1ZGIGHecpgQJjpiCv1dY0mdk90T6t7J5jOCGnVbVMx3lKoCtEPUgTFuerfwIAnOE1AkUvkg/GBuJpiPB7C7OTvmzENcKekA8eqByPDcTvlzzl3OUTo1/l3yUw3n2nphWvESjUSrkunh5K4PfePB2cVvaE/JuTlePKdfJavfrE6Ff5d7lCZCAO2MMmyezpNuvs43hurTPMKP2jn21RM8V7FI38dwDAzZKnLJh5/Fm/29EMe9gkmT3dZp19HM+tdWau7G8bd08U79madqfVsf34s43aEXnzShAfX3rOTb07vsNcsHTyWKvDG0XL3so3AeXTrwCwyAx6l5lPvdrKvb3wyJQ3raYL5LHVwxu3jKSzt/JNQFdaVcv0ruf3N9YqMhAJIErG1Aw97VJ4wB++bumkwAz6Gt+pF6Jo2Y0Q4bu5b5Xr5AnMoA/xsghtZyiRjO2Z8K7VdIEU5sr0Nb5TL2Qknd04lMB3c98q11pVy/QhXhahIZGBSMLLQf/UfiYtXOYcL/Z5YVVGjX6I8CAPdtrsodb3FTppHHV42iBftOKpea7RaiiBB3mwU0taiYwDRAbiDm4kJ1rMFxUU9rDq4U4bRx1uJKHVqlqmD4uMA0STdHcszlf/yAx6PDYQ/3BsIP6ZTrdnBQvMoDvMfOq5TjekzrvvVP84V6bH/+V18Q8r14VLq2qZ7nh+v5xWUQ/iETVTvAcifFiyvHCQnDPzeEeQVWxbZfdE8Z7hRDi0OrYf71hZxVZEZCAtAFFyUM3QpyVdGPyG1TYByWPMECeD6DRDieTgnonOaVXbBCSPySTOWEk0xGqBxfnqe5ae+wnfULyhlQmjS16wdLLz8on7Xg56E9Av3n2n+t5MoabVcKK9Wk0XyM5Xn7jv5dWbgDJEPYiPKFr2Tl5NtuXUnQ1gfG/lYBiq67bKSDp7J68mG5hW0wVysNXqupGBBADfx9jDawKKkk07YT/oGUsnLzCDvuR3PEcY4PsYe3hNwJa1mi6QF+bK9KV6PEerRAYSMLwm4BaI8Ga+z7GBDy9WT1gv8eCjCjPoOWbQM8ygb4S5opXfjKRrWg0l8Ga+zyHUqlqm5+bK9Mxcmb4RREWr/x8AAP//mC6b1mgHT/IAAAAASUVORK5CYII=;rotation=0;" vertex="1" parent="1">
          <mxGeometry x="1065.25" y="179" width="55" height="55" as="geometry" />
        </mxCell>
        <mxCell id="7sJCd6B2Vx5864JhMqsD-22" value="&lt;b&gt;unicorn&lt;/b&gt;" style="text;html=1;strokeColor=none;fillColor=none;align=center;verticalAlign=middle;whiteSpace=wrap;rounded=0;" vertex="1" parent="1">
          <mxGeometry x="531.13" y="607" width="49.25" height="30" as="geometry" />
        </mxCell>
        <mxCell id="7sJCd6B2Vx5864JhMqsD-23" value="&lt;b style=&quot;border-color: var(--border-color);&quot;&gt;Ruby on Rails&lt;/b&gt;" style="text;html=1;strokeColor=none;fillColor=none;align=center;verticalAlign=middle;whiteSpace=wrap;rounded=0;" vertex="1" parent="1">
          <mxGeometry x="628" y="607" width="90" height="30" as="geometry" />
        </mxCell>
        <mxCell id="7sJCd6B2Vx5864JhMqsD-56" style="edgeStyle=orthogonalEdgeStyle;rounded=0;orthogonalLoop=1;jettySize=auto;html=1;" edge="1" parent="1">
          <mxGeometry relative="1" as="geometry">
            <mxPoint x="335" y="471" as="sourcePoint" />
            <mxPoint x="500" y="537.5" as="targetPoint" />
          </mxGeometry>
        </mxCell>
        <mxCell id="7sJCd6B2Vx5864JhMqsD-64" style="edgeStyle=orthogonalEdgeStyle;rounded=0;orthogonalLoop=1;jettySize=auto;html=1;entryX=0.853;entryY=0.329;entryDx=0;entryDy=0;entryPerimeter=0;" edge="1" parent="1" source="7sJCd6B2Vx5864JhMqsD-51" target="7sJCd6B2Vx5864JhMqsD-55">
          <mxGeometry relative="1" as="geometry" />
        </mxCell>
      </root>
    </mxGraphModel>
  </diagram>
</mxfile>
